<svg width="14" height="14" viewBox="0 0 14 14" fill="none" xmlns="http://www.w3.org/2000/svg">
<path fill-rule="evenodd" clip-rule="evenodd" d="M3.7977 1.55029C3.59879 1.55029 3.40802 1.47128 3.26737 1.33062C3.12672 1.18997 3.0477 0.999205 3.0477 0.800293C3.0477 0.601381 3.12672 0.410615 3.26737 0.269963C3.40802 0.12931 3.59879 0.050293 3.7977 0.050293H12.7977C12.9966 0.050293 13.1874 0.12931 13.328 0.269963C13.4687 0.410615 13.5477 0.601381 13.5477 0.800293V9.80029C13.5477 9.9992 13.4687 10.19 13.328 10.3306C13.1874 10.4713 12.9966 10.5503 12.7977 10.5503C12.5988 10.5503 12.408 10.4713 12.2674 10.3306C12.1267 10.19 12.0477 9.9992 12.0477 9.80029V2.61029L1.3277 13.3303C1.18552 13.4628 0.997477 13.5349 0.803175 13.5315C0.608874 13.528 0.423489 13.4493 0.286076 13.3119C0.148663 13.1745 0.0699513 12.9891 0.0665231 12.7948C0.0630949 12.6005 0.135218 12.4125 0.267698 12.2703L10.9877 1.55029H3.7977Z" fill="#3A3A3A"/>
</svg>
