<svg width="22" height="20" viewBox="0 0 22 20" fill="none" xmlns="http://www.w3.org/2000/svg">
<path fill-rule="evenodd" clip-rule="evenodd" d="M6.39488 2.28729C6.66188 0.977293 7.82788 0.050293 9.16288 0.050293H12.4309C13.7659 0.050293 14.9309 0.977293 15.1989 2.28729C15.2294 2.43722 15.3114 2.57176 15.4306 2.66763C15.5499 2.7635 15.6989 2.81467 15.8519 2.81229C17.2549 2.87229 18.3329 3.04529 19.2329 3.63629C19.7999 4.00829 20.2879 4.48629 20.6679 5.04529C21.1409 5.73929 21.3489 6.53729 21.4489 7.50129C21.5469 8.44429 21.5469 9.62529 21.5469 11.1213V11.2063C21.5469 12.7023 21.5469 13.8843 21.4489 14.8263C21.3489 15.7903 21.1409 16.5883 20.6679 17.2833C20.2858 17.8419 19.7983 18.3205 19.2329 18.6923C18.5299 19.1533 17.7229 19.3573 16.7449 19.4543C15.7869 19.5503 14.5859 19.5503 13.0599 19.5503H8.53388C7.00788 19.5503 5.80688 19.5503 4.84888 19.4543C3.87088 19.3573 3.06388 19.1543 2.36088 18.6923C1.79532 18.3202 1.30786 17.8412 0.925875 17.2823C0.452875 16.5883 0.244875 15.7903 0.144875 14.8263C0.0468751 13.8843 0.046875 12.7023 0.046875 11.2063V11.1213C0.046875 9.62529 0.0468751 8.44429 0.144875 7.50129C0.244875 6.53729 0.452875 5.73929 0.925875 5.04529C1.30786 4.48636 1.79532 4.0074 2.36088 3.63529C3.26088 3.04529 4.33888 2.87329 5.74188 2.81229L5.77488 2.81129C5.92203 2.80621 6.0632 2.75176 6.17566 2.65671C6.28812 2.56166 6.36533 2.43154 6.39488 2.28729ZM9.16288 1.55029C8.52288 1.55029 7.98588 1.99329 7.86488 2.58629C7.66988 3.54629 6.81788 4.30229 5.79288 4.31129C4.44488 4.37129 3.72288 4.53629 3.18288 4.89029C2.78232 5.15422 2.43691 5.49352 2.16588 5.88929C1.88988 6.29429 1.72388 6.81329 1.63588 7.65629C1.54788 8.51229 1.54688 9.61629 1.54688 11.1643C1.54688 12.7123 1.54688 13.8153 1.63688 14.6713C1.72388 15.5143 1.88988 16.0333 2.16688 16.4393C2.43488 16.8333 2.77988 17.1733 3.18388 17.4383C3.60088 17.7113 4.13488 17.8763 4.99788 17.9623C5.87188 18.0493 6.99788 18.0503 8.57488 18.0503H13.0189C14.5949 18.0503 15.7209 18.0503 16.5959 17.9623C17.4589 17.8763 17.9929 17.7123 18.4099 17.4383C18.8139 17.1733 19.1599 16.8333 19.4279 16.4383C19.7039 16.0333 19.8699 15.5143 19.9579 14.6713C20.0459 13.8153 20.0469 12.7113 20.0469 11.1643C20.0469 9.61729 20.0469 8.51229 19.9569 7.65629C19.8699 6.81329 19.7039 6.29429 19.4269 5.88929C19.1559 5.49316 18.8105 5.15351 18.4099 4.88929C17.8719 4.53629 17.1499 4.37129 15.7999 4.31129C14.7759 4.30129 13.9239 3.54729 13.7289 2.58629C13.6649 2.29056 13.5008 2.02598 13.2643 1.83723C13.0278 1.64848 12.7334 1.54713 12.4309 1.55029H9.16288ZM13.3169 6.05029C13.5158 6.05029 13.7066 6.12931 13.8472 6.26996C13.9879 6.41062 14.0669 6.60138 14.0669 6.80029V8.48029C14.0669 8.65246 14.0076 8.81938 13.8991 8.95304C13.7906 9.08669 13.6394 9.17894 13.4709 9.21429L11.9509 9.53429C11.7706 9.57238 11.5827 9.54279 11.4228 9.45117C11.263 9.35955 11.1425 9.2123 11.0843 9.03751C11.026 8.86273 11.0342 8.67262 11.1072 8.50346C11.1801 8.3343 11.3128 8.1979 11.4799 8.12029C10.9641 7.96718 10.4119 7.99057 9.91086 8.18675C9.40984 8.38293 8.98859 8.74068 8.71387 9.20333C8.43915 9.66598 8.32667 10.2071 8.39423 10.7409C8.4618 11.2747 8.70555 11.7707 9.08688 12.1503C9.40848 12.4719 9.81424 12.6962 10.2576 12.7976C10.7009 12.8989 11.1639 12.8732 11.5933 12.7234C12.0227 12.5735 12.4011 12.3056 12.6851 11.9504C12.9691 11.5952 13.1472 11.1671 13.1989 10.7153C13.2252 10.5209 13.3267 10.3446 13.4815 10.2241C13.6363 10.1036 13.8322 10.0486 14.0271 10.0708C14.222 10.0931 14.4005 10.1908 14.5242 10.343C14.6479 10.4953 14.707 10.69 14.6889 10.8853C14.594 11.7141 14.2372 12.4909 13.6702 13.1028C13.1032 13.7147 12.3558 14.1297 11.5366 14.2873C10.7174 14.4449 9.86936 14.337 9.1158 13.9792C8.36224 13.6214 7.74255 13.0324 7.34693 12.298C6.9513 11.5636 6.80041 10.7221 6.91621 9.89602C7.032 9.06992 7.40844 8.30233 7.99074 7.705C8.57303 7.10767 9.33077 6.71178 10.1537 6.57495C10.9765 6.43813 11.8216 6.56753 12.5659 6.94429V6.80029C12.5659 6.60138 12.6449 6.41062 12.7855 6.26996C12.9262 6.12931 13.117 6.05029 13.3159 6.05029" fill="#3A3A3A"/>
</svg>
