<svg width="25" height="25" viewBox="0 0 25 25" fill="none" xmlns="http://www.w3.org/2000/svg">
<path opacity="0.5" d="M22.2969 14.1514V11.9494C22.2969 9.31737 22.2969 8.00037 21.5269 7.14537C21.4562 7.06647 21.3815 6.99136 21.3029 6.92037C20.4479 6.15137 19.1309 6.15137 16.4989 6.15137H16.1249C14.9719 6.15137 14.3949 6.15137 13.8569 5.99837C13.5616 5.91397 13.2771 5.79586 13.0089 5.64637C12.5209 5.37537 12.1129 4.96637 11.2969 4.15137L10.7469 3.60137C10.4729 3.32737 10.3369 3.19137 10.1929 3.07137C9.57354 2.55801 8.81381 2.24331 8.01288 2.16837C7.82688 2.15137 7.63287 2.15137 7.24687 2.15137C6.36387 2.15137 5.92287 2.15137 5.55487 2.22137C4.76471 2.37059 4.03787 2.7545 3.46918 3.32302C2.90049 3.89153 2.51635 4.61825 2.36687 5.40837C2.29687 5.77737 2.29688 6.21937 2.29688 7.10137V14.1514C2.29688 17.9224 2.29687 19.8084 3.46887 20.9794C4.64087 22.1504 6.52588 22.1514 10.2969 22.1514H14.2969C18.0679 22.1514 19.9539 22.1514 21.1249 20.9794C22.2959 19.8074 22.2969 17.9224 22.2969 14.1514Z" fill="#4C9C8B"/>
<path d="M14.795 11.5914C14.9435 11.7234 15.0336 11.909 15.0454 12.1073C15.0572 12.3057 14.9898 12.5007 14.858 12.6494L12.191 15.6494C12.1207 15.7285 12.0343 15.7919 11.9377 15.8352C11.8411 15.8786 11.7364 15.901 11.6305 15.901C11.5246 15.901 11.4199 15.8786 11.3233 15.8352C11.2267 15.7919 11.1404 15.7285 11.07 15.6494L9.73603 14.1494C9.60395 14.0006 9.53639 13.8054 9.5482 13.6068C9.56001 13.4082 9.65024 13.2225 9.79903 13.0904C9.94781 12.9583 10.143 12.8907 10.3416 12.9026C10.5402 12.9144 10.7259 13.0046 10.858 13.1534L11.63 14.0234L13.737 11.6534C13.8692 11.505 14.0548 11.4151 14.2532 11.4035C14.4516 11.3919 14.6464 11.4595 14.795 11.5914Z" fill="#4C9C8B"/>
</svg>
