<svg width="66" height="54" viewBox="0 0 66 54" fill="none" xmlns="http://www.w3.org/2000/svg">
<path fill-rule="evenodd" clip-rule="evenodd" d="M26.7734 0.756836H39.1094C44.6234 0.756836 48.9914 0.756836 52.4084 1.21584C55.9244 1.68984 58.7714 2.68584 61.0184 4.92984C63.2624 7.17684 64.2584 10.0238 64.7324 13.5398C65.1914 16.9598 65.1914 21.3248 65.1914 26.8388V27.1748C65.1914 32.6888 65.1914 37.0568 64.7324 40.4738C64.2584 43.9898 63.2624 46.8368 61.0184 49.0838C58.7714 51.3278 55.9244 52.3238 52.4084 52.7978C48.9884 53.2568 44.6234 53.2568 39.1094 53.2568H26.7734C21.2594 53.2568 16.8914 53.2568 13.4744 52.7978C9.95841 52.3238 7.11141 51.3278 4.86441 49.0838C2.62041 46.8368 1.62441 43.9898 1.15041 40.4738C0.691406 37.0538 0.691406 32.6888 0.691406 27.1748V26.8388C0.691406 21.3248 0.691406 16.9568 1.15041 13.5398C1.62441 10.0238 2.62041 7.17684 4.86441 4.92984C7.11141 2.68584 9.95841 1.68984 13.4744 1.21584C16.8944 0.756836 21.2594 0.756836 26.7734 0.756836ZM14.0714 5.67684C11.0534 6.08184 9.31341 6.84384 8.04141 8.11284C6.77541 9.38184 6.01341 11.1218 5.60841 14.1398C5.19441 17.2238 5.18841 21.2858 5.18841 27.0068C5.18841 32.7278 5.19441 36.7928 5.60841 39.8768C6.01341 42.8918 6.77541 44.6318 8.04441 45.9008C9.31341 47.1698 11.0534 47.9318 14.0714 48.3368C17.1554 48.7508 21.2174 48.7568 26.9384 48.7568H38.9384C44.6594 48.7568 48.7244 48.7508 51.8084 48.3368C54.8234 47.9318 56.5634 47.1698 57.8324 45.9008C59.1014 44.6318 59.8634 42.8918 60.2684 39.8738C60.6824 36.7898 60.6884 32.7278 60.6884 27.0068C60.6884 21.2858 60.6824 17.2238 60.2684 14.1368C59.8634 11.1218 59.1014 9.38184 57.8324 8.11284C56.5634 6.84384 54.8234 6.08184 51.8054 5.67684C48.7244 5.26284 44.6594 5.25684 38.9384 5.25684H26.9384C21.2174 5.25684 17.1584 5.26284 14.0714 5.67684ZM13.2074 13.5668C13.5894 13.1087 14.1377 12.821 14.7318 12.767C15.3258 12.713 15.917 12.8971 16.3754 13.2788L22.8614 18.6758C25.6604 21.0068 27.6014 22.6208 29.2454 23.6768C30.8324 24.6968 31.9094 25.0418 32.9444 25.0418C33.9794 25.0418 35.0564 24.6998 36.6434 23.6768C38.2844 22.6208 40.2284 21.0068 43.0274 18.6758L49.5044 13.2758C49.7315 13.0867 49.9937 12.9442 50.2759 12.8564C50.5581 12.7686 50.8548 12.7373 51.1491 12.7642C51.4434 12.791 51.7296 12.8756 51.9912 13.0131C52.2528 13.1506 52.4848 13.3382 52.6739 13.5653C52.863 13.7925 53.0055 14.0546 53.0933 14.3368C53.1811 14.619 53.2125 14.9157 53.1856 15.21C53.1587 15.5044 53.0741 15.7905 52.9366 16.0521C52.7992 16.3137 52.6115 16.5457 52.3844 16.7348L45.7964 22.2248C43.1354 24.4448 40.9814 26.2388 39.0764 27.4628C37.0964 28.7378 35.1674 29.5418 32.9444 29.5418C30.7214 29.5418 28.7924 28.7348 26.8094 27.4628C24.9074 26.2388 22.7534 24.4418 20.0924 22.2278L13.5014 16.7378C13.2741 16.5486 13.0864 16.3165 12.9489 16.0547C12.8114 15.7929 12.7268 15.5065 12.7001 15.212C12.6733 14.9175 12.7049 14.6206 12.793 14.3383C12.8811 14.056 13.0239 13.7939 13.2134 13.5668" fill="white"/>
</svg>
