<svg width="59" height="44" viewBox="0 0 59 44" fill="none" xmlns="http://www.w3.org/2000/svg">
<path fill-rule="evenodd" clip-rule="evenodd" d="M0.402344 2.91455C0.402344 2.31781 0.639396 1.74552 1.06135 1.32356C1.48331 0.901603 2.05561 0.664551 2.65234 0.664551H56.6523C57.2491 0.664551 57.8214 0.901603 58.2433 1.32356C58.6653 1.74552 58.9023 2.31781 58.9023 2.91455C58.9023 3.51129 58.6653 4.08358 58.2433 4.50554C57.8214 4.9275 57.2491 5.16455 56.6523 5.16455H2.65234C2.05561 5.16455 1.48331 4.9275 1.06135 4.50554C0.639396 4.08358 0.402344 3.51129 0.402344 2.91455ZM0.402344 14.9146C0.402344 14.3178 0.639396 13.7455 1.06135 13.3236C1.48331 12.9016 2.05561 12.6646 2.65234 12.6646H56.6523C57.2491 12.6646 57.8214 12.9016 58.2433 13.3236C58.6653 13.7455 58.9023 14.3178 58.9023 14.9146C58.9023 15.5113 58.6653 16.0836 58.2433 16.5055C57.8214 16.9275 57.2491 17.1646 56.6523 17.1646H2.65234C2.05561 17.1646 1.48331 16.9275 1.06135 16.5055C0.639396 16.0836 0.402344 15.5113 0.402344 14.9146ZM53.9373 22.0935C57.0423 23.2125 58.9023 26.2696 58.9023 30.0226C58.9023 32.7166 57.3303 35.1525 55.7343 36.9885C54.0783 38.8965 52.0383 40.5585 50.4243 41.7495L50.2023 41.9146C49.1223 42.7156 47.8983 43.6245 46.1553 43.6245C44.4123 43.6245 43.1853 42.7156 42.1053 41.9146L41.8833 41.7495C40.2693 40.5615 38.2293 38.8965 36.5733 36.9885C34.9773 35.1495 33.4053 32.7166 33.4053 30.0226C33.4053 26.2696 35.2653 23.2125 38.3703 22.0935C40.8753 21.1875 43.6803 21.7335 46.1553 23.4735C48.6303 21.7335 51.4353 21.1905 53.9403 22.0935M52.4133 26.3236C51.4023 25.9636 49.6533 26.1136 47.7333 28.0066C47.3125 28.4206 46.7457 28.6527 46.1553 28.6527C45.5649 28.6527 44.9982 28.4206 44.5773 28.0066C42.6573 26.1166 40.9083 25.9605 39.8973 26.3265C38.9343 26.6715 37.9053 27.7546 37.9053 30.0226C37.9053 31.0336 38.5593 32.4136 39.9693 34.0366C41.3193 35.5876 43.0593 37.0275 44.5503 38.1255C45.2493 38.6385 45.5913 38.8845 45.8643 39.0315C46.0443 39.1245 46.0923 39.1245 46.1493 39.1245H46.1613C46.2213 39.1245 46.2693 39.1245 46.4463 39.0315C46.7193 38.8845 47.0613 38.6415 47.7603 38.1255C49.2513 37.0275 50.9943 35.5876 52.3413 34.0366C53.7513 32.4136 54.4053 31.0366 54.4053 30.0226C54.4053 27.7546 53.3763 26.6686 52.4133 26.3236ZM0.402344 26.9146C0.402344 26.3178 0.639396 25.7455 1.06135 25.3236C1.48331 24.9016 2.05561 24.6646 2.65234 24.6646H23.6523C24.2491 24.6646 24.8214 24.9016 25.2433 25.3236C25.6653 25.7455 25.9023 26.3178 25.9023 26.9146C25.9023 27.5113 25.6653 28.0836 25.2433 28.5055C24.8214 28.9275 24.2491 29.1646 23.6523 29.1646H2.65234C2.05561 29.1646 1.48331 28.9275 1.06135 28.5055C0.639396 28.0836 0.402344 27.5113 0.402344 26.9146ZM0.402344 38.9146C0.402344 38.3178 0.639396 37.7455 1.06135 37.3236C1.48331 36.9016 2.05561 36.6646 2.65234 36.6646H23.6523C24.2491 36.6646 24.8214 36.9016 25.2433 37.3236C25.6653 37.7455 25.9023 38.3178 25.9023 38.9146C25.9023 39.5113 25.6653 40.0836 25.2433 40.5055C24.8214 40.9275 24.2491 41.1646 23.6523 41.1646H2.65234C2.05561 41.1646 1.48331 40.9275 1.06135 40.5055C0.639396 40.0836 0.402344 39.5113 0.402344 38.9146Z" fill="white"/>
</svg>
