<svg width="25" height="25" viewBox="0 0 25 25" fill="none" xmlns="http://www.w3.org/2000/svg">
<path fill-rule="evenodd" clip-rule="evenodd" d="M12.1403 1.65002H12.2543C14.5633 1.65002 16.3723 1.65002 17.7843 1.84002C19.2283 2.03402 20.3683 2.44002 21.2633 3.33402C22.1583 4.22902 22.5633 5.36902 22.7573 6.81402C22.9473 8.22503 22.9473 10.034 22.9473 12.343V12.457C22.9473 14.766 22.9473 16.575 22.7573 17.987C22.5633 19.431 22.1573 20.571 21.2633 21.466C20.3683 22.361 19.2283 22.766 17.7833 22.96C16.3723 23.15 14.5633 23.15 12.2543 23.15H12.1403C9.83127 23.15 8.02227 23.15 6.61027 22.96C5.16627 22.766 4.02627 22.36 3.13127 21.466C2.23627 20.571 1.83127 19.431 1.63727 17.986C1.44727 16.575 1.44727 14.766 1.44727 12.457V12.343C1.44727 10.034 1.44727 8.22503 1.63727 6.81302C1.83127 5.36902 2.23727 4.22902 3.13127 3.33402C4.02627 2.43902 5.16627 2.03402 6.61127 1.84002C8.02227 1.65002 9.83127 1.65002 12.1403 1.65002ZM6.81027 3.32602C5.53227 3.49802 4.76127 3.82602 4.19227 4.39502C3.62227 4.96502 3.29527 5.73502 3.12327 7.01402C3.0966 7.21536 3.07327 7.42736 3.05327 7.65003H6.78527L9.64127 3.16202C8.51427 3.17902 7.58827 3.22202 6.81027 3.32602ZM11.4053 3.15002C11.385 3.20303 11.3602 3.25422 11.3313 3.30302L8.56327 7.65003H13.2853L16.1153 3.20202C15.0543 3.15002 13.7733 3.15002 12.1973 3.15002H11.4053ZM17.7963 3.35702L15.0633 7.65003H21.3403C21.3209 7.42736 21.2976 7.21536 21.2703 7.01402C21.0993 5.73502 20.7723 4.96402 20.2023 4.39402C19.6653 3.85702 18.9483 3.53602 17.7953 3.35702M21.4203 9.15003H2.97427C2.95072 10.2332 2.94172 11.3166 2.94727 12.4C2.94727 14.778 2.94927 16.486 3.12327 17.786C3.29527 19.065 3.62327 19.836 4.19227 20.406C4.76227 20.975 5.53227 21.302 6.81127 21.474C8.11127 21.648 9.81927 21.65 12.1973 21.65C14.5753 21.65 16.2833 21.648 17.5833 21.474C18.8623 21.302 19.6333 20.974 20.2033 20.405C20.7723 19.835 21.0993 19.065 21.2713 17.786C21.4453 16.486 21.4473 14.778 21.4473 12.4C21.4473 11.142 21.4473 10.072 21.4203 9.15003ZM13.5653 12.321L13.6673 12.387C14.2873 12.787 14.8233 13.133 15.1973 13.464C15.5953 13.816 15.9473 14.269 15.9473 14.9C15.9473 15.531 15.5953 15.984 15.1973 16.336C14.8233 16.667 14.2873 17.013 13.6673 17.413L13.5653 17.479C12.9393 17.883 12.3953 18.234 11.9433 18.435C11.4733 18.644 10.8703 18.794 10.2953 18.429C9.75127 18.083 9.58527 17.492 9.51627 16.972C9.44627 16.453 9.44727 15.767 9.44727 14.955V14.845C9.44727 14.033 9.44727 13.347 9.51727 12.828C9.58527 12.308 9.75127 11.718 10.2953 11.371C10.8703 11.006 11.4733 11.157 11.9433 11.365C12.3953 11.566 12.9393 11.917 13.5653 12.321ZM11.0553 12.651H11.0713C11.0606 12.653 11.0553 12.653 11.0553 12.651ZM11.0953 12.653C11.1353 12.66 11.2093 12.681 11.3353 12.736C11.6653 12.883 12.1103 13.168 12.8053 13.616C13.4883 14.056 13.9253 14.341 14.2043 14.587C14.4603 14.814 14.4483 14.893 14.4473 14.9C14.4483 14.906 14.4603 14.986 14.2043 15.213C13.9263 15.459 13.4883 15.743 12.8043 16.185C12.1103 16.632 11.6663 16.917 11.3343 17.064C11.2093 17.119 11.1343 17.14 11.0943 17.147C11.0723 17.104 11.0343 17.001 11.0033 16.774C10.9493 16.366 10.9473 15.782 10.9473 14.9C10.9473 14.018 10.9493 13.434 11.0033 13.026C11.0333 12.799 11.0733 12.696 11.0953 12.653ZM11.0543 17.148L11.0703 17.15C11.0583 17.15 11.0529 17.1494 11.0543 17.148Z" fill="white"/>
</svg>
