<svg width="50" height="30" viewBox="0 0 50 30" fill="none" xmlns="http://www.w3.org/2000/svg">
<g id="&#235;&#139;&#164;&#236;&#150;&#145;&#237;&#149;&#156;&#235;&#161;&#156;&#234;&#179;&#160;=&#236;&#180;&#136;&#235;&#161;&#157;&#235;&#170;&#184;&#237;&#134;&#181;">
<path id="Vector" d="M43.8532 7.11153C42.0807 4.6781 39.6298 2.73915 36.8797 1.53274C33.6933 0.136327 30.1049 -0.223078 26.6673 0.122592C23.0743 0.481997 19.5704 1.60371 16.3452 3.20615C13.5289 4.60485 10.8815 6.42934 8.7527 8.75975C6.69011 11.0192 5.14374 13.8166 4.81254 16.8956C4.53159 19.5121 5.43611 22.891 8.19993 23.809C10.1026 24.3561 12.0373 24.7773 13.9948 25.0795C15.7285 25.3473 17.4781 25.5282 19.2278 25.6518C20.7765 25.7617 22.4485 25.796 23.8783 25.1001C24.5247 24.7842 25.0638 24.3309 25.4064 23.6876C25.6919 23.152 25.845 22.4629 25.5686 21.8906C25.2305 21.1878 24.4311 20.991 23.7139 20.9864C23.0378 20.9818 22.3548 21.0871 21.681 21.1787C21.5416 21.197 21.4023 21.2176 21.263 21.2336C21.2561 21.2336 21.247 21.2359 21.2401 21.2359C21.1716 21.2451 21.0962 21.1672 21.1031 21.0986C21.2127 20.1302 21.6741 19.2626 21.8523 18.3103C22.0213 17.4061 21.7564 16.5705 21.0825 15.9433C20.4156 15.3229 19.5247 15.0459 18.6385 14.92C17.3891 14.7414 15.1666 14.4942 14.5339 15.9364C14.4631 16.0989 14.2278 15.957 14.2963 15.7968C14.6367 15.0184 15.4475 14.6934 16.2401 14.5835C17.115 14.4622 18.0423 14.5377 18.9103 14.6842C19.8171 14.8376 20.7102 15.1741 21.368 15.838C21.9962 16.4698 22.2703 17.2985 22.1492 18.1821C22.0167 19.1298 21.5508 19.9952 21.4046 20.9383C21.4663 20.9292 21.5279 20.92 21.5942 20.9108C21.6901 20.8216 21.7838 20.7346 21.8797 20.6476C22.5535 20.0455 23.2753 19.4961 24.0199 18.9833C25.1392 18.2119 26.3132 17.5045 27.6175 17.0902C29.5864 16.4652 31.6147 16.5591 33.5608 17.2046C34.125 17.3923 34.6869 17.5984 35.242 17.8113C35.3288 17.8456 35.4156 17.8776 35.5024 17.912C35.459 17.9921 35.4156 18.0722 35.3722 18.1546C35.2305 18.4202 35.0912 18.688 34.945 18.949C34.5088 19.725 34.3466 20.5423 34.4425 21.4259C34.5681 22.5865 35.0981 23.6831 36.1054 24.3172C38.0994 25.5717 40.7924 24.8231 42.5535 23.5137C45.0547 21.6503 46.5257 18.4934 46.5987 15.3984C46.6696 12.411 45.5983 9.51061 43.8532 7.11153ZM40.4795 20.192C39.7966 20.0593 39.0199 19.8509 38.6019 19.2443C38.2616 18.7521 38.2136 17.9761 38.7093 17.5663C38.8441 17.4541 39.0405 17.6487 38.9035 17.7609C38.4855 18.1066 38.5631 18.7613 38.8738 19.1527C39.2689 19.6541 39.961 19.812 40.5526 19.9265C40.7262 19.9608 40.6531 20.2241 40.4795 20.192ZM40.7879 14.7872C39.9519 15.7075 38.9697 16.4881 37.8802 17.0856C37.1378 17.4931 36.2241 17.9944 35.3425 17.8319C34.9976 17.7678 34.6915 17.564 34.5704 17.2252C34.4105 16.7811 34.5818 16.2157 34.6938 15.7784C35.1917 13.8418 36.416 12.1295 38.072 11.0169C38.2182 10.9185 38.3553 11.1565 38.2114 11.255C37.3571 11.8273 36.6216 12.5644 36.0483 13.4206C35.5595 14.1508 35.1917 14.9589 34.9679 15.8082C34.8559 16.2317 34.6344 16.8818 34.9016 17.2756C35.1186 17.5938 35.5777 17.6098 35.9226 17.5686C36.7815 17.4633 37.6403 16.9391 38.3575 16.4812C39.1844 15.9547 39.9313 15.316 40.5914 14.5904C40.7125 14.4622 40.9067 14.6567 40.7879 14.7872Z" fill="#006838"/>
<path id="Vector_2" d="M21.2622 21.236C21.2645 21.236 21.2645 21.236 21.2622 21.236C21.3718 21.1261 21.4815 21.0208 21.5934 20.9155C21.5934 20.9155 21.5934 20.9155 21.5911 20.9155C21.4792 21.0208 21.3718 21.1261 21.2622 21.236Z" fill="#006838"/>
<path id="Vector_3" d="M46.7836 16.543C46.626 17.7426 46.2674 18.9124 45.7397 19.9997C45.6643 20.1531 45.5821 20.3019 45.5045 20.4553C45.4291 20.6064 45.4565 20.6476 45.5342 20.8032C45.6392 21.0161 45.7763 21.2153 45.9339 21.3938C46.2993 21.8105 46.7813 22.131 47.3181 22.2729C48.451 22.5705 49.3281 21.7418 49.7119 20.7323C50.1573 19.5625 50.0476 18.1592 49.6319 17.0009C49.0129 15.3687 47.8115 14.0157 46.6443 12.7361C46.8841 13.9883 46.9526 15.2748 46.7836 16.543Z" fill="#006838"/>
<path id="Vector_4" d="M0.648162 25.5671C1.55269 27.7578 3.62441 29.5411 5.98165 29.9234C7.07119 30.0997 8.61756 30.0356 9.39873 29.1314C9.87841 28.5774 9.73907 27.8425 9.28909 27.3206C8.82084 26.7758 8.14474 26.5423 7.47091 26.3591C6.8382 26.1897 6.2055 26.0432 5.6139 25.7502C5.09768 25.4938 4.62486 25.1527 4.21143 24.7498C3.39828 23.9578 2.80897 22.9185 2.58284 21.8013C2.32244 20.5034 2.4869 19.0932 2.90033 17.8433C3.24524 16.7971 3.77516 15.5884 4.85556 15.142C5.05657 14.366 5.32838 13.6129 5.6573 12.8826C5.19133 12.9536 4.72308 13.068 4.30052 13.2786C3.96018 13.4457 3.67237 13.6953 3.39599 13.9517C2.65136 14.6522 1.97068 15.4717 1.4933 16.3782C0.0702729 19.1619 -0.580709 22.5888 0.648162 25.5671Z" fill="#006838"/>
</g>
</svg>
