<svg width="22" height="29" viewBox="0 0 22 29" fill="none" xmlns="http://www.w3.org/2000/svg">
<path d="M18.2163 16.3949C17.3024 18.2465 16.0655 20.0926 14.7982 21.7492C13.5349 23.4006 12.2672 24.8302 11.3138 25.8481C11.1871 25.9833 11.0661 26.1111 10.9516 26.231C10.8371 26.1111 10.7161 25.9833 10.5894 25.8481C9.63599 24.8302 8.36836 23.4006 7.10502 21.7492C5.83773 20.0926 4.6008 18.2465 3.68697 16.3949C2.76371 14.5243 2.23217 12.7714 2.23217 11.2683C2.23217 6.4527 6.136 2.54887 10.9516 2.54887C15.7672 2.54887 19.6711 6.4527 19.6711 11.2683C19.6711 12.7714 19.1395 14.5243 18.2163 16.3949ZM10.9516 28.7072C10.9516 28.7072 21.4149 18.7909 21.4149 11.2683C21.4149 5.48958 16.7304 0.804985 10.9516 0.804985C5.17287 0.804985 0.488281 5.48958 0.488281 11.2683C0.488281 18.7909 10.9516 28.7072 10.9516 28.7072Z" fill="black"/>
<path d="M10.9516 14.7561C9.02537 14.7561 7.46384 13.1946 7.46384 11.2683C7.46384 9.34207 9.02537 7.78054 10.9516 7.78054C12.8779 7.78054 14.4394 9.34207 14.4394 11.2683C14.4394 13.1946 12.8779 14.7561 10.9516 14.7561ZM10.9516 16.5C13.841 16.5 16.1833 14.1577 16.1833 11.2683C16.1833 8.37895 13.841 6.03665 10.9516 6.03665C8.06224 6.03665 5.71995 8.37895 5.71995 11.2683C5.71995 14.1577 8.06224 16.5 10.9516 16.5Z" fill="black"/>
</svg>
