<svg width="582" height="516" viewBox="0 0 582 516" fill="none" xmlns="http://www.w3.org/2000/svg">
<g clip-path="url(#clip0_1199_614)">
<path d="M370.732 0C434.862 0 486.027 18.283 524.248 54.8023C562.447 91.3449 581.569 140.061 581.569 200.903C581.569 261.745 562.307 310.974 523.759 347.19C485.211 383.406 433.323 401.502 368.074 401.502C340.369 401.502 314.834 398.121 291.49 391.335C268.147 384.572 246.086 374.288 225.285 360.506V515.444H53.6719V0H370.732Z" fill="#006838"/>
<path d="M191.984 275.944C206.699 280.188 221.694 283.5 236.829 285.925C251.824 288.327 266.935 289.913 282.093 290.986C295.292 291.918 309.448 292.012 321.504 285.785C326.705 283.103 331.065 279.209 333.84 274.009C336.242 269.508 337.595 263.981 335.986 258.99C334.214 253.487 329.223 250.082 323.696 249.079C317.19 247.89 310.474 249.126 304.014 249.919C302.078 250.152 300.12 250.385 298.184 250.642L299.35 251.808C300.19 243.972 304.154 236.93 305.437 229.187C306.043 225.619 306.066 221.935 304.97 218.437C303.944 215.149 302.078 212.164 299.723 209.645C294.476 204.048 287.154 201.18 279.738 199.874C275.657 199.151 271.482 198.825 267.355 198.615C264.277 198.475 261.175 198.521 258.097 198.918C251.59 199.757 244.641 202.346 241.889 208.829C241.306 210.205 243.335 211.417 243.918 210.018C246.18 204.678 251.59 202.369 257.001 201.436C263.437 200.34 270.34 200.877 276.753 201.763C284.005 202.766 291.328 204.981 296.808 210.065C299.163 212.257 301.146 214.892 302.312 217.9C303.571 221.189 303.757 224.733 303.221 228.185C301.985 236.277 297.857 243.623 296.995 251.808C296.925 252.391 297.578 253.067 298.161 252.974C304.83 252.158 311.593 250.875 318.333 250.945C323.836 250.992 329.853 252.414 332.791 257.545C335.286 261.882 334.423 267.339 332.371 271.677C329.969 276.76 326.052 280.608 321.131 283.29C309.844 289.47 296.318 289.54 283.795 288.747C269.29 287.837 254.785 286.298 240.42 284.106C224.283 281.634 208.285 278.206 192.591 273.659C191.121 273.239 190.515 275.501 191.961 275.921L191.984 275.944Z" fill="white"/>
<path d="M192.613 273.66C171.531 266.711 163.859 241.665 164.932 221.54C166.168 198.103 177.105 175.879 191.82 157.969C207.211 139.243 226.847 124.248 247.951 112.472C271.785 99.1558 297.857 89.3847 324.698 84.3942C351.819 79.3571 380.107 79.4737 406.761 86.9361C429.475 93.3025 450.347 105.522 467.114 122.149C483.391 138.287 495.844 158.622 500.928 181.103C506.198 204.306 502.934 228.746 490.504 249.197C479.73 266.897 461.68 281.636 440.319 282.802C432.25 283.245 423.902 281.659 417.232 276.925C409.863 271.701 406.038 263.189 405.129 254.398C404.803 251.18 404.779 248.008 405.479 244.837C406.248 241.362 407.601 238.05 408.954 234.762C409.537 233.363 407.251 232.757 406.691 234.133C405.246 237.701 403.776 241.315 403.03 245.116C402.401 248.335 402.447 251.576 402.82 254.841C403.357 259.575 404.593 264.239 406.831 268.483C410.772 275.946 417.675 281.193 425.697 283.571C444.517 289.168 464.759 280.68 478.471 267.83C496.404 251.04 506.152 226.134 505.755 201.718C505.382 178.071 496.497 155.241 482.505 136.351C468.233 117.112 448.878 101.604 427.027 91.7867C401.981 80.5464 373.833 77.0484 346.619 79.1472C317.842 81.3859 289.741 89.6645 263.646 101.814C240.606 112.565 218.825 126.58 200.775 144.607C183.635 161.724 169.899 182.828 164.675 206.708C162.227 217.902 161.667 229.352 164.092 240.592C166.308 250.946 171.018 261.231 179.017 268.413C182.795 271.795 187.179 274.337 191.983 275.922C193.429 276.389 194.035 274.127 192.613 273.66Z" fill="white"/>
<path d="M439.549 223.104C435.515 226.439 435.888 232.759 438.663 236.77C442.068 241.69 448.341 243.392 453.914 244.489C455.383 244.768 456.036 242.506 454.544 242.227C449.763 241.294 444.143 240.011 440.972 235.977C438.476 232.805 437.847 227.558 441.205 224.783C442.371 223.827 440.692 222.171 439.549 223.127V223.104Z" fill="white"/>
<path d="M334.888 233.808C347.598 224.34 363.339 219.303 379.173 219.512C383.674 219.559 388.152 220.049 392.582 220.982C394.052 221.285 394.705 219.023 393.212 218.72C377.191 215.385 360.261 217.554 345.522 224.643C341.371 226.648 337.43 229.027 333.722 231.802C332.533 232.688 333.699 234.741 334.912 233.831L334.888 233.808Z" fill="white"/>
<path d="M158.962 190.125C148.398 193.063 141.496 202.485 136.622 211.743C131.002 222.447 126.944 234.06 125.078 246.023C123.236 257.823 123.492 270.02 126.781 281.54C129.719 291.824 135.129 301.152 142.685 308.754C149.774 315.867 158.613 321.417 168.29 324.192C177.688 326.897 188.789 327.201 197.79 322.91C202.105 320.858 206.046 317.266 206.862 312.346C207.748 307.052 204.903 301.992 201.009 298.61C196.508 294.692 190.701 293.083 185.034 291.614C179.437 290.168 174.074 288.559 169.13 285.481C160.478 280.071 153.762 271.536 150.567 261.834C146.533 249.591 149.121 236.835 153.016 224.895C154.042 221.77 155.138 218.692 156.257 215.614C156.77 214.191 154.508 213.562 153.995 214.984C149.634 227.064 145.11 239.797 146.323 252.879C147.232 262.697 151.547 271.979 158.123 279.278C161.434 282.962 165.375 286.134 169.69 288.536C174.564 291.264 179.834 292.687 185.197 294.086C190.561 295.485 196.298 297.141 200.379 301.269C203.97 304.907 206.092 310.317 203.387 315.097C200.985 319.318 196.018 321.557 191.494 322.653C186.97 323.749 181.933 324.052 177.129 323.563C167.428 322.583 158.146 318.409 150.451 312.532C142.755 306.656 136.202 298.587 132.121 289.585C127.34 279.068 125.708 267.221 126.338 255.748C126.967 244.041 129.929 232.498 134.476 221.724C136.645 216.57 139.14 211.486 142.219 206.776C145.017 202.485 148.422 198.404 152.736 195.559C154.835 194.159 157.097 193.11 159.522 192.457C160.991 192.061 160.362 189.775 158.892 190.195L158.962 190.125Z" fill="white"/>
<path d="M434.42 170.075C421.104 178.96 411.24 192.742 407.159 208.226C406.669 210.092 406.249 211.981 405.946 213.87C405.596 216.039 405.27 218.324 406.039 220.446C407.089 223.361 409.747 225.017 412.732 225.46C415.95 225.95 419.355 225.367 422.387 224.271C426.304 222.871 430.082 220.959 433.697 218.907C442.209 214.126 449.928 207.946 456.481 200.694C457.483 199.575 455.828 197.896 454.825 199.038C449.415 205.031 443.211 210.255 436.402 214.569C433.044 216.692 429.523 218.604 425.908 220.26C422.876 221.659 419.751 222.941 416.393 223.221C413.851 223.431 410.633 223.198 408.978 220.959C407.811 219.397 407.835 217.345 408.091 215.502C408.348 213.66 408.744 211.748 409.187 209.905C410.96 202.746 413.991 195.913 418.072 189.78C422.69 182.807 428.683 176.768 435.632 172.127C436.892 171.287 435.702 169.258 434.443 170.098L434.42 170.075Z" fill="white"/>
<path d="M497.221 244.768C494.306 251.764 499.133 259.506 505.476 262.584C512.659 266.105 520.751 263.167 525.905 257.5C539.407 242.622 530.195 220.515 522.243 205.287C517.253 195.702 511.096 186.724 503.984 178.585C502.981 177.442 501.325 179.121 502.328 180.241C508.135 186.887 513.265 194.116 517.649 201.765C522.103 209.554 526.068 217.903 528.54 226.578C530.848 234.74 531.571 243.905 527.28 251.554C523.992 257.454 517.416 262.841 510.233 261.675C503.051 260.509 496.451 252.673 499.506 245.374C500.089 243.975 497.804 243.368 497.244 244.744L497.221 244.768Z" fill="white"/>
<path d="M42.6898 488.16V495.506C42.0835 495.832 41.5704 495.996 41.1507 496.042C42.6198 498.025 43.3661 500.683 43.3661 503.994C43.3661 506.606 42.4333 508.868 40.5677 510.781C38.7021 512.693 36.6499 513.626 34.4112 513.626H32.4989C30.8432 513.626 29.3507 513.159 28.0215 512.25C26.6922 511.34 25.5962 510.081 24.7333 508.472C23.8705 506.863 23.1942 505.044 22.6811 503.062C22.1681 501.056 21.795 498.887 21.5851 496.509H20.1859C19.5562 496.509 18.88 496.882 18.1804 497.605C17.4808 498.351 17.131 499.517 17.131 501.149C17.131 502.082 17.2476 502.875 17.4808 503.551C17.714 504.228 18.0171 504.694 18.3902 504.997C18.7634 505.277 19.0898 505.487 19.3697 505.604C19.6495 505.72 19.9294 505.767 20.1859 505.767H22.0049V513.346H19.9993C17.4108 513.346 15.1954 512.273 13.3298 510.104C11.4875 507.959 10.5547 504.927 10.5547 501.056C10.5547 497.185 11.4875 494.247 13.3298 492.125C15.1954 490.002 17.4108 488.93 19.9993 488.93H38.1191C40.1246 488.93 41.6637 488.673 42.7131 488.16H42.6898ZM34.9242 496.509H27.8815C28.3246 502.875 30.0503 506.047 33.012 506.047H33.5483C34.3878 506.047 35.1807 505.697 35.9736 504.974C36.7665 504.251 37.1396 502.992 37.1396 501.173C37.1396 500.217 36.9297 499.307 36.4867 498.444C36.0436 497.581 35.5305 496.952 34.9242 496.532V496.509Z" fill="#006838"/>
<path d="M11.2764 486.341V478.995L30.7953 476.126H30.8419L11.2764 472.862V466.588L30.8419 463.324L11.2764 460.455V453.109L42.6886 458.66V466.379L26.4344 469.69L42.6886 473.048V480.767L11.2764 486.317V486.341Z" fill="#006838"/>
<path d="M42.689 439.443V447.022H17.8531V452.152H11.2768V447.022H7.87204C2.69498 447.022 0.106445 444.013 0.106445 437.997C0.106445 435.781 0.316326 434.172 0.736088 433.099H7.05584C6.70604 434.289 6.51948 435.618 6.51948 437.087C6.51948 437.857 6.72936 438.44 7.14912 438.836C7.56888 439.233 8.10524 439.443 8.78153 439.443H11.2768V432.68H17.8531V439.443H42.689Z" fill="#006838"/>
<path d="M20.2548 405.746H27.2042C29.303 405.746 30.3757 406.842 30.3757 409.057V422.63H33.1974C34.1769 422.63 35.063 422.187 35.8093 421.301C36.5555 420.414 36.9286 419.342 36.9286 418.059C36.9286 416.776 36.6255 415.634 36.0192 414.631C35.4128 413.628 34.6666 413.115 33.8037 413.115H32.8476V405.769H33.897C36.9053 405.769 39.2373 406.982 40.8931 409.407C42.5488 411.833 43.3883 414.724 43.3883 418.036C43.3883 421.347 42.4788 424.169 40.6599 426.571C38.8409 428.973 36.4156 430.162 33.4306 430.162H20.2548C17.1765 430.162 14.7979 428.973 13.0955 426.594C11.3931 424.215 10.5303 421.37 10.5303 418.036C10.5303 414.701 11.3698 411.739 13.0722 409.337C14.7745 406.935 17.1532 405.723 20.2548 405.723V405.746ZM24.2891 413.325H20.931C19.6484 413.325 18.6923 413.768 18.0627 414.678C17.433 415.564 17.1065 416.706 17.1065 418.082C17.1065 419.458 17.433 420.484 18.0627 421.347C18.6923 422.21 19.6718 422.653 20.931 422.653H24.2891V413.348V413.325Z" fill="#006838"/>
<path d="M33.2907 385.13H30.469V377.551H33.2441C36.2057 377.551 38.6543 378.554 40.5666 380.582C42.4788 382.588 43.4116 385.596 43.4116 389.584C43.4116 393.572 42.4555 396.767 40.5666 398.889C38.6543 400.988 36.2524 402.06 33.3607 402.06H20.6978C17.7362 402.06 15.2876 401.034 13.3753 398.959C11.4631 396.906 10.5303 393.828 10.5303 389.724C10.5303 385.923 11.4864 382.938 13.422 380.792C15.3575 378.647 17.7362 377.551 20.5812 377.551H23.8927V385.13H20.6279C18.2726 385.13 17.0832 386.669 17.0832 389.724C17.0832 391.356 17.433 392.546 18.156 393.315C18.8789 394.085 19.6951 394.458 20.6279 394.458H33.2907C34.2468 394.458 35.0864 394.085 35.8326 393.315C36.5788 392.546 36.9286 391.356 36.9286 389.724C36.9286 388.091 36.5788 386.879 35.8559 386.179C35.133 385.48 34.2935 385.13 33.2907 385.13Z" fill="#006838"/>
<path d="M0.338867 369.972V363.489C0.338867 362.463 0.572068 361.903 1.03847 361.833C1.50487 361.763 2.18116 361.88 3.06732 362.183C3.69696 362.3 4.23333 362.369 4.65309 362.369H11.276V355.84H17.8523V362.369H34.9692C35.6688 362.369 36.2052 362.206 36.5783 361.856C36.9514 361.53 37.138 360.9 37.138 360.014C37.138 359.478 37.0214 358.755 36.8115 357.892C36.5783 357.006 36.3451 356.4 36.0886 356.05H42.2684C43.0147 357.332 43.4344 358.965 43.5743 360.947C43.8542 366.964 41.289 369.972 35.8554 369.972H17.8523V375.102H11.276V369.972H0.338867Z" fill="#006838"/>
<path d="M42.6882 304.537V313.165L17.8523 317.153L42.6882 321.188V329.816L0.338867 336.416V329.023L28.7194 324.989H28.7661L0.338867 320.698V313.655L28.7661 309.341L0.338867 305.307V297.914L42.6649 304.537H42.6882Z" fill="#006838"/>
<path d="M42.6898 271.934V279.279C42.0835 279.606 41.5704 279.769 41.1507 279.816C42.6198 281.798 43.3661 284.456 43.3661 287.768C43.3661 290.38 42.4333 292.642 40.5677 294.554C38.7021 296.466 36.6499 297.399 34.4112 297.399H32.4989C30.8432 297.399 29.3507 296.933 28.0215 296.023C26.6922 295.114 25.5962 293.854 24.7333 292.245C23.8705 290.636 23.1942 288.817 22.6811 286.835C22.1681 284.83 21.795 282.661 21.5851 280.282H20.1859C19.5562 280.282 18.88 280.655 18.1804 281.378C17.4808 282.124 17.131 283.29 17.131 284.923C17.131 285.856 17.2476 286.649 17.4808 287.325C17.714 288.001 18.0171 288.468 18.3902 288.771C18.7634 289.051 19.0898 289.26 19.3697 289.377C19.6495 289.494 19.9294 289.54 20.1859 289.54H22.0049V297.119H19.9993C17.4108 297.119 15.1954 296.047 13.3298 293.878C11.4875 291.732 10.5547 288.701 10.5547 284.83C10.5547 280.958 11.4875 278.02 13.3298 275.898C15.1954 273.776 17.4108 272.703 19.9993 272.703H38.1191C40.1246 272.703 41.6637 272.447 42.7131 271.934H42.6898ZM34.9242 280.282H27.8815C28.3246 286.649 30.0503 289.82 33.012 289.82H33.5483C34.3878 289.82 35.1807 289.47 35.9736 288.747C36.7665 288.024 37.1396 286.765 37.1396 284.946C37.1396 283.99 36.9297 283.081 36.4867 282.218C36.0436 281.355 35.5305 280.725 34.9242 280.306V280.282Z" fill="#006838"/>
<path d="M11.2764 251.647V243.602L42.6886 252.766V261.115L11.2764 270.28V262.234L31.7514 256.964L11.2764 251.694V251.647Z" fill="#006838"/>
<path d="M20.2548 217.133H27.2042C29.303 217.133 30.3757 218.229 30.3757 220.444V234.016H33.1974C34.1769 234.016 35.063 233.573 35.8093 232.687C36.5555 231.801 36.9286 230.728 36.9286 229.446C36.9286 228.163 36.6255 227.02 36.0192 226.018C35.4128 225.015 34.6666 224.502 33.8037 224.502H32.8476V217.156H33.897C36.9053 217.156 39.2373 218.369 40.8931 220.794C42.5488 223.219 43.3883 226.111 43.3883 229.422C43.3883 232.734 42.4788 235.556 40.6599 237.958C38.8409 240.36 36.4156 241.549 33.4306 241.549H20.2548C17.1765 241.549 14.7979 240.36 13.0955 237.981C11.3931 235.602 10.5303 232.757 10.5303 229.422C10.5303 226.088 11.3698 223.126 13.0722 220.724C14.7745 218.322 17.1532 217.109 20.2548 217.109V217.133ZM24.2891 224.712H20.931C19.6484 224.712 18.6923 225.155 18.0627 226.064C17.433 226.95 17.1065 228.093 17.1065 229.469C17.1065 230.845 17.433 231.871 18.0627 232.734C18.6923 233.597 19.6718 234.04 20.931 234.04H24.2891V224.735V224.712Z" fill="#006838"/>
</g>
<defs>
<clipPath id="clip0_1199_614">
<rect width="581.44" height="515.468" fill="white" transform="translate(0.106445)"/>
</clipPath>
</defs>
</svg>
