<svg width="570" height="516" viewBox="0 0 570 516" fill="none" xmlns="http://www.w3.org/2000/svg">
<g clip-path="url(#clip0_1199_636)">
<path d="M317.113 0C381.243 0 432.408 18.283 470.629 54.8023C508.828 91.3449 527.95 140.061 527.95 200.903C527.95 261.745 508.688 310.974 470.14 347.19C431.591 383.406 379.704 401.502 314.454 401.502C286.75 401.502 261.215 398.121 237.871 391.335C214.528 384.572 192.467 374.288 171.665 360.506V515.444H0.0527344V0H317.113Z" fill="#006838"/>
<path d="M138.363 275.944C153.078 280.188 168.073 283.5 183.208 285.925C198.203 288.327 213.314 289.913 228.472 290.986C241.671 291.918 255.826 292.012 267.883 285.785C273.083 283.103 277.444 279.209 280.219 274.009C282.621 269.508 283.974 263.981 282.365 258.99C280.592 253.487 275.602 250.082 270.075 249.079C263.569 247.89 256.853 249.126 250.393 249.919C248.457 250.152 246.498 250.385 244.563 250.642L245.729 251.808C246.568 243.972 250.533 236.93 251.815 229.187C252.422 225.619 252.445 221.935 251.349 218.437C250.323 215.149 248.457 212.164 246.102 209.645C240.855 204.048 233.532 201.18 226.117 199.874C222.036 199.151 217.861 198.825 213.734 198.615C210.655 198.475 207.554 198.521 204.476 198.918C197.969 199.757 191.02 202.346 188.268 208.829C187.685 210.205 189.714 211.417 190.297 210.018C192.559 204.678 197.969 202.369 203.38 201.436C209.816 200.34 216.719 200.877 223.132 201.763C230.384 202.766 237.707 204.981 243.187 210.065C245.542 212.257 247.525 214.892 248.691 217.9C249.95 221.189 250.136 224.733 249.6 228.185C248.364 236.277 244.236 243.623 243.374 251.808C243.304 252.391 243.957 253.067 244.54 252.974C251.209 252.158 257.972 250.875 264.711 250.945C270.215 250.992 276.232 252.414 279.17 257.545C281.665 261.882 280.802 267.339 278.75 271.677C276.348 276.76 272.43 280.608 267.51 283.29C256.223 289.47 242.697 289.54 230.174 288.747C215.669 287.837 201.164 286.298 186.799 284.106C170.661 281.634 154.664 278.206 138.969 273.659C137.5 273.239 136.894 275.501 138.34 275.921L138.363 275.944Z" fill="white"/>
<path d="M138.995 273.66C117.913 266.711 110.241 241.665 111.314 221.54C112.55 198.103 123.487 175.879 138.202 157.969C153.593 139.243 173.229 124.248 194.333 112.472C218.166 99.1558 244.238 89.3847 271.08 84.3942C298.201 79.3571 326.488 79.4737 353.143 86.9361C375.857 93.3025 396.729 105.522 413.496 122.149C429.773 138.287 442.226 158.622 447.31 181.103C452.58 204.306 449.315 228.746 436.886 249.197C426.112 266.897 408.062 281.636 386.701 282.802C378.632 283.245 370.284 281.659 363.614 276.925C356.245 271.701 352.42 263.189 351.511 254.398C351.184 251.18 351.161 248.008 351.861 244.837C352.63 241.362 353.983 238.05 355.335 234.762C355.918 233.363 353.633 232.757 353.073 234.133C351.627 237.701 350.158 241.315 349.412 245.116C348.782 248.335 348.829 251.576 349.202 254.841C349.739 259.575 350.974 264.239 353.213 268.483C357.154 275.946 364.057 281.193 372.079 283.571C390.899 289.168 411.14 280.68 424.853 267.83C442.786 251.04 452.534 226.134 452.137 201.718C451.764 178.071 442.879 155.241 428.887 136.351C414.615 117.112 395.259 101.604 373.408 91.7867C348.363 80.5464 320.215 77.0484 293.001 79.1472C264.224 81.3859 236.123 89.6645 210.028 101.814C186.987 112.565 165.207 126.58 147.157 144.607C130.016 161.724 116.281 182.828 111.057 206.708C108.609 217.902 108.049 229.352 110.474 240.592C112.69 250.946 117.4 261.231 125.399 268.413C129.177 271.795 133.561 274.337 138.365 275.922C139.811 276.389 140.417 274.127 138.995 273.66Z" fill="white"/>
<path d="M385.931 223.104C381.897 226.439 382.27 232.759 385.045 236.77C388.45 241.69 394.723 243.392 400.296 244.489C401.765 244.768 402.418 242.506 400.926 242.227C396.145 241.294 390.525 240.011 387.353 235.977C384.858 232.805 384.229 227.558 387.587 224.783C388.753 223.827 387.074 222.171 385.931 223.127V223.104Z" fill="white"/>
<path d="M281.27 233.808C293.98 224.34 309.721 219.303 325.555 219.512C330.056 219.559 334.533 220.049 338.964 220.982C340.433 221.285 341.086 219.023 339.594 218.72C323.573 215.385 306.643 217.554 291.904 224.643C287.753 226.648 283.812 229.027 280.104 231.802C278.915 232.688 280.081 234.741 281.294 233.831L281.27 233.808Z" fill="white"/>
<path d="M105.343 190.125C94.7785 193.063 87.8758 202.485 83.0019 211.743C77.3817 222.447 73.324 234.06 71.4584 246.023C69.5928 257.987 69.8726 270.02 73.1608 281.54C76.0991 291.824 81.5094 301.152 89.0651 308.754C96.1544 315.867 104.993 321.417 114.671 324.192C124.069 326.897 135.169 327.201 144.171 322.91C148.485 320.858 152.426 317.266 153.242 312.346C154.128 307.052 151.283 301.992 147.389 298.61C142.888 294.692 137.081 293.083 131.414 291.614C125.818 290.168 120.454 288.559 115.51 285.481C106.858 280.071 100.142 271.536 96.9473 261.834C92.9129 249.591 95.5014 236.835 99.3959 224.895C100.422 221.77 101.518 218.692 102.637 215.614C103.15 214.191 100.888 213.562 100.375 214.984C96.0145 227.064 91.4904 239.797 92.703 252.879C93.6125 262.697 97.9267 271.979 104.503 279.278C107.814 282.962 111.756 286.134 116.07 288.536C120.944 291.264 126.214 292.687 131.578 294.086C137.035 295.509 142.678 297.141 146.759 301.269C150.35 304.907 152.472 310.317 149.767 315.097C147.365 319.318 142.398 321.557 137.874 322.653C133.35 323.749 128.313 324.052 123.509 323.563C113.808 322.583 104.526 318.409 96.8307 312.532C88.9718 306.539 82.5821 298.587 78.5011 289.585C73.7205 279.068 72.0881 267.221 72.7177 255.748C73.3473 244.041 76.309 232.498 80.8564 221.724C83.0252 216.57 85.5204 211.486 88.5987 206.776C91.3971 202.485 94.8018 198.404 99.1161 195.559C101.215 194.159 103.477 193.11 105.902 192.457C107.371 192.061 106.742 189.775 105.273 190.195L105.343 190.125Z" fill="white"/>
<path d="M380.799 170.075C367.483 178.96 357.618 192.742 353.537 208.226C353.048 210.092 352.628 211.981 352.325 213.87C351.975 216.039 351.649 218.324 352.418 220.446C353.467 223.361 356.126 225.017 359.111 225.46C362.329 225.95 365.734 225.367 368.765 224.271C372.683 222.871 376.461 220.959 380.076 218.907C388.588 214.126 396.307 207.946 402.859 200.694C403.862 199.575 402.207 197.896 401.204 199.038C395.793 205.031 389.59 210.255 382.781 214.569C379.423 216.692 375.901 218.604 372.287 220.26C369.255 221.659 366.13 222.941 362.772 223.221C360.23 223.431 357.012 223.198 355.356 220.959C354.19 219.397 354.214 217.345 354.47 215.502C354.727 213.66 355.123 211.748 355.566 209.905C357.339 202.746 360.37 195.913 364.451 189.78C369.069 182.807 375.062 176.768 382.011 172.127C383.271 171.287 382.081 169.258 380.822 170.098L380.799 170.075Z" fill="white"/>
<path d="M443.6 244.768C440.685 251.764 445.512 259.506 451.855 262.584C459.038 266.105 467.13 263.167 472.284 257.5C485.786 242.622 476.574 220.515 468.622 205.287C463.632 195.702 457.475 186.724 450.363 178.585C449.36 177.442 447.704 179.121 448.707 180.241C454.514 186.887 459.644 194.116 464.028 201.765C468.412 209.414 472.447 217.903 474.919 226.578C477.227 234.74 477.95 243.905 473.659 251.554C470.371 257.454 463.795 262.841 456.612 261.675C449.43 260.509 442.83 252.673 445.885 245.374C446.468 243.975 444.183 243.368 443.623 244.744L443.6 244.768Z" fill="white"/>
<path d="M178.102 503.876V495.924H182.603V466.983H191.511V495.924C193.587 495.924 195.499 495.854 197.248 495.69V466.96H206.157V494.291C207.906 493.871 209.468 493.382 210.821 492.799L212.546 500.588C207.579 502.78 200 503.876 189.832 503.876H178.079H178.102ZM179.432 463.742V455.953H209.375V463.742H179.432ZM214.832 454.344H222.457C223.647 454.344 224.276 454.624 224.37 455.16C224.463 455.696 224.323 456.489 223.95 457.515C223.81 458.262 223.717 458.868 223.717 459.358V474.726H229.453V483.074H223.717V506.674H214.808V454.344H214.832Z" fill="#006838"/>
<path d="M232.135 485.501H280.011V493.29H260.539V506.652H251.63V493.29H232.158V485.501H232.135ZM233.977 468.034C233.977 464.35 235.166 461.365 237.568 459.079C239.97 456.77 243.002 455.231 246.663 454.415C248.529 454.042 251.654 453.855 256.108 453.855C260.562 453.855 263.64 454.042 265.436 454.415C269.12 455.231 272.152 456.817 274.531 459.172C276.933 461.528 278.122 464.536 278.122 468.151C278.122 471.765 276.956 474.937 274.647 477.129C272.339 479.344 269.284 480.883 265.483 481.77C263.664 482.213 260.539 482.423 256.108 482.399C251.677 482.399 248.529 482.166 246.663 481.77C243.025 480.907 239.994 479.344 237.592 477.059C235.19 474.774 233.977 471.765 233.977 468.011V468.034ZM269.214 468.151C269.214 465.376 267.465 463.487 263.99 462.531C262.241 462.018 259.606 461.761 256.061 461.761C252.517 461.761 249.881 462.018 248.132 462.531C244.634 463.487 242.909 465.306 242.909 467.987C242.909 470.949 244.681 472.815 248.202 473.561C250.161 473.981 252.796 474.191 256.108 474.237C259.419 474.284 262.031 474.051 263.967 473.561C267.488 472.488 269.26 470.693 269.26 468.174L269.214 468.151Z" fill="#006838"/>
<path d="M284.466 486.012V478.224H287.591V464.978H296.336V478.224C297.035 478.177 297.922 478.13 298.948 478.06V464.978H307.693V476.778C309.069 476.451 310.188 476.101 311.097 475.728L312.776 483.307C310.398 484.193 307.343 484.87 303.588 485.336C299.834 485.803 296.452 486.036 293.467 486.036H284.512L284.466 486.012ZM285.235 463.252V455.463H310.724V463.252H285.235ZM333.718 489.021V501.544C333.718 503.946 333.391 505.671 332.715 506.674H323.97C324.53 505.531 324.81 503.806 324.81 501.497V496.81H290.809V489.021H333.718ZM309.278 473.443V465.654H314.339V454.344H323.247V486.129H314.339V473.443H309.278ZM324.81 454.344H332.435C333.625 454.344 334.254 454.624 334.348 455.16C334.441 455.696 334.301 456.489 333.928 457.515C333.788 458.262 333.695 458.868 333.695 459.358V486.129H324.786V454.344H324.81Z" fill="#006838"/>
<path d="M339.896 496.482H387.773V504.271H339.896V496.482ZM342.951 463.414V455.625H383.925V463.414H342.951ZM362.26 489.696H342.951V466.585H383.925V474.374H351.86V481.883H365.106C372.381 481.883 378.958 481.487 384.858 480.717V488.506C379.214 489.276 371.682 489.672 362.26 489.672V489.696Z" fill="#006838"/>
<path d="M414.382 492.123V484.334H427.021C431.709 484.334 436.513 483.938 441.503 483.168V490.957C438.285 491.447 435.323 491.75 432.665 491.913V506.675H423.757V492.147H414.405L414.382 492.123ZM440.664 464.792C440.804 467.101 440.804 469.386 440.664 471.695C440.43 474.89 439.148 477.525 436.792 479.6C434.437 481.676 431.429 482.725 427.744 482.725C424.06 482.725 421.051 481.676 418.696 479.6C416.341 477.525 415.058 474.89 414.825 471.695C414.685 469.386 414.685 467.101 414.825 464.792C415.058 461.597 416.341 458.962 418.696 456.887C421.051 454.811 424.06 453.762 427.744 453.762C431.429 453.762 434.437 454.788 436.792 456.84C439.148 458.892 440.43 461.551 440.664 464.769V464.792ZM423.687 466.075C423.617 466.494 423.57 467.217 423.57 468.243C423.57 469.27 423.617 470.016 423.687 470.412C423.92 471.905 424.316 473.024 424.923 473.817C425.506 474.587 426.462 474.983 427.768 474.983C429.074 474.983 430.006 474.587 430.613 473.817C431.196 473.047 431.615 471.905 431.849 470.412C431.919 470.016 431.965 469.27 431.965 468.243C431.965 467.217 431.919 466.471 431.849 466.075C431.615 464.582 431.219 463.463 430.613 462.67C430.03 461.9 429.074 461.504 427.768 461.504C426.462 461.504 425.529 461.9 424.923 462.67C424.34 463.44 423.92 464.582 423.687 466.075ZM436.093 500.868V493.079H443.322V454.345H452.23V506.675H443.322V500.892H436.093V500.868ZM453.909 454.345H461.535C462.724 454.345 463.354 454.625 463.447 455.161C463.541 455.697 463.401 456.49 463.028 457.516C462.888 458.263 462.794 458.869 462.794 459.359V506.675H453.886V454.345H453.909Z" fill="#006838"/>
<path d="M499.384 467.59C500.13 475.938 500.13 483.984 499.384 491.679C499.057 495.387 497.658 498.535 495.233 501.124C492.807 503.712 489.286 504.995 484.692 504.995C482.36 504.995 480.261 504.622 478.419 503.852C476.576 503.083 475.107 502.057 473.965 500.774C472.822 499.468 471.936 498.069 471.283 496.576C470.63 495.084 470.187 493.475 469.977 491.773C469.021 483.727 469.021 475.658 469.977 467.566C470.21 465.864 470.63 464.255 471.283 462.762C471.936 461.27 472.822 459.847 473.965 458.565C475.107 457.259 476.576 456.233 478.419 455.486C480.261 454.717 482.337 454.344 484.692 454.344C487.047 454.344 489.193 454.717 491.058 455.486C492.924 456.256 494.44 457.259 495.559 458.541C496.702 459.824 497.565 461.223 498.194 462.762C498.824 464.301 499.22 465.934 499.36 467.636L499.384 467.59ZM484.692 462.086C481.474 462.086 479.561 464.488 478.955 469.315C478.186 475.588 478.186 482.491 478.955 490.024C479.142 491.982 479.701 493.685 480.657 495.084C481.614 496.483 482.943 497.206 484.692 497.206C486.441 497.206 487.77 496.507 488.726 495.084C489.682 493.685 490.242 491.982 490.429 490.024C491.128 483.167 491.128 476.265 490.429 469.315C490.242 467.356 489.682 465.654 488.726 464.231C487.77 462.809 486.441 462.086 484.692 462.086ZM505.843 454.344H513.469C514.658 454.344 515.288 454.624 515.381 455.16C515.474 455.696 515.334 456.489 514.961 457.515C514.821 458.262 514.728 458.868 514.728 459.358V506.674H505.82V454.344H505.843Z" fill="#006838"/>
<path d="M521.468 496.482H569.344V504.271H521.468V496.482ZM566.266 488.623H524.453V455.625H532.078C533.268 455.625 533.897 455.905 533.991 456.441C534.084 456.978 533.944 457.77 533.571 458.797C533.431 459.543 533.338 460.149 533.338 460.639V464.976H557.334V455.625H564.96C566.149 455.625 566.779 455.905 566.872 456.441C566.965 456.978 566.825 457.77 566.452 458.797C566.312 459.543 566.219 460.149 566.219 460.639V488.646L566.266 488.623ZM533.361 480.834H557.357V472.765H533.361V480.834Z" fill="#006838"/>
</g>
<defs>
<clipPath id="clip0_1199_636">
<rect width="569.291" height="515.468" fill="white" transform="translate(0.0537109)"/>
</clipPath>
</defs>
</svg>
