<svg width="55" height="55" viewBox="0 0 55 55" fill="none" xmlns="http://www.w3.org/2000/svg">
<g clip-path="url(#clip0_1199_636)">
<path d="M30.6317 0C36.8274 0 41.7704 1.95078 45.4631 5.84736C49.1535 9.74643 51.0009 14.9444 51.0009 21.4362C51.0009 27.928 49.14 33.1806 45.4158 37.0449C41.6916 40.9091 36.6787 42.84 30.3748 42.84C27.6983 42.84 25.2312 42.4792 22.976 41.7551C20.7208 41.0335 18.5894 39.9362 16.5798 38.4657V54.9975H0V0H30.6317Z" fill="#006838"/>
<path d="M13.3623 29.4422C14.784 29.8951 16.2326 30.2484 17.6948 30.5072C19.1435 30.7635 20.6034 30.9327 22.0679 31.0472C23.3431 31.1467 24.7107 31.1566 25.8754 30.4923C26.3779 30.2061 26.7992 29.7906 27.0673 29.2357C27.2993 28.7555 27.43 28.1658 27.2746 27.6333C27.1033 27.0461 26.6212 26.6828 26.0872 26.5758C25.4586 26.4489 24.8098 26.5808 24.1857 26.6654C23.9987 26.6902 23.8095 26.7151 23.6225 26.7425L23.7351 26.8669C23.8162 26.0309 24.1992 25.2794 24.3231 24.4533C24.3817 24.0726 24.384 23.6795 24.2781 23.3062C24.1789 22.9554 23.9987 22.6369 23.7712 22.3682C23.2642 21.771 22.5568 21.465 21.8403 21.3256C21.4461 21.2485 21.0428 21.2136 20.644 21.1912C20.3466 21.1763 20.047 21.1813 19.7496 21.2236C19.121 21.3132 18.4496 21.5894 18.1837 22.2811C18.1274 22.4279 18.3234 22.5573 18.3797 22.408C18.5983 21.8382 19.121 21.5919 19.6437 21.4923C20.2655 21.3754 20.9324 21.4326 21.552 21.5272C22.2526 21.6342 22.9601 21.8705 23.4895 22.413C23.7171 22.6469 23.9086 22.928 24.0212 23.249C24.1429 23.5999 24.1609 23.9781 24.1091 24.3463C23.9897 25.2097 23.5909 25.9935 23.5076 26.8669C23.5008 26.9291 23.5639 27.0013 23.6202 26.9913C24.2646 26.9042 24.9179 26.7674 25.569 26.7749C26.1007 26.7798 26.682 26.9316 26.9659 27.479C27.207 27.9418 27.1236 28.5241 26.9253 28.9869C26.6933 29.5293 26.3148 29.9399 25.8394 30.226C24.749 30.8854 23.4422 30.8929 22.2324 30.8083C20.831 30.7112 19.4296 30.547 18.0418 30.3131C16.4827 30.0494 14.9372 29.6836 13.4209 29.1984C13.279 29.1536 13.2204 29.395 13.3601 29.4398L13.3623 29.4422Z" fill="white"/>
<path d="M13.4228 29.1988C11.3861 28.4573 10.6449 25.7849 10.7485 23.6375C10.8679 21.1369 11.9246 18.7656 13.3462 16.8546C14.8332 14.8566 16.7302 13.2566 18.7692 12.0001C21.0717 10.5793 23.5906 9.5367 26.1838 9.00422C28.804 8.46676 31.5369 8.4792 34.112 9.27543C36.3065 9.95472 38.3229 11.2586 39.9428 13.0327C41.5154 14.7545 42.7185 16.9243 43.2096 19.3229C43.7188 21.7987 43.4034 24.4064 42.2025 26.5886C41.1616 28.4772 39.4178 30.0497 37.3541 30.1741C36.5746 30.2214 35.768 30.0522 35.1236 29.5471C34.4117 28.9897 34.0422 28.0815 33.9543 27.1435C33.9228 26.8001 33.9205 26.4617 33.9881 26.1233C34.0625 25.7525 34.1931 25.3992 34.3238 25.0484C34.3801 24.8991 34.1594 24.8344 34.1053 24.9812C33.9656 25.3619 33.8237 25.7476 33.7516 26.1532C33.6907 26.4965 33.6952 26.8424 33.7313 27.1907C33.7831 27.6959 33.9025 28.1935 34.1188 28.6464C34.4996 29.4426 35.1664 30.0025 35.9415 30.2563C37.7596 30.8534 39.7152 29.9477 41.04 28.5767C42.7725 26.7852 43.7143 24.1277 43.676 21.5225C43.6399 18.9995 42.7815 16.5635 41.4298 14.548C40.0509 12.4952 38.1809 10.8405 36.0699 9.79299C33.6502 8.59366 30.9308 8.22042 28.3016 8.44436C25.5214 8.68323 22.8065 9.56656 20.2854 10.8629C18.0595 12.01 15.9552 13.5054 14.2114 15.4288C12.5554 17.2552 11.2284 19.5071 10.7237 22.055C10.4872 23.2494 10.4331 24.4711 10.6674 25.6704C10.8815 26.7752 11.3366 27.8725 12.1093 28.6389C12.4743 28.9997 12.8979 29.2709 13.362 29.4401C13.5017 29.4899 13.5603 29.2485 13.4228 29.1988Z" fill="white"/>
<path d="M37.2801 23.8055C36.8903 24.1613 36.9264 24.8357 37.1945 25.2636C37.5234 25.7887 38.1295 25.9703 38.6679 26.0872C38.8099 26.1171 38.873 25.8757 38.7288 25.8459C38.2669 25.7464 37.7239 25.6095 37.4175 25.179C37.1765 24.8406 37.1156 24.2808 37.4401 23.9847C37.5527 23.8827 37.3905 23.706 37.2801 23.808V23.8055Z" fill="white"/>
<path d="M27.1685 24.9452C28.3963 23.935 29.9171 23.3976 31.4469 23.4199C31.8817 23.4249 32.3143 23.4772 32.7424 23.5767C32.8843 23.6091 32.9474 23.3677 32.8032 23.3353C31.2554 22.9795 29.6197 23.2109 28.1958 23.9674C27.7948 24.1813 27.414 24.4352 27.0558 24.7313C26.9409 24.8258 27.0536 25.0448 27.1707 24.9477L27.1685 24.9452Z" fill="white"/>
<path d="M10.1722 20.2852C9.15156 20.5987 8.48468 21.6039 8.0138 22.5918C7.47083 23.7339 7.07881 24.973 6.89857 26.2495C6.71833 27.5259 6.74537 28.8099 7.06304 30.039C7.34692 31.1364 7.86961 32.1317 8.59958 32.9428C9.28449 33.7017 10.1384 34.2939 11.0734 34.59C11.9813 34.8787 13.0537 34.911 13.9234 34.4532C14.3402 34.2342 14.721 33.851 14.7998 33.326C14.8854 32.7612 14.6106 32.2212 14.2343 31.8604C13.7995 31.4424 13.2385 31.2707 12.691 31.114C12.1503 30.9597 11.6321 30.788 11.1545 30.4596C10.3186 29.8823 9.66975 28.9716 9.36109 27.9365C8.97132 26.6302 9.22141 25.2691 9.59766 23.9951C9.69679 23.6617 9.80268 23.3332 9.91082 23.0048C9.96039 22.853 9.74185 22.7858 9.69228 22.9376C9.27097 24.2265 8.83389 25.5851 8.95105 26.981C9.03891 28.0286 9.45572 29.0189 10.0911 29.7977C10.411 30.1908 10.7917 30.5292 11.2085 30.7855C11.6794 31.0766 12.1886 31.2284 12.7068 31.3777C13.234 31.5295 13.7792 31.7037 14.1735 32.1441C14.5204 32.5323 14.7255 33.1095 14.4641 33.6196C14.2321 34.07 13.7522 34.3089 13.3151 34.4258C12.878 34.5428 12.3914 34.5751 11.9272 34.5229C10.99 34.4183 10.0933 33.973 9.34983 33.3459C8.59057 32.7064 7.97325 31.8579 7.57898 30.8975C7.11711 29.7753 6.9594 28.5113 7.02023 27.2871C7.08107 26.038 7.3672 24.8063 7.80653 23.6567C8.01606 23.1068 8.25713 22.5644 8.55452 22.0618C8.82488 21.6039 9.15382 21.1685 9.57062 20.8649C9.77339 20.7156 9.99193 20.6037 10.2262 20.534C10.3682 20.4917 10.3073 20.2478 10.1654 20.2926L10.1722 20.2852Z" fill="white"/>
<path d="M36.7844 18.1477C35.498 19.0957 34.545 20.5663 34.1507 22.2185C34.1034 22.4175 34.0628 22.6191 34.0335 22.8206C33.9997 23.052 33.9682 23.2959 34.0426 23.5223C34.1439 23.8333 34.4008 24.01 34.6892 24.0573C35.0001 24.1095 35.329 24.0473 35.6219 23.9304C36.0004 23.7811 36.3654 23.577 36.7146 23.3581C37.5369 22.848 38.2827 22.1886 38.9158 21.4148C39.0127 21.2953 38.8527 21.1162 38.7558 21.2381C38.2331 21.8776 37.6338 22.4349 36.9759 22.8953C36.6515 23.1217 36.3113 23.3257 35.9621 23.5024C35.6692 23.6517 35.3673 23.7885 35.0429 23.8184C34.7973 23.8408 34.4864 23.8159 34.3264 23.577C34.2138 23.4103 34.216 23.1914 34.2408 22.9948C34.2656 22.7982 34.3039 22.5942 34.3467 22.3976C34.5179 21.6337 34.8108 20.9047 35.2051 20.2503C35.6512 19.5063 36.2302 18.8618 36.9016 18.3667C37.0233 18.2771 36.9084 18.0606 36.7867 18.1502L36.7844 18.1477Z" fill="white"/>
<path d="M42.8517 26.1141C42.57 26.8606 43.0364 27.6867 43.6492 28.0151C44.3431 28.3908 45.1249 28.0773 45.6228 27.4727C46.9273 25.8852 46.0374 23.5263 45.2691 21.9015C44.787 20.8788 44.1922 19.9209 43.505 19.0525C43.4081 18.9306 43.2482 19.1097 43.3451 19.2291C43.9061 19.9383 44.4017 20.7096 44.8253 21.5258C45.2488 22.3419 45.6386 23.2476 45.8774 24.1733C46.1005 25.0442 46.1703 26.022 45.7558 26.8382C45.4381 27.4677 44.8027 28.0425 44.1088 27.9181C43.4149 27.7937 42.7773 26.9576 43.0724 26.1788C43.1288 26.0295 42.908 25.9648 42.8539 26.1116L42.8517 26.1141Z" fill="white"/>
<path d="M17.2015 53.7655V52.917H17.6363V49.8291H18.4969V52.917C18.6975 52.917 18.8822 52.9095 19.0512 52.8921V49.8266H19.9118V52.7428C20.0808 52.698 20.2317 52.6458 20.3624 52.5836L20.5291 53.4146C20.0493 53.6485 19.317 53.7655 18.3347 53.7655H17.1992H17.2015ZM17.3299 49.4832V48.6522H20.2227V49.4832H17.3299ZM20.7499 48.4805H21.4867C21.6016 48.4805 21.6624 48.5103 21.6714 48.5676C21.6804 48.6248 21.6669 48.7094 21.6309 48.8189C21.6173 48.8985 21.6083 48.9632 21.6083 49.0154V50.6552H22.1626V51.546H21.6083V54.0641H20.7477V48.4805H20.7499Z" fill="#006838"/>
<path d="M22.4219 51.8062H27.0473V52.6373H25.166V54.0631H24.3054V52.6373H22.4241V51.8062H22.4219ZM22.5999 49.9425C22.5999 49.5494 22.7148 49.2309 22.9468 48.9871C23.1789 48.7407 23.4718 48.5765 23.8255 48.4894C24.0057 48.4496 24.3076 48.4297 24.738 48.4297C25.1683 48.4297 25.4657 48.4496 25.6391 48.4894C25.9951 48.5765 26.288 48.7457 26.5178 48.997C26.7499 49.2483 26.8648 49.5693 26.8648 49.955C26.8648 50.3407 26.7521 50.6791 26.5291 50.913C26.306 51.1493 26.0109 51.3136 25.6437 51.4081C25.4679 51.4554 25.166 51.4778 24.738 51.4753C24.3099 51.4753 24.0057 51.4504 23.8255 51.4081C23.474 51.316 23.1811 51.1493 22.9491 50.9055C22.717 50.6616 22.5999 50.3407 22.5999 49.94V49.9425ZM26.0041 49.955C26.0041 49.6589 25.8352 49.4573 25.4995 49.3553C25.3305 49.3006 25.0759 49.2732 24.7334 49.2732C24.391 49.2732 24.1364 49.3006 23.9674 49.3553C23.6295 49.4573 23.4628 49.6514 23.4628 49.9376C23.4628 50.2536 23.634 50.4526 23.9742 50.5323C24.1634 50.577 24.418 50.5994 24.738 50.6044C25.0579 50.6094 25.3102 50.5845 25.4972 50.5323C25.8374 50.4178 26.0086 50.2262 26.0086 49.9575L26.0041 49.955Z" fill="#006838"/>
<path d="M27.4775 51.8595V51.0284H27.7794V49.6151H28.6243V51.0284C28.6919 51.0234 28.7775 51.0185 28.8766 51.011V49.6151H29.7215V50.8742C29.8544 50.8393 29.9626 50.802 30.0505 50.7622L30.2127 51.5709C29.9829 51.6654 29.6877 51.7376 29.325 51.7873C28.9623 51.8371 28.6356 51.862 28.3472 51.862H27.482L27.4775 51.8595ZM27.5519 49.431V48.5999H30.0144V49.431H27.5519ZM32.2359 52.1805V53.5167C32.2359 53.773 32.2043 53.9571 32.139 54.0641H31.2941C31.3482 53.9422 31.3752 53.758 31.3752 53.5117V53.0115H28.0904V52.1805H32.2359ZM29.8747 50.5183V49.6873H30.3636V48.4805H31.2243V51.8719H30.3636V50.5183H29.8747ZM31.3752 48.4805H32.1119C32.2268 48.4805 32.2877 48.5103 32.2967 48.5676C32.3057 48.6248 32.2922 48.7094 32.2561 48.8189C32.2426 48.8985 32.2336 48.9632 32.2336 49.0154V51.8719H31.373V48.4805H31.3752Z" fill="#006838"/>
<path d="M32.833 52.9766H37.4584V53.8077H32.833V52.9766ZM33.1281 49.4483V48.6172H37.0867V49.4483H33.1281ZM34.9936 52.2525H33.1281V49.7867H37.0867V50.6177H33.9888V51.4189H35.2685C35.9714 51.4189 36.6068 51.3766 37.1768 51.2945V52.1256C36.6315 52.2077 35.9038 52.25 34.9936 52.25V52.2525Z" fill="#006838"/>
<path d="M40.0283 52.5111V51.68H41.2494C41.7023 51.68 42.1664 51.6377 42.6485 51.5556V52.3867C42.3376 52.439 42.0515 52.4713 41.7947 52.4887V54.0638H40.934V52.5136H40.0306L40.0283 52.5111ZM42.5674 49.5949C42.581 49.8412 42.581 50.0851 42.5674 50.3314C42.5449 50.6723 42.421 50.9535 42.1934 51.1749C41.9659 51.3964 41.6753 51.5084 41.3193 51.5084C40.9633 51.5084 40.6727 51.3964 40.4451 51.1749C40.2176 50.9535 40.0937 50.6723 40.0711 50.3314C40.0576 50.0851 40.0576 49.8412 40.0711 49.5949C40.0937 49.254 40.2176 48.9728 40.4451 48.7514C40.6727 48.5299 40.9633 48.418 41.3193 48.418C41.6753 48.418 41.9659 48.5274 42.1934 48.7464C42.421 48.9654 42.5449 49.249 42.5674 49.5924V49.5949ZM40.9273 49.7318C40.9205 49.7765 40.916 49.8537 40.916 49.9632C40.916 50.0726 40.9205 50.1523 40.9273 50.1946C40.9498 50.3538 40.9881 50.4733 41.0467 50.5579C41.103 50.64 41.1954 50.6823 41.3215 50.6823C41.4477 50.6823 41.5378 50.64 41.5964 50.5579C41.6527 50.4757 41.6933 50.3538 41.7158 50.1946C41.7226 50.1523 41.7271 50.0726 41.7271 49.9632C41.7271 49.8537 41.7226 49.7741 41.7158 49.7318C41.6933 49.5725 41.655 49.4531 41.5964 49.3685C41.5401 49.2864 41.4477 49.2441 41.3215 49.2441C41.1954 49.2441 41.1053 49.2864 41.0467 49.3685C40.9903 49.4506 40.9498 49.5725 40.9273 49.7318ZM42.1259 53.4442V52.6131H42.8243V48.4802H43.6849V54.0638H42.8243V53.4467H42.1259V53.4442ZM43.8471 48.4802H44.5839C44.6988 48.4802 44.7596 48.51 44.7686 48.5673C44.7776 48.6245 44.7641 48.7091 44.7281 48.8186C44.7145 48.8982 44.7055 48.9629 44.7055 49.0151V54.0638H43.8449V48.4802H43.8471Z" fill="#006838"/>
<path d="M48.2414 49.8938C48.3135 50.7846 48.3135 51.643 48.2414 52.4641C48.2098 52.8598 48.0746 53.1957 47.8403 53.4719C47.606 53.7481 47.2658 53.8849 46.822 53.8849C46.5967 53.8849 46.3939 53.8451 46.2159 53.763C46.0379 53.6809 45.896 53.5714 45.7856 53.4346C45.6752 53.2952 45.5896 53.1459 45.5265 52.9867C45.4634 52.8274 45.4206 52.6557 45.4003 52.4741C45.308 51.6156 45.308 50.7547 45.4003 49.8913C45.4229 49.7097 45.4634 49.538 45.5265 49.3787C45.5896 49.2195 45.6752 49.0677 45.7856 48.9308C45.896 48.7915 46.0379 48.682 46.2159 48.6024C46.3939 48.5203 46.5944 48.4805 46.822 48.4805C47.0495 48.4805 47.2568 48.5203 47.437 48.6024C47.6173 48.6845 47.7637 48.7915 47.8719 48.9284C47.9823 49.0652 48.0656 49.2145 48.1265 49.3787C48.1873 49.5429 48.2256 49.7171 48.2391 49.8988L48.2414 49.8938ZM46.822 49.3066C46.5111 49.3066 46.3263 49.5629 46.2677 50.0779C46.1934 50.7473 46.1934 51.4838 46.2677 52.2875C46.2858 52.4965 46.3398 52.6781 46.4322 52.8274C46.5246 52.9767 46.653 53.0539 46.822 53.0539C46.9909 53.0539 47.1194 52.9792 47.2117 52.8274C47.3041 52.6781 47.3582 52.4965 47.3762 52.2875C47.4438 51.5559 47.4438 50.8194 47.3762 50.0779C47.3582 49.8689 47.3041 49.6873 47.2117 49.5355C47.1194 49.3837 46.9909 49.3066 46.822 49.3066ZM48.8654 48.4805H49.6022C49.7171 48.4805 49.7779 48.5103 49.7869 48.5676C49.7959 48.6248 49.7824 48.7094 49.7464 48.8189C49.7328 48.8985 49.7238 48.9632 49.7238 49.0154V54.0641H48.8632V48.4805H48.8654Z" fill="#006838"/>
<path d="M50.374 52.9766H54.9994V53.8077H50.374V52.9766ZM54.702 52.138H50.6624V48.6172H51.3991C51.514 48.6172 51.5749 48.647 51.5839 48.7043C51.5929 48.7615 51.5794 48.8461 51.5433 48.9556C51.5298 49.0352 51.5208 49.0999 51.5208 49.1522V49.615H53.8391V48.6172H54.5759C54.6908 48.6172 54.7516 48.647 54.7606 48.7043C54.7696 48.7615 54.7561 48.8461 54.72 48.9556C54.7065 49.0352 54.6975 49.0999 54.6975 49.1522V52.1405L54.702 52.138ZM51.523 51.307H53.8414V50.446H51.523V51.307Z" fill="#006838"/>
</g>
<defs>
<clipPath id="clip0_1199_636">
<rect width="55" height="55" fill="white"/>
</clipPath>
</defs>
</svg>
