<svg width="50" height="30" viewBox="0 0 50 30" fill="none" xmlns="http://www.w3.org/2000/svg">
<g id="Group">
<path id="Vector" d="M38.618 18.1833C38.6292 18.1278 38.6427 18.0746 38.6629 18.0237C38.6696 18.0104 38.6809 17.986 38.6831 17.9815C38.6943 17.9638 38.7056 17.9461 38.7168 17.9283C38.719 17.9261 38.7415 17.8929 38.7505 17.8862C38.7774 17.8574 38.8088 17.8308 38.838 17.8064C38.9795 17.6911 38.957 17.4539 38.838 17.3364C38.6988 17.199 38.5035 17.2212 38.3621 17.3364C37.8098 17.7865 37.8412 18.6577 38.2251 19.203C38.6719 19.8392 39.4599 20.0742 40.1918 20.2139C40.3692 20.2471 40.5555 20.1651 40.6071 19.9811C40.652 19.8193 40.551 19.6065 40.3714 19.571C40.0638 19.5112 39.754 19.4424 39.4621 19.3272C39.4487 19.3227 39.4352 19.3161 39.3926 19.2961C39.3589 19.2806 39.3274 19.2651 39.296 19.2474C39.2332 19.2141 39.1703 19.1786 39.1097 19.1387C39.0895 19.1254 39.0266 19.0811 39.0266 19.0811C39.0423 19.0922 39.0356 19.0855 39.0042 19.0634C38.9907 19.0523 38.9772 19.039 38.9637 19.0279C38.9144 18.9835 38.865 18.9348 38.8223 18.8816C38.8133 18.8705 38.7931 18.8439 38.7931 18.8395C38.7752 18.8151 38.7594 18.7885 38.746 18.7619C38.7303 18.7353 38.7168 18.7064 38.7033 18.6798C38.7011 18.6732 38.6988 18.671 38.6966 18.6665C38.6921 18.6555 38.6876 18.6422 38.6831 18.6311C38.6629 18.5668 38.6427 18.5047 38.6292 18.4404C38.627 18.4338 38.6225 18.3806 38.6225 18.3828C38.6203 18.3628 38.618 18.3407 38.618 18.3185C38.618 18.2897 38.618 18.2586 38.6203 18.2298C38.6158 18.2143 38.6158 18.1988 38.618 18.1833Z" fill="#1E1E1E"/>
<path id="Vector_2" d="M32.922 16.7578C30.3717 16.2413 27.6484 16.8088 25.5515 18.3406C25.2058 18.5933 25.5425 19.1697 25.8905 18.9148C27.8415 17.4916 30.3604 16.9174 32.7424 17.4007C33.1645 17.4849 33.3464 16.8443 32.922 16.7578Z" fill="#1E1E1E"/>
<path id="Vector_3" d="M6.10499 24.9468C4.86348 24.3017 3.91157 23.1423 3.53665 21.8056C3.04722 20.0543 3.70054 18.2653 4.29997 16.627C4.44814 16.2236 3.79707 16.0506 3.65114 16.4497C3.12805 17.8795 2.59148 19.3803 2.70598 20.9255C2.79353 22.1093 3.27622 23.2243 4.04178 24.1354C4.83205 25.0776 5.88947 25.6961 7.07935 26.0131C7.74837 26.1927 8.48475 26.3102 9.06173 26.7181C9.53095 27.0484 9.96649 27.6514 9.73301 28.241C9.53544 28.7354 8.97867 29.0058 8.49373 29.1455C7.93696 29.3051 7.34651 29.3428 6.77177 29.2985C5.60883 29.2076 4.49304 28.7221 3.56583 28.0349C1.46446 26.4786 0.550721 23.967 0.676444 21.4287C0.752776 19.8791 1.18383 18.3429 1.84836 16.9396C2.41412 15.7447 3.19091 14.3747 4.56488 13.9868C4.98022 13.8693 4.8051 13.2286 4.38528 13.3461C3.0809 13.7119 2.21206 14.8137 1.59692 15.9465C0.89197 17.2455 0.380096 18.6643 0.144365 20.1208C-0.300156 22.8475 0.249883 25.7294 2.24125 27.76C3.92953 29.4825 6.76504 30.6374 9.13133 29.6199C9.67912 29.3849 10.1798 28.9903 10.3841 28.4162C10.6018 27.7999 10.3818 27.1459 9.97772 26.6582C9.0101 25.4944 7.36223 25.5986 6.10499 24.9468Z" fill="#1E1E1E"/>
<path id="Vector_4" d="M36.0651 13.5634C36.6061 12.7631 37.3088 12.0714 38.1171 11.5372C38.4763 11.3 38.1395 10.7236 37.778 10.963C36.1055 12.067 34.8662 13.7651 34.3633 15.6915C34.2421 16.1571 34.0804 16.7268 34.2421 17.199C34.3768 17.5936 34.736 17.8485 35.1424 17.9261C36.0673 18.099 37.008 17.6091 37.7915 17.1835C38.8759 16.596 39.857 15.8268 40.6899 14.9245C40.9817 14.6097 40.5058 14.1375 40.2139 14.4545C39.5763 15.144 38.8579 15.7514 38.0587 16.2546C37.6613 16.5051 37.2482 16.729 36.8217 16.9241C36.4782 17.0815 36.1212 17.2389 35.7418 17.2832C35.4836 17.312 35.0862 17.3231 34.9246 17.0748C34.7158 16.7556 34.9358 16.1615 35.0256 15.8268C35.2389 15.022 35.5936 14.2595 36.0651 13.5634Z" fill="#1E1E1E"/>
<path id="Vector_5" d="M48.7606 15.3568C48.1365 14.153 47.3552 13.0335 46.4572 12.0138C46.41 11.9606 46.3584 11.9318 46.3068 11.9163C45.842 10.1805 45.0203 8.53559 43.945 7.08577C42.1983 4.73371 39.823 2.83167 37.1312 1.63014C34.069 0.262353 30.6318 -0.178797 27.2979 0.0650552C23.7709 0.322208 20.327 1.31313 17.1233 2.77403C14.2945 4.06423 11.6184 5.75567 9.40026 7.93039C7.28317 10.0053 5.57693 12.5791 4.93709 15.4854C4.37582 18.0281 4.64972 21.1849 6.73762 23.0293C7.22031 23.4549 7.77933 23.7719 8.39223 23.9736C12.0225 25.0045 15.7785 25.5498 19.5434 25.7892C21.1823 25.8934 22.9402 25.8668 24.4107 25.0532C25.5422 24.4281 26.5682 22.9982 26.0968 21.6659C25.4816 19.9257 23.259 20.3003 21.7368 20.5154C21.9142 19.6996 22.3093 18.937 22.4261 18.1057C22.5541 17.1901 22.2644 16.3256 21.6021 15.6694C20.9309 15.0043 20.0216 14.6563 19.0967 14.5011C18.2144 14.3548 17.2804 14.2794 16.3914 14.3991C15.5585 14.5122 14.6941 14.8602 14.3349 15.6671C14.162 16.0551 14.7413 16.3943 14.9164 16.0019C15.1858 15.3967 15.7897 15.1595 16.4161 15.062C17.1659 14.9422 17.9764 15.0065 18.724 15.1107C19.5569 15.226 20.4078 15.4743 21.0364 16.0507C21.6426 16.6071 21.894 17.3409 21.7413 18.1478C21.564 19.0877 21.1082 19.9434 20.9982 20.9011C20.9803 21.0651 21.1688 21.2536 21.335 21.2336C22.1387 21.1361 22.9559 20.9853 23.7686 20.9898C24.3972 20.992 25.1246 21.1472 25.4165 21.7657C25.6477 22.2556 25.5041 22.8475 25.2571 23.3041C24.9361 23.8983 24.4354 24.3084 23.8292 24.601C22.4598 25.2594 20.8411 25.2128 19.3593 25.1087C17.6576 24.9889 15.9558 24.8182 14.2675 24.5611C12.3458 24.2685 10.442 23.8606 8.57183 23.3308C6.08431 22.5172 5.21547 19.5666 5.35691 17.2322C5.52529 14.4678 6.85212 11.8475 8.62347 9.7482C10.4779 7.54909 12.8262 5.79114 15.3497 4.40562C18.2188 2.82945 21.3574 1.67448 24.5881 1.08258C27.8389 0.486254 31.2312 0.499555 34.4304 1.37521C37.1604 2.12228 39.6681 3.56101 41.6864 5.52512C43.6374 7.42052 45.1281 9.81027 45.75 12.4572C46.3876 15.1706 46.0127 18.0325 44.5534 20.4333C43.2939 22.5061 41.1678 24.2596 38.6421 24.417C37.697 24.4769 36.7226 24.3106 35.9279 23.7741C35.0725 23.1955 34.619 22.2201 34.509 21.2225C34.4708 20.8678 34.4596 20.5154 34.5359 20.1651C34.628 19.735 34.7986 19.3271 34.9647 18.9215C35.1286 18.5247 34.4776 18.354 34.3159 18.7441C33.9791 19.5577 33.7389 20.3358 33.8355 21.2225C33.9006 21.8277 34.051 22.4174 34.3339 22.9583C34.8233 23.8983 35.6989 24.5655 36.7136 24.8737C39.0283 25.5786 41.5405 24.5833 43.2602 23.0448C44.028 22.3576 44.6768 21.5484 45.1999 20.6639C45.2359 21.3511 45.7163 22.0007 46.3315 22.3265C47.2452 22.8098 48.3049 22.5194 49.0143 21.8233C50.8395 20.0343 49.7529 17.2655 48.7606 15.3568ZM47.2115 21.9053C46.3921 21.8455 45.6355 20.9876 45.961 20.1851C46.0553 19.9523 45.869 19.7971 45.6669 19.7882C46.3719 18.3007 46.7445 16.6536 46.7333 15.022C46.7288 14.4124 46.6749 13.8072 46.5807 13.2087C47.6493 14.5654 48.5361 16.1083 49.0502 17.7399C49.3398 18.6532 49.5015 19.7129 49.0659 20.6085C48.7337 21.2935 48.0422 21.963 47.2115 21.9053Z" fill="#1E1E1E"/>
</g>
</svg>
