<svg width="44" height="27" viewBox="0 0 44 27" fill="none" xmlns="http://www.w3.org/2000/svg">
<g id="Component 4">
<path id="Vector" d="M33.4314 15.94C33.4411 15.8914 33.4528 15.8448 33.4703 15.8001C33.4761 15.7884 33.4858 15.7671 33.4878 15.7632C33.4975 15.7476 33.5072 15.7321 33.5169 15.7165C33.5169 15.7165 33.5383 15.6854 33.5461 15.6796C33.5694 15.6543 33.5966 15.631 33.6219 15.6096C33.7443 15.5086 33.7249 15.3006 33.6219 15.1976C33.5014 15.0771 33.3323 15.0966 33.2099 15.1976C32.7318 15.5921 32.759 16.3559 33.0913 16.834C33.478 17.3918 34.1602 17.5978 34.7937 17.7202C34.9473 17.7494 35.1086 17.6774 35.1533 17.5161C35.1922 17.3743 35.1047 17.1877 34.9492 17.1566C34.683 17.1041 34.4148 17.0439 34.1621 16.9428C34.1505 16.9389 34.1388 16.9331 34.1019 16.9156C34.0727 16.902 34.0455 16.8884 34.0183 16.8729C33.9639 16.8437 33.9095 16.8126 33.857 16.7776C33.8395 16.766 33.7851 16.7271 33.7851 16.7271C33.7987 16.7368 33.7929 16.731 33.7657 16.7116C33.754 16.7018 33.7424 16.6902 33.7307 16.6805C33.6879 16.6416 33.6452 16.5988 33.6083 16.5522C33.6005 16.5425 33.583 16.5192 33.583 16.5153C33.5674 16.4939 33.5538 16.4706 33.5422 16.4473C33.5286 16.4239 33.5169 16.3987 33.5053 16.3753C33.5033 16.3695 33.5014 16.3676 33.4994 16.3637C33.4955 16.354 33.4916 16.3423 33.4878 16.3326C33.4703 16.2762 33.4528 16.2218 33.4411 16.1655C33.4411 16.1596 33.4353 16.113 33.4353 16.1149C33.4353 16.0974 33.4314 16.078 33.4314 16.0586C33.4314 16.0333 33.4314 16.0061 33.4314 15.9808C33.4314 15.9672 33.4314 15.9536 33.4353 15.942L33.4314 15.94Z" fill="#006838"/>
<path id="Vector_2" d="M28.498 14.6904C26.2903 14.2376 23.9329 14.7351 22.1177 16.078C21.8184 16.2996 22.11 16.8048 22.4112 16.5814C24.1 15.3337 26.2806 14.8303 28.3425 15.254C28.7079 15.3298 28.8653 14.7662 28.498 14.6923V14.6904Z" fill="#006838"/>
<path id="Vector_3" d="M5.28576 21.8694C4.21104 21.3039 3.38703 20.2875 3.06247 19.1156C2.6388 17.5803 3.20434 16.0119 3.72324 14.5757C3.85151 14.222 3.28791 14.0704 3.16159 14.4203C2.70877 15.6738 2.24429 16.9895 2.3434 18.344C2.4192 19.3818 2.83703 20.3594 3.49974 21.1581C4.18383 21.9841 5.09919 22.5263 6.12921 22.8042C6.70835 22.9616 7.3458 23.0646 7.84526 23.4222C8.25144 23.7118 8.62846 24.2404 8.42635 24.7574C8.25532 25.1908 7.77335 25.4279 7.35357 25.5503C6.8716 25.6902 6.36048 25.7233 5.86296 25.6844C4.85626 25.6047 3.89037 25.1791 3.08774 24.5766C1.26868 23.2123 0.477708 21.0104 0.58654 18.7852C0.652616 17.4267 1.02576 16.08 1.60101 14.8498C2.09076 13.8022 2.76318 12.6012 3.95256 12.2611C4.3121 12.1581 4.16051 11.5965 3.79709 11.6995C2.66796 12.0201 1.91585 12.986 1.38335 13.9791C0.773109 15.118 0.330007 16.3617 0.125946 17.6386C-0.258853 20.029 0.217288 22.5555 1.94111 24.3357C3.40257 25.8457 5.85713 26.8582 7.90551 25.9662C8.3797 25.7602 8.81309 25.4143 8.98994 24.9109C9.17845 24.3706 8.98994 23.7973 8.63818 23.3698C7.8025 22.3495 6.37797 22.4427 5.2877 21.8694H5.28576Z" fill="#006838"/>
<path id="Vector_4" d="M31.2209 11.8899C31.6893 11.1883 32.2976 10.582 32.9972 10.1136C33.3082 9.90567 33.0167 9.40037 32.7038 9.61026C31.2559 10.5781 30.1831 12.0668 29.7478 13.7556C29.6429 14.1637 29.5029 14.6632 29.6429 15.0771C29.7595 15.4231 30.0704 15.6466 30.4222 15.7146C31.2229 15.8662 32.0372 15.4367 32.7154 15.0635C33.6541 14.5485 34.5034 13.8742 35.2244 13.0832C35.477 12.8072 35.065 12.3933 34.8124 12.6712C34.2605 13.2756 33.6386 13.8081 32.9467 14.2492C32.6027 14.4669 32.2451 14.6651 31.8759 14.8362C31.5785 14.9741 31.2695 15.1121 30.9411 15.151C30.7176 15.1763 30.3736 15.186 30.2337 14.9683C30.0529 14.6885 30.2434 14.1676 30.3211 13.8742C30.5077 13.1648 30.8147 12.4963 31.2209 11.888V11.8899Z" fill="#006838"/>
<path id="Vector_5" d="M42.2121 13.4602C41.6718 12.4049 40.9955 11.4235 40.2181 10.5295C40.1773 10.4829 40.1326 10.4576 40.0879 10.444C39.6856 8.92229 38.9743 7.48026 38.0434 6.20926C36.5314 4.14727 34.4753 2.47981 32.1451 1.42647C29.4943 0.229314 26.5189 -0.157429 23.6309 0.0563483C20.5778 0.281786 17.5966 1.1505 14.8233 2.43122C12.3746 3.5623 10.058 5.04514 8.13788 6.95165C6.30522 8.7707 4.82821 11.027 4.27433 13.5749C3.78848 15.804 4.02557 18.5714 5.83297 20.1884C6.2508 20.5615 6.73472 20.8394 7.26528 21.0163C10.4078 21.92 13.6592 22.398 16.9183 22.6079C18.337 22.6993 19.8587 22.676 21.1317 21.9627C22.1112 21.4147 22.9993 20.1612 22.5912 18.9932C22.0587 17.4676 20.1347 17.796 18.817 17.9845C18.9706 17.2693 19.3126 16.6008 19.4137 15.872C19.5244 15.0694 19.2737 14.3114 18.7004 13.7362C18.1193 13.1531 17.3323 12.848 16.5316 12.712C15.7678 12.5837 14.9593 12.5176 14.1897 12.6226C13.4687 12.7217 12.7205 13.0268 12.4095 13.7342C12.2599 14.0743 12.7613 14.3717 12.9129 14.0277C13.1461 13.4971 13.6689 13.2892 14.2111 13.2037C14.8602 13.0987 15.5618 13.1551 16.209 13.2464C16.93 13.3475 17.6665 13.5651 18.2107 14.0704C18.7354 14.5582 18.9531 15.2015 18.8209 15.9089C18.6674 16.7329 18.2729 17.4831 18.1776 18.3227C18.1621 18.4665 18.3253 18.6317 18.4692 18.6142C19.1649 18.5287 19.8723 18.3965 20.5758 18.4004C21.12 18.4023 21.7497 18.5384 22.0023 19.0806C22.2025 19.5101 22.0781 20.029 21.8643 20.4293C21.5864 20.9502 21.153 21.3097 20.6283 21.5663C19.4428 22.1435 18.0416 22.1026 16.7589 22.0113C15.2858 21.9064 13.8127 21.7567 12.3512 21.5313C10.6877 21.2747 9.03963 20.9171 7.42075 20.4527C5.26743 19.7394 4.51532 17.1527 4.63776 15.1063C4.78351 12.6828 5.93208 10.3857 7.46545 8.54526C9.07072 6.61738 11.1036 5.07623 13.288 3.86159C15.7717 2.47981 18.4886 1.46728 21.2852 0.948384C24.0993 0.4256 27.0358 0.437261 29.8052 1.20492C32.1684 1.85985 34.3392 3.12114 36.0864 4.84302C37.7752 6.50466 39.0657 8.59968 39.604 10.9201C40.1559 13.2989 39.8314 15.8079 38.5681 17.9126C37.4779 19.7297 35.6374 21.267 33.4511 21.405C32.6329 21.4574 31.7894 21.3117 31.1015 20.8414C30.361 20.3341 29.9685 19.479 29.8732 18.6045C29.8402 18.2935 29.8305 17.9845 29.8965 17.6774C29.9762 17.3004 30.1239 16.9428 30.2677 16.5872C30.4096 16.2393 29.846 16.0897 29.7061 16.4317C29.4146 17.1449 29.2066 17.8271 29.2902 18.6045C29.3466 19.135 29.4768 19.652 29.7216 20.1262C30.1453 20.9502 30.9032 21.5352 31.7817 21.8053C33.7854 22.4233 35.9601 21.5507 37.4487 20.202C38.1134 19.5995 38.675 18.8901 39.1278 18.1147C39.1589 18.7172 39.5748 19.2866 40.1073 19.5723C40.8983 19.996 41.8156 19.7414 42.4297 19.1311C44.0059 17.5686 43.0652 15.1413 42.2062 13.466L42.2121 13.4602ZM40.8711 19.2011C40.1618 19.1486 39.5068 18.3965 39.7886 17.693C39.8702 17.4889 39.7089 17.3529 39.534 17.3451C40.1443 16.0411 40.4669 14.5971 40.4572 13.1667C40.4533 12.6323 40.4066 12.1017 40.325 11.577C41.2501 12.7664 42.0177 14.119 42.4628 15.5494C42.7135 16.3501 42.8534 17.279 42.4764 18.0642C42.1888 18.6667 41.5882 19.2536 40.8692 19.2011H40.8711Z" fill="#006838"/>
</g>
</svg>
