<svg xmlns="http://www.w3.org/2000/svg" width="489" height="488" viewBox="0 0 489 488" fill="none">
<path d="M406.942 488C385.468 488 357.384 477.786 325.894 466.328C303.146 458.053 277.366 448.678 250.942 442.068C220.717 434.507 194.094 431.678 169.552 433.417C130.354 436.191 97.2461 433.867 71.1511 426.506C48.8661 420.22 31.4572 410.215 19.4155 396.772C-3.43498 371.264 -0.79769 340.385 1.39466 328.292C14.0343 258.629 107.007 105.141 159.304 67.61C171.091 59.1538 181.339 50.0853 191.253 41.3182C224.764 11.6774 253.709 -13.9186 317.927 8.56486C369.885 26.7576 393.718 83.0613 414.752 132.736C427.081 161.853 438.724 189.356 454.45 204.784C461.375 211.579 467.6 222.517 472.948 237.305C478.024 251.332 482.098 268.505 484.735 286.957C490.395 326.58 489.157 368.885 481.342 403.025C468.462 459.301 442.209 479.052 422.455 485.718C417.783 487.295 412.592 488 406.951 488H406.942ZM183.739 430.138C204.546 430.138 226.896 433.185 251.614 439.369C278.182 446.011 304.036 455.418 326.845 463.712C366.121 477.999 400.04 490.333 421.56 483.078C440.643 476.64 466.033 457.422 478.626 402.403C486.367 368.583 487.59 326.645 481.977 287.351C476.605 249.732 465.588 219.609 452.504 206.774C436.378 190.956 424.629 163.203 412.188 133.822C391.382 84.6802 367.799 28.9795 317.004 11.195C288.249 1.12449 265.097 0.0900772 244.138 7.92937C225.195 15.0126 209.603 28.8079 193.093 43.4056C183.128 52.219 172.824 61.3293 160.926 69.8737C148.643 78.6871 133.227 94.7553 116.342 116.334C100.472 136.619 83.6609 161.269 67.7212 187.621C34.2567 242.946 9.89058 297.041 4.1293 328.793C2.00648 340.482 -0.547395 370.327 21.4827 394.921C33.1675 407.965 50.1315 417.692 71.902 423.834C97.6864 431.107 130.47 433.399 169.352 430.648C174.071 430.314 178.863 430.147 183.739 430.147V430.138Z" fill="#AC9E8D"/>
</svg>
