<svg xmlns="http://www.w3.org/2000/svg" width="555" height="477" viewBox="0 0 555 477" fill="none">
<path d="M59.649 476.229C37.1819 476.229 19.6672 469.613 9.69159 451.159C2.86434 438.529 -0.124788 427.274 0.56059 416.751C1.19733 406.988 5.01333 397.853 12.2341 388.823C25.7648 371.897 50.3013 356.734 78.7114 339.184C115.284 316.588 160.802 288.465 200.97 245.388C222.99 221.774 240.996 196.473 256.016 168.043C273.08 135.742 286.005 99.3536 294.42 59.8852C299.049 38.1794 312.147 21.3303 332.292 11.1512C361.507 -3.60418 401.604 -2.23852 436.939 14.7101C436.956 14.7191 436.978 14.7282 436.996 14.7417C437.222 14.8638 459.64 27.1321 481.298 49.1635C494.037 62.1236 504.044 75.8887 511.03 90.0698C519.79 107.846 523.809 126.332 522.982 145.008C521.191 185.313 531.941 220.906 541.421 252.307C550.835 283.477 558.962 310.402 551.662 332.799C546.581 348.387 535.248 367.958 521.351 385.16C508.917 400.544 488.09 421.897 459.485 436.245C442.134 444.95 423.912 450.069 405.327 451.467C384.355 453.04 362.67 449.879 340.871 442.065C284.493 421.856 215.446 440.763 154.532 457.44C118.91 467.19 85.8968 476.225 59.649 476.229ZM378.124 3.66726C361.963 3.66726 346.584 6.95026 333.464 13.5796C314.066 23.3788 301.459 39.5858 297.011 60.455C288.539 100.172 275.53 136.801 258.347 169.328C243.215 197.97 225.073 223.461 202.889 247.256C162.478 290.595 116.792 318.822 80.0866 341.504C51.8888 358.928 27.5335 373.972 14.2947 390.541C0.127253 408.263 -0.571387 426.555 12.0175 449.848C21.4182 467.239 38.473 474.719 65.698 473.376C90.5176 472.155 121.28 463.735 153.846 454.817C215.133 438.036 284.599 419.016 341.751 439.501C382.471 454.094 421.688 452.181 458.318 433.808C486.498 419.672 507.042 398.608 519.308 383.428C533.011 366.47 544.167 347.225 549.15 331.94C556.181 310.365 548.169 283.83 538.892 253.103C529.345 221.489 518.525 185.657 520.338 144.877C521.147 126.685 517.225 108.664 508.687 91.3179C501.833 77.3991 492.008 63.8782 479.485 51.126C458.437 29.6961 436.669 17.6268 435.784 17.1429C417.098 8.1893 397.076 3.66726 378.124 3.66726Z" fill="#A97D5E"/>
</svg>