<svg width="526" height="319" viewBox="0 0 526 319" fill="none" xmlns="http://www.w3.org/2000/svg">
<g clip-path="url(#clip0_821_1317)">
<path d="M87.5439 253.932C106.363 259.366 125.509 263.61 144.865 266.712C164.08 269.79 183.459 271.842 202.885 273.241C219.885 274.477 238.122 274.687 253.723 266.805C260.486 263.4 266.153 258.48 269.837 251.81C273.079 245.98 274.898 238.774 272.845 232.221C270.583 224.992 264.054 220.561 256.825 219.302C248.499 217.833 239.941 219.395 231.662 220.421C229.167 220.724 226.648 221.028 224.153 221.354L225.669 222.87C226.718 212.889 231.732 203.887 233.458 194.046C234.274 189.382 234.321 184.602 232.945 180.031C231.639 175.74 229.214 171.869 226.159 168.627C219.396 161.445 209.998 157.737 200.437 156.034C195.143 155.102 189.733 154.659 184.369 154.425C180.405 154.239 176.417 154.309 172.476 154.845C163.871 155.988 155.172 159.439 151.604 167.928C151.278 168.697 151.954 169.583 152.654 169.793C153.516 170.05 154.193 169.49 154.519 168.744C157.318 162.074 164.5 159.229 171.17 158.087C174.924 157.434 178.749 157.294 182.55 157.387C187.307 157.504 192.088 157.853 196.775 158.506C206.01 159.789 215.338 162.634 222.334 169.094C225.366 171.892 227.954 175.297 229.447 179.168C231.009 183.249 231.336 187.633 230.729 191.947C229.283 202.558 223.757 212.143 222.637 222.847C222.567 223.593 223.407 224.456 224.153 224.362C229.027 223.756 233.901 223.173 238.775 222.567C242.623 222.1 246.494 221.704 250.388 221.75C257.314 221.844 264.87 223.686 268.625 230.099C271.796 235.486 270.933 242.296 268.485 247.776C265.616 254.212 260.812 259.296 254.749 262.817C240.221 271.212 222.614 271.446 206.337 270.443C187.634 269.3 168.908 267.318 150.392 264.52C131.829 261.698 113.453 257.92 95.3328 252.976C93.0008 252.346 90.6921 251.694 88.3601 251.017C86.4944 250.481 85.6782 253.396 87.5439 253.932Z" fill="#006838"/>
<path d="M88.3605 251.018C61.2392 242.086 51.3748 209.858 52.7506 183.973C54.3597 153.82 68.4218 125.206 87.3344 102.189C107.133 78.0995 132.412 58.7904 159.533 43.6557C190.199 26.5387 223.734 13.9692 258.294 7.53281C293.181 1.04982 329.584 1.18974 363.888 10.8209C393.131 19.0063 419.972 34.7474 441.544 56.1086C462.508 76.8635 478.506 103.052 485.059 131.969C491.612 160.886 487.624 193.277 471.65 219.559C457.798 242.343 434.571 261.302 407.076 262.795C396.699 263.354 385.948 261.326 377.367 255.239C367.899 248.523 362.978 237.562 361.789 226.252C361.346 222.124 361.346 218.043 362.255 213.962C363.258 209.485 364.984 205.241 366.709 200.996C367.456 199.201 364.517 198.408 363.794 200.18C361.929 204.774 360.04 209.415 359.084 214.312C358.291 218.463 358.337 222.638 358.827 226.812C359.527 232.922 361.112 238.915 364.004 244.372C369.065 253.956 377.95 260.719 388.28 263.774C412.487 270.957 438.535 260.043 456.189 243.509C479.275 221.891 491.798 189.873 491.309 158.461C490.842 128.051 479.392 98.6678 461.389 74.3682C443.036 49.6023 418.13 29.6636 390.006 17.0241C357.778 2.54231 321.562 -1.95848 286.535 0.746657C249.526 3.61503 213.356 14.2723 179.775 29.9201C150.112 43.7489 122.081 61.7987 98.8778 84.9789C76.8403 106.993 59.1404 134.161 52.4242 164.874C49.2759 179.262 48.5763 194.024 51.6779 208.482C54.5463 221.798 60.6095 235.044 70.8704 244.279C75.721 248.639 81.3644 251.904 87.5443 253.933C89.4099 254.539 90.2027 251.624 88.3605 251.018Z" fill="#006838"/>
<path d="M406.074 185.954C402.087 189.219 401.434 194.979 403.019 199.667C404.885 205.194 409.549 208.692 414.796 210.814C417.921 212.073 421.232 212.843 424.544 213.472C426.456 213.845 427.272 210.93 425.36 210.557C420.3 209.578 415.053 208.342 410.808 205.24C407.194 202.605 404.955 198.407 405.281 193.883C405.445 191.598 406.447 189.569 408.22 188.1C408.849 187.587 408.756 186.491 408.22 185.954C407.59 185.325 406.704 185.441 406.074 185.954Z" fill="#006838"/>
<path d="M271.401 199.714C287.795 187.471 308.176 180.988 328.628 181.315C334.342 181.408 340.032 182.038 345.605 183.204C347.518 183.6 348.31 180.685 346.421 180.289C325.853 175.974 304.072 178.796 285.136 187.891C279.773 190.456 274.665 193.558 269.885 197.126C269.232 197.615 268.905 198.432 269.349 199.201C269.722 199.854 270.771 200.227 271.424 199.738L271.401 199.714Z" fill="#006838"/>
<path d="M45.0544 143.536C31.4121 147.291 22.4805 159.557 16.2541 171.497C9.07146 185.256 3.87107 200.157 1.4691 215.502C-0.909548 230.707 -0.559747 246.401 3.70783 261.233C7.48569 274.408 14.4351 286.395 24.1129 296.119C33.7908 305.844 44.7979 312.537 57.3674 316.081C63.5472 317.83 70.0302 318.693 76.4666 318.46C82.9262 318.227 89.5492 317.061 95.4025 314.169C101.163 311.324 106.106 306.427 106.876 299.781C107.669 292.808 103.355 286.255 98.0843 282.104C91.9278 277.277 84.1622 275.481 76.7464 273.569C73.0385 272.613 69.3073 271.587 65.786 270.094C62.801 268.835 59.9559 267.296 57.2508 265.523C46.407 258.434 38.0584 247.45 34.1639 235.091C29.2434 219.49 32.6015 203.235 37.5686 188.077C38.8746 184.113 40.2738 180.195 41.6963 176.254C42.3493 174.412 39.4342 173.619 38.7813 175.438C33.1611 191.039 27.3311 207.456 28.9402 224.317C30.1762 237.259 36.0062 249.503 44.8678 258.971C49.252 263.658 54.4058 267.646 60.0725 270.654C66.5322 274.082 73.5516 275.738 80.5709 277.627C87.5903 279.516 94.7029 281.964 99.6235 287.654C103.774 292.435 105.547 299.128 102.002 304.748C98.7373 309.902 92.4642 312.63 86.7507 313.983C80.6642 315.428 74.3211 315.708 68.118 315.032C55.6884 313.679 43.8417 308.293 34.0007 300.69C23.8797 292.878 15.6477 282.57 10.4473 270.91C4.43076 257.408 2.40191 242.297 3.21811 227.628C4.05763 212.563 7.90545 197.662 13.7821 183.786C16.5805 177.164 19.7987 170.634 23.7631 164.617C27.3777 159.114 31.7619 153.913 37.3121 150.275C39.9706 148.526 42.839 147.197 45.9172 146.358C47.7828 145.845 46.99 142.93 45.101 143.443L45.0544 143.536Z" fill="#006838"/>
<path d="M399.475 117.72C382.428 129.054 369.812 146.684 364.495 166.436C363.842 168.908 363.282 171.403 362.862 173.922C362.396 176.744 361.953 179.752 362.956 182.527C364.355 186.351 367.83 188.474 371.747 189.01C375.968 189.593 380.376 188.8 384.34 187.331C389.354 185.442 394.205 183.04 398.845 180.405C409.666 174.272 419.507 166.389 427.832 157.155C429.138 155.709 426.993 153.563 425.687 155.009C418.621 162.821 410.529 169.654 401.597 175.228C397.19 178.003 392.572 180.451 387.815 182.597C383.967 184.323 380.049 185.885 375.805 186.142C372.634 186.328 368.692 185.955 366.664 183.18C365.288 181.291 365.241 178.912 365.474 176.674C365.754 174.202 366.29 171.753 366.873 169.328C369.112 160 373.053 151.115 378.347 143.139C384.294 134.161 392.013 126.325 401.014 120.356C402.623 119.283 401.107 116.648 399.475 117.744V117.72Z" fill="#006838"/>
<path d="M480.418 213.449C476.523 222.66 482.517 232.734 491.005 236.815C495.483 238.961 500.403 239.334 505.184 237.958C509.964 236.559 514.232 233.597 517.497 229.866C520.832 226.065 523.304 221.494 524.656 216.597C526.312 210.627 526.265 204.307 525.356 198.244C524.4 191.784 522.371 185.534 519.992 179.495C517.73 173.804 515.188 168.208 512.343 162.774C506.653 151.884 499.797 141.623 491.961 132.155C491.005 130.989 490.026 129.846 489.023 128.703C487.74 127.234 485.595 129.38 486.878 130.849C494.433 139.524 501.126 148.945 506.816 158.949C512.576 169.07 517.707 179.891 520.785 191.155C523.653 201.602 524.353 213.239 518.779 222.94C514.512 230.379 506 237.258 496.859 235.579C488.137 233.994 479.182 224.199 483.076 214.988C483.403 214.218 483.31 213.379 482.54 212.912C481.91 212.539 480.791 212.702 480.464 213.449H480.418Z" fill="#006838"/>
</g>
<defs>
<clipPath id="clip0_821_1317">
<rect width="525.962" height="318.506" fill="white"/>
</clipPath>
</defs>
</svg>
