<svg width="67" height="64" viewBox="0 0 67 64" fill="none" xmlns="http://www.w3.org/2000/svg">
<g id="Group">
<path id="Vector" d="M47.0821 63.0591C44.6873 63.0591 41.9849 62.3744 39.0214 61.0004C24.966 53.7854 12.5732 43.2925 3.15299 30.6403L3.11698 30.5878C-1.7582 22.8112 0.087435 17.0137 1.94508 14.8139L5.31374 10.8302C6.00248 10.0149 6.96731 9.51787 8.03118 9.42928C9.09354 9.34069 10.1274 9.67103 10.9422 10.3618L18.8244 17.0362C20.0263 18.0543 21.1307 19.6429 19.0105 25.6567C18.5663 26.9165 18.7449 28.2063 19.4876 29.1103C24.6269 35.3583 30.7865 40.5732 37.7969 44.6109C38.8098 45.195 40.1122 45.156 41.2781 44.5088C46.8526 41.4216 48.6022 42.2474 49.8056 43.2655L57.6878 49.9399C59.3684 51.3634 59.58 53.8905 58.159 55.5738L54.7903 59.5589C52.8186 61.8909 50.2122 63.0621 47.0821 63.0621V63.0591ZM4.44644 29.7154C13.7196 42.1618 25.9158 52.4851 39.7191 59.571C45.8982 62.4359 50.5693 62.0891 53.5794 58.5274L56.9481 54.5437C57.8048 53.5302 57.6788 52.0061 56.6645 51.1487L48.7822 44.4742C48.2075 43.9877 47.1362 43.0793 42.0494 45.8962C40.3898 46.8152 38.5067 46.8482 37.0077 45.9848C29.8322 41.851 23.527 36.5115 18.2647 30.1163C17.1663 28.7799 16.8857 26.9135 17.5159 25.1251C19.4486 19.6399 18.3772 18.733 17.8025 18.245L9.92033 11.5705C9.42816 11.1546 8.80094 10.9594 8.16472 11.0089C7.524 11.063 6.9418 11.3618 6.52766 11.8528L3.15899 15.8364C1.68849 17.5753 0.0679278 22.7121 4.44644 29.7124V29.7154Z" fill="#006838"/>
<g id="Group_2">
<path id="Vector_2" d="M24.7931 15.41C24.3249 15.4656 23.9888 15.8905 24.0428 16.359C24.0698 16.5857 24.1824 16.7884 24.3624 16.9296C24.5425 17.0722 24.7661 17.1338 24.9911 17.1083C25.8914 17.0032 26.7858 16.9521 27.6711 16.9521C39.1425 16.9521 49.0804 25.5741 50.4429 37.2487C50.4699 37.4755 50.5825 37.6782 50.7625 37.8193C50.9426 37.962 51.1647 38.0235 51.3912 37.998C51.8594 37.9425 52.1955 37.5175 52.1415 37.049C50.563 23.538 38.2932 13.8304 24.7931 15.4085V15.41Z" fill="#006838"/>
<path id="Vector_3" d="M47.58 14.6972C40.6611 9.22252 32.0391 6.77047 23.3031 7.79153C22.8349 7.84709 22.4988 8.27203 22.5543 8.74052C22.5813 8.96725 22.6939 9.16996 22.8739 9.31111C23.0525 9.45376 23.2761 9.51683 23.5027 9.4898C24.7301 9.34565 25.95 9.27657 27.1564 9.27657C42.7918 9.27657 56.337 21.0293 58.1961 36.9414C58.2502 37.4099 58.6763 37.7462 59.1445 37.6906C59.6126 37.6351 59.9487 37.2101 59.8932 36.7417C58.8729 27.9996 54.4989 20.1704 47.5815 14.6957L47.58 14.6972Z" fill="#006838"/>
<path id="Vector_4" d="M51.5993 9.58848C42.9623 2.47707 32.3266 -0.935978 22.4202 0.221727C22.0165 0.268275 21.7269 0.636158 21.7735 1.04008C21.796 1.23528 21.8935 1.41096 22.0481 1.53259C22.2026 1.65422 22.3947 1.70977 22.5912 1.68725C23.8082 1.5446 25.0371 1.47403 26.2705 1.47403C34.7094 1.47403 43.4379 4.75795 50.7094 10.7642C58.9638 17.5813 64.3446 27.0306 65.473 36.6917C65.5196 37.0956 65.8872 37.3869 66.2908 37.3389C66.6945 37.2923 66.9841 36.9244 66.9375 36.5205C65.7626 26.4645 60.1732 16.6473 51.5993 9.58998V9.58848Z" fill="#006838"/>
</g>
</g>
</svg>
