<svg width="122" height="122" viewBox="0 0 122 122" fill="none" xmlns="http://www.w3.org/2000/svg">
<g id="&#237;&#128;&#181;=sns" filter="url(#filter0_i_1217_1537)">
<path id="Vector" d="M60.7178 121C93.8549 121 120.718 94.1371 120.718 61C120.718 27.8629 93.8549 1 60.7178 1C27.5807 1 0.717773 27.8629 0.717773 61C0.717773 94.1371 27.5807 121 60.7178 121Z" fill="white" stroke="#006838" stroke-miterlimit="10"/>
<path id="Vector_2" d="M61.2656 33.586C78.208 33.586 91.9422 46.2369 91.9422 61.8408C91.9422 67.1946 90.2962 72.1824 87.4872 76.4498L91.327 90.7783L75.9422 86.6564C71.5832 88.8486 66.5835 90.0971 61.2656 90.0971C44.3233 90.0971 30.5876 77.4462 30.5876 61.8423C30.5876 46.2384 44.3218 33.5875 61.2656 33.5875M72.2554 66.9366C74.8798 66.9366 77.0076 64.8088 77.0076 62.1844C77.0076 59.56 74.8798 57.4323 72.2554 57.4323C69.631 57.4323 67.5033 59.56 67.5033 62.1844C67.5033 64.8088 69.631 66.9366 72.2554 66.9366ZM61.2656 66.9366C63.89 66.9366 66.0178 64.8088 66.0178 62.1844C66.0178 59.56 63.89 57.4323 61.2656 57.4323C58.6412 57.4323 56.5135 59.56 56.5135 62.1844C56.5135 64.8088 58.6412 66.9366 61.2656 66.9366ZM50.2758 66.9366C52.9003 66.9366 55.028 64.8088 55.028 62.1844C55.028 59.56 52.9003 57.4323 50.2758 57.4323C47.6514 57.4323 45.5237 59.56 45.5237 62.1844C45.5237 64.8088 47.6514 66.9366 50.2758 66.9366ZM61.2656 32C43.474 32 29 45.3876 29 61.8423C29 78.297 43.474 91.6846 61.2656 91.6846C66.4289 91.6846 71.5457 90.5307 76.1058 88.3444L90.9159 92.3133L93.5718 93.0246L92.8606 90.3686L89.2023 76.7169C92.0353 72.1764 93.5298 67.0491 93.5298 61.8423C93.5298 45.3876 79.0558 32 61.2656 32ZM72.2554 65.349C70.5103 65.349 69.0908 63.9295 69.0908 62.1844C69.0908 60.4393 70.5103 59.0198 72.2554 59.0198C74.0005 59.0198 75.42 60.4393 75.42 62.1844C75.42 63.9295 74.0005 65.349 72.2554 65.349ZM61.2656 65.349C59.5205 65.349 58.1011 63.9295 58.1011 62.1844C58.1011 60.4393 59.5205 59.0198 61.2656 59.0198C63.0107 59.0198 64.4302 60.4393 64.4302 62.1844C64.4302 63.9295 63.0107 65.349 61.2656 65.349ZM50.2758 65.349C48.5307 65.349 47.1113 63.9295 47.1113 62.1844C47.1113 60.4393 48.5307 59.0198 50.2758 59.0198C52.021 59.0198 53.4404 60.4393 53.4404 62.1844C53.4404 63.9295 52.021 65.349 50.2758 65.349Z" fill="#006838"/>
</g>
<defs>
<filter id="filter0_i_1217_1537" x="0.217773" y="0.5" width="121" height="125" filterUnits="userSpaceOnUse" color-interpolation-filters="sRGB">
<feFlood flood-opacity="0" result="BackgroundImageFix"/>
<feBlend mode="normal" in="SourceGraphic" in2="BackgroundImageFix" result="shape"/>
<feColorMatrix in="SourceAlpha" type="matrix" values="0 0 0 0 0 0 0 0 0 0 0 0 0 0 0 0 0 0 127 0" result="hardAlpha"/>
<feOffset dy="4"/>
<feGaussianBlur stdDeviation="2"/>
<feComposite in2="hardAlpha" operator="arithmetic" k2="-1" k3="1"/>
<feColorMatrix type="matrix" values="0 0 0 0 0 0 0 0 0 0 0 0 0 0 0 0 0 0 0.25 0"/>
<feBlend mode="normal" in2="shape" result="effect1_innerShadow_1217_1537"/>
</filter>
</defs>
</svg>
