<svg width="55" height="55" viewBox="0 0 55 55" fill="none" xmlns="http://www.w3.org/2000/svg">
<g clip-path="url(#clip0_1199_614)">
<path d="M35.059 0C41.1252 0 45.965 1.95078 49.5805 5.84736C53.1938 9.74643 55.0026 14.9444 55.0026 21.4362C55.0026 27.928 53.1805 33.1806 49.5342 37.0449C45.8878 40.9091 40.9796 42.84 34.8075 42.84C32.1869 42.84 29.7714 42.4792 27.5633 41.7551C25.3552 41.0335 23.2684 39.9362 21.3007 38.4657V54.9975H5.06738V0H35.059Z" fill="#006838"/>
<path d="M18.1507 29.4422C19.5426 29.8951 20.961 30.2484 22.3926 30.5072C23.811 30.7635 25.2405 30.9327 26.6743 31.0472C27.9229 31.1467 29.2618 31.1566 30.4023 30.4923C30.8942 30.2061 31.3067 29.7906 31.5692 29.2357C31.7964 28.7555 31.9244 28.1658 31.7722 27.6333C31.6045 27.0461 31.1325 26.6828 30.6097 26.5758C29.9942 26.4489 29.3589 26.5808 28.7479 26.6654C28.5648 26.6903 28.3795 26.7151 28.1964 26.7425L28.3067 26.8669C28.3861 26.0309 28.7611 25.2794 28.8824 24.4533C28.9398 24.0726 28.942 23.6795 28.8383 23.3062C28.7412 22.9554 28.5648 22.6369 28.342 22.3682C27.8456 21.771 27.153 21.465 26.4515 21.3256C26.0655 21.2485 25.6706 21.2136 25.2802 21.1912C24.989 21.1763 24.6956 21.1813 24.4044 21.2236C23.789 21.3132 23.1316 21.5894 22.8713 22.2811C22.8162 22.4279 23.0081 22.5573 23.0632 22.408C23.2772 21.8382 23.789 21.5919 24.3007 21.4923C24.9096 21.3754 25.5625 21.4326 26.1692 21.5272C26.8552 21.6342 27.5478 21.8705 28.0662 22.413C28.289 22.6469 28.4765 22.928 28.5868 23.249C28.7059 23.5999 28.7236 23.9781 28.6729 24.3463C28.5559 25.2097 28.1655 25.9935 28.0839 26.8669C28.0773 26.9291 28.139 27.0013 28.1942 26.9913C28.8251 26.9042 29.4648 26.7674 30.1023 26.7749C30.6229 26.7798 31.192 26.9316 31.47 27.479C31.706 27.9418 31.6244 28.5241 31.4302 28.9869C31.203 29.5293 30.8324 29.9399 30.367 30.226C29.2993 30.8854 28.0199 30.8929 26.8353 30.8083C25.4633 30.7112 24.0912 30.547 22.7323 30.3131C21.2059 30.0494 19.6926 29.6836 18.208 29.1984C18.069 29.1536 18.0117 29.395 18.1485 29.4398L18.1507 29.4422Z" fill="white"/>
<path d="M18.2107 29.1988C16.2166 28.4573 15.4908 25.7849 15.5923 23.6375C15.7092 21.1369 16.7438 18.7656 18.1357 16.8546C19.5916 14.8566 21.449 13.2566 23.4454 12.0001C25.6998 10.5793 28.166 9.5367 30.705 9.00422C33.2705 8.46676 35.9463 8.4792 38.4676 9.27543C40.6162 9.95472 42.5905 11.2586 44.1765 13.0327C45.7162 14.7545 46.8942 16.9243 47.3751 19.3229C47.8736 21.7987 47.5648 24.4064 46.389 26.5886C45.3699 28.4772 43.6625 30.0497 41.6419 30.1741C40.8787 30.2214 40.089 30.0522 39.4581 29.5471C38.761 28.9897 38.3992 28.0815 38.3132 27.1435C38.2823 26.8001 38.2801 26.4617 38.3463 26.1233C38.4191 25.7525 38.547 25.3992 38.675 25.0484C38.7301 24.8991 38.5139 24.8344 38.461 24.9812C38.3242 25.3619 38.1853 25.7476 38.1147 26.1532C38.0551 26.4965 38.0595 26.8424 38.0948 27.1907C38.1456 27.6959 38.2625 28.1935 38.4742 28.6464C38.847 29.4426 39.5 30.0025 40.2588 30.2563C42.039 30.8534 43.9537 29.9477 45.2508 28.5767C46.9471 26.7852 47.8692 24.1277 47.8317 21.5225C47.7964 18.9995 46.956 16.5635 45.6324 14.548C44.2824 12.4952 42.4515 10.8405 40.3846 9.79299C38.0154 8.59366 35.3529 8.22042 32.7786 8.44436C30.0565 8.68323 27.3984 9.56656 24.9299 10.8629C22.7505 12.01 20.6902 13.5054 18.9828 15.4288C17.3615 17.2552 16.0622 19.5071 15.5681 22.055C15.3364 23.2494 15.2835 24.4711 15.5129 25.6704C15.7225 26.7752 16.1681 27.8725 16.9247 28.6389C17.282 28.9997 17.6968 29.2709 18.1512 29.4401C18.2879 29.4899 18.3453 29.2485 18.2107 29.1988Z" fill="white"/>
<path d="M41.569 23.8055C41.1873 24.1613 41.2226 24.8357 41.4851 25.2636C41.8072 25.7887 42.4006 25.9703 42.9278 26.0872C43.0668 26.1171 43.1285 25.8757 42.9874 25.8459C42.5351 25.7464 42.0035 25.6095 41.7035 25.179C41.4675 24.8406 41.4079 24.2808 41.7256 23.9847C41.8359 23.8827 41.6771 23.706 41.569 23.808V23.8055Z" fill="white"/>
<path d="M31.669 24.9452C32.8712 23.935 34.3602 23.3976 35.858 23.4199C36.2838 23.4249 36.7073 23.4772 37.1264 23.5767C37.2654 23.6091 37.3272 23.3677 37.186 23.3353C35.6705 22.9795 34.069 23.2109 32.6749 23.9674C32.2823 24.1813 31.9095 24.4352 31.5587 24.7313C31.4462 24.8258 31.5565 25.0448 31.6712 24.9477L31.669 24.9452Z" fill="white"/>
<path d="M15.0272 20.2852C14.028 20.5987 13.375 21.6039 12.914 22.5918C12.3824 23.7339 11.9985 24.973 11.8221 26.2495C11.6478 27.5085 11.672 28.8099 11.9831 30.039C12.261 31.1364 12.7728 32.1317 13.4875 32.9428C14.1581 33.7017 14.9942 34.2939 15.9096 34.59C16.7986 34.8787 17.8486 34.911 18.7001 34.4532C19.1082 34.2342 19.481 33.851 19.5582 33.326C19.642 32.7612 19.3729 32.2212 19.0045 31.8604C18.5788 31.4424 18.0295 31.2707 17.4934 31.114C16.964 30.9597 16.4567 30.788 15.989 30.4596C15.1706 29.8823 14.5353 28.9716 14.2331 27.9365C13.8515 26.6302 14.0963 25.2691 14.4647 23.9951C14.5618 23.6617 14.6655 23.3332 14.7714 23.0048C14.8199 22.853 14.6059 22.7858 14.5574 22.9376C14.1449 24.2265 13.7169 25.5851 13.8316 26.981C13.9177 28.0286 14.3258 29.0189 14.9478 29.7977C15.2611 30.1908 15.6339 30.5292 16.042 30.7855C16.503 31.0766 17.0015 31.2284 17.5089 31.3777C18.0163 31.527 18.5589 31.7037 18.9449 32.1441C19.2846 32.5323 19.4854 33.1095 19.2295 33.6196C19.0023 34.07 18.5324 34.3089 18.1045 34.4258C17.6765 34.5428 17.2001 34.5751 16.7456 34.5229C15.828 34.4183 14.95 33.973 14.2221 33.3459C13.4941 32.7189 12.8743 31.8579 12.4882 30.8975C12.036 29.7753 11.8816 28.5113 11.9412 27.2871C12.0007 26.038 12.2809 24.8063 12.711 23.6567C12.9162 23.1068 13.1522 22.5644 13.4434 22.0618C13.7081 21.6039 14.0302 21.1685 14.4383 20.8649C14.6368 20.7156 14.8508 20.6037 15.0802 20.534C15.2192 20.4917 15.1596 20.2478 15.0206 20.2926L15.0272 20.2852Z" fill="white"/>
<path d="M41.0836 18.1477C39.824 19.0957 38.8909 20.5663 38.5049 22.2185C38.4586 22.4175 38.4189 22.6191 38.3902 22.8206C38.3571 23.052 38.3262 23.2959 38.399 23.5223C38.4983 23.8333 38.7498 24.01 39.0321 24.0573C39.3365 24.1095 39.6586 24.0473 39.9454 23.9304C40.316 23.7811 40.6733 23.577 41.0152 23.3581C41.8204 22.848 42.5506 22.1886 43.1704 21.4148C43.2653 21.2953 43.1086 21.1162 43.0138 21.2381C42.502 21.8776 41.9152 22.4349 41.2711 22.8953C40.9535 23.1217 40.6204 23.3257 40.2785 23.5024C39.9917 23.6517 39.6961 23.7885 39.3785 23.8184C39.138 23.8408 38.8336 23.8159 38.677 23.577C38.5667 23.4103 38.5689 23.1914 38.5931 22.9948C38.6174 22.7982 38.6549 22.5942 38.6968 22.3976C38.8645 21.6337 39.1512 20.9047 39.5373 20.2503C39.974 19.5063 40.541 18.8618 41.1983 18.3667C41.3174 18.2771 41.2049 18.0606 41.0858 18.1502L41.0836 18.1477Z" fill="white"/>
<path d="M47.0237 26.1141C46.748 26.8606 47.2046 27.6867 47.8046 28.0151C48.484 28.3908 49.2495 28.0773 49.737 27.4727C51.0142 25.8852 50.1429 23.5263 49.3907 21.9015C48.9186 20.8788 48.3362 19.9209 47.6634 19.0525C47.5686 18.9306 47.412 19.1097 47.5068 19.2291C48.0561 19.9383 48.5414 20.7096 48.9561 21.5258C49.3774 22.3569 49.7524 23.2476 49.9863 24.1733C50.2047 25.0442 50.273 26.022 49.8671 26.8382C49.5561 27.4677 48.934 28.0425 48.2546 27.9181C47.5752 27.7937 46.9509 26.9576 47.2399 26.1788C47.2951 26.0295 47.0789 25.9648 47.0259 26.1116L47.0237 26.1141Z" fill="white"/>
<path d="M4.02803 52.0859V52.8697C3.97067 52.9046 3.92214 52.922 3.88244 52.927C4.02141 53.1385 4.092 53.4221 4.092 53.7754C4.092 54.0541 4.00376 54.2955 3.82729 54.4995C3.65082 54.7036 3.4567 54.8031 3.24493 54.8031H3.06404C2.90742 54.8031 2.76625 54.7533 2.64051 54.6563C2.51477 54.5592 2.41109 54.4249 2.32948 54.2532C2.24786 54.0815 2.18389 53.8874 2.13536 53.6759C2.08683 53.4619 2.05153 53.2305 2.03168 52.9767H1.89932C1.83976 52.9767 1.77579 53.0165 1.70961 53.0937C1.64344 53.1733 1.61035 53.2977 1.61035 53.4719C1.61035 53.5714 1.62138 53.656 1.64344 53.7282C1.6655 53.8003 1.69417 53.8501 1.72947 53.8824C1.76476 53.9123 1.79565 53.9347 1.82212 53.9471C1.84859 53.9596 1.87506 53.9646 1.89932 53.9646H2.07138V54.7732H1.88168C1.63682 54.7732 1.42726 54.6588 1.25078 54.4274C1.07652 54.1985 0.988281 53.875 0.988281 53.4619C0.988281 53.0489 1.07652 52.7354 1.25078 52.5089C1.42726 52.2825 1.63682 52.168 1.88168 52.168H3.59567C3.78538 52.168 3.93097 52.1407 4.03023 52.0859H4.02803ZM3.29346 52.9767H2.62727C2.66919 53.656 2.83242 53.9944 3.11257 53.9944H3.16331C3.24272 53.9944 3.31772 53.9571 3.39273 53.88C3.46773 53.8028 3.50302 53.6685 3.50302 53.4744C3.50302 53.3724 3.48317 53.2753 3.44126 53.1833C3.39934 53.0912 3.35081 53.024 3.29346 52.9792V52.9767Z" fill="#006838"/>
<path d="M1.05664 51.8895V51.1057L2.90299 50.7996H2.9074L1.05664 50.4513V49.782L2.9074 49.4336L1.05664 49.1275V48.3438L4.028 48.9359V49.7596L2.49048 50.1129L4.028 50.4712V51.2948L1.05664 51.887V51.8895Z" fill="#006838"/>
<path d="M4.028 46.8857V47.6943H1.6787V48.2417H1.05663V47.6943H0.734569C0.244856 47.6943 0 47.3733 0 46.7314C0 46.495 0.0198532 46.3233 0.0595596 46.2089H0.657362C0.624273 46.3358 0.606626 46.4776 0.606626 46.6343C0.606626 46.7165 0.626479 46.7787 0.666185 46.821C0.705892 46.8633 0.756628 46.8857 0.820599 46.8857H1.05663V46.1641H1.6787V46.8857H4.028Z" fill="#006838"/>
<path d="M1.90619 43.2916H2.56355C2.76209 43.2916 2.86356 43.4085 2.86356 43.6449V45.093H3.13047C3.22312 45.093 3.30695 45.0458 3.37754 44.9512C3.44813 44.8567 3.48342 44.7422 3.48342 44.6053C3.48342 44.4685 3.45474 44.3466 3.39739 44.2396C3.34004 44.1326 3.26945 44.0778 3.18783 44.0778H3.09739V43.294H3.19665C3.48121 43.294 3.70181 43.4234 3.85843 43.6822C4.01504 43.941 4.09446 44.2495 4.09446 44.6029C4.09446 44.9562 4.00843 45.2573 3.83637 45.5135C3.6643 45.7698 3.43489 45.8967 3.15253 45.8967H1.90619C1.61501 45.8967 1.39001 45.7698 1.22898 45.516C1.06795 45.2622 0.986328 44.9587 0.986328 44.6029C0.986328 44.247 1.06574 43.931 1.22677 43.6747C1.3878 43.4185 1.61281 43.2891 1.90619 43.2891V43.2916ZM2.28782 44.1002H1.97016C1.84884 44.1002 1.7584 44.1475 1.69884 44.2445C1.63928 44.3391 1.6084 44.461 1.6084 44.6078C1.6084 44.7546 1.63928 44.8641 1.69884 44.9562C1.7584 45.0482 1.85105 45.0955 1.97016 45.0955H2.28782V44.1027V44.1002Z" fill="#006838"/>
<path d="M3.1393 41.0899H2.87238V40.2812H3.13489C3.41504 40.2812 3.64666 40.3882 3.82754 40.6047C4.00843 40.8187 4.09666 41.1397 4.09666 41.5652C4.09666 41.9907 4.00622 42.3316 3.82754 42.558C3.64666 42.7819 3.41945 42.8964 3.14592 42.8964H1.94811C1.66795 42.8964 1.43633 42.7869 1.25545 42.5655C1.07456 42.3465 0.986328 42.018 0.986328 41.5801C0.986328 41.1745 1.07677 40.856 1.25986 40.6271C1.44295 40.3982 1.66795 40.2812 1.93708 40.2812H2.25032V41.0899H1.94149C1.71869 41.0899 1.60619 41.2542 1.60619 41.5801C1.60619 41.7543 1.63928 41.8812 1.70766 41.9633C1.77604 42.0454 1.85325 42.0852 1.94149 42.0852H3.1393C3.22974 42.0852 3.30915 42.0454 3.37974 41.9633C3.45033 41.8812 3.48342 41.7543 3.48342 41.5801C3.48342 41.4059 3.45033 41.2765 3.38195 41.2019C3.31357 41.1273 3.23415 41.0899 3.1393 41.0899Z" fill="#006838"/>
<path d="M0.0214844 39.4727V38.781C0.0214844 38.6715 0.0435435 38.6118 0.0876617 38.6043C0.13178 38.5969 0.195751 38.6093 0.279576 38.6416C0.339136 38.6541 0.389872 38.6616 0.429578 38.6616H1.05606V37.9648H1.67812V38.6616H3.29726C3.36344 38.6616 3.41418 38.6441 3.44947 38.6068C3.48477 38.572 3.50241 38.5048 3.50241 38.4102C3.50241 38.353 3.49138 38.2759 3.47153 38.1838C3.44947 38.0893 3.42741 38.0246 3.40315 37.9872H3.98771C4.0583 38.1241 4.09801 38.2983 4.11124 38.5098C4.13772 39.1517 3.89506 39.4727 3.38109 39.4727H1.67812V40.0201H1.05606V39.4727H0.0214844Z" fill="#006838"/>
<path d="M4.02742 32.4918V33.4125L1.67812 33.838L4.02742 34.2684V35.1891L0.0214844 35.8932V35.1045L2.70608 34.674H2.71049L0.0214844 34.2162V33.4647L2.71049 33.0044L0.0214844 32.5739V31.7852L4.02521 32.4918H4.02742Z" fill="#006838"/>
<path d="M4.02803 29.0156V29.7994C3.97067 29.8343 3.92214 29.8517 3.88244 29.8566C4.02141 30.0681 4.092 30.3518 4.092 30.7051C4.092 30.9838 4.00376 31.2252 3.82729 31.4292C3.65082 31.6333 3.4567 31.7328 3.24493 31.7328H3.06404C2.90742 31.7328 2.76625 31.683 2.64051 31.586C2.51477 31.4889 2.41109 31.3546 2.32948 31.1829C2.24786 31.0112 2.18389 30.8171 2.13536 30.6056C2.08683 30.3916 2.05153 30.1602 2.03168 29.9064H1.89932C1.83976 29.9064 1.77579 29.9462 1.70961 30.0234C1.64344 30.103 1.61035 30.2274 1.61035 30.4016C1.61035 30.5011 1.62138 30.5857 1.64344 30.6579C1.6655 30.73 1.69417 30.7798 1.72947 30.8121C1.76476 30.842 1.79565 30.8644 1.82212 30.8768C1.84859 30.8893 1.87506 30.8942 1.89932 30.8942H2.07138V31.7029H1.88168C1.63682 31.7029 1.42726 31.5885 1.25078 31.3571C1.07652 31.1281 0.988281 30.8047 0.988281 30.3916C0.988281 29.9786 1.07652 29.6651 1.25078 29.4386C1.42726 29.2122 1.63682 29.0977 1.88168 29.0977H3.59567C3.78538 29.0977 3.93097 29.0704 4.03023 29.0156H4.02803ZM3.29346 29.9064H2.62727C2.66919 30.5857 2.83242 30.9241 3.11257 30.9241H3.16331C3.24272 30.9241 3.31772 30.8868 3.39273 30.8096C3.46773 30.7325 3.50302 30.5981 3.50302 30.4041C3.50302 30.302 3.48317 30.205 3.44126 30.1129C3.39934 30.0209 3.35081 29.9537 3.29346 29.9089V29.9064Z" fill="#006838"/>
<path d="M1.05664 26.8506V25.9922L4.028 26.9701V27.8609L1.05664 28.8387V27.9803L2.99343 27.4179L1.05664 26.8556V26.8506Z" fill="#006838"/>
<path d="M1.90619 23.1666H2.56355C2.76209 23.1666 2.86356 23.2835 2.86356 23.5199V24.968H3.13047C3.22312 24.968 3.30695 24.9208 3.37754 24.8262C3.44813 24.7317 3.48342 24.6172 3.48342 24.4803C3.48342 24.3435 3.45474 24.2216 3.39739 24.1146C3.34004 24.0076 3.26945 23.9528 3.18783 23.9528H3.09739V23.169H3.19665C3.48121 23.169 3.70181 23.2984 3.85843 23.5572C4.01504 23.816 4.09446 24.1245 4.09446 24.4779C4.09446 24.8312 4.00843 25.1323 3.83637 25.3885C3.6643 25.6448 3.43489 25.7717 3.15253 25.7717H1.90619C1.61501 25.7717 1.39001 25.6448 1.22898 25.391C1.06795 25.1372 0.986328 24.8337 0.986328 24.4779C0.986328 24.122 1.06574 23.806 1.22677 23.5497C1.3878 23.2935 1.61281 23.1641 1.90619 23.1641V23.1666ZM2.28782 23.9752H1.97016C1.84884 23.9752 1.7584 24.0225 1.69884 24.1195C1.63928 24.2141 1.6084 24.336 1.6084 24.4828C1.6084 24.6296 1.63928 24.7391 1.69884 24.8312C1.7584 24.9232 1.85105 24.9705 1.97016 24.9705H2.28782V23.9777V23.9752Z" fill="#006838"/>
</g>
<defs>
<clipPath id="clip0_1199_614">
<rect width="55" height="55" fill="white"/>
</clipPath>
</defs>
</svg>
