<svg width="23" height="27" viewBox="0 0 23 27" fill="none" xmlns="http://www.w3.org/2000/svg">
<path d="M21.2305 10.7217C21.2305 19.9468 11.543 25.2529 11.543 25.2529C11.543 25.2529 1.85547 19.9468 1.85547 10.7217C1.85547 8.15239 2.87611 5.68834 4.69287 3.87158C6.50963 2.05482 8.97368 1.03418 11.543 1.03418C14.1123 1.03418 16.5763 2.05482 18.3931 3.87158C20.2098 5.68834 21.2305 8.15239 21.2305 10.7217Z" stroke="white" stroke-width="1.9375" stroke-linecap="round" stroke-linejoin="round"/>
<path d="M15.418 10.7217C15.418 11.7494 15.0097 12.735 14.283 13.4617C13.5563 14.1884 12.5707 14.5967 11.543 14.5967C10.5153 14.5967 9.52963 14.1884 8.80293 13.4617C8.07623 12.735 7.66797 11.7494 7.66797 10.7217C7.66797 9.69397 8.07623 8.70834 8.80293 7.98164C9.52963 7.25494 10.5153 6.84668 11.543 6.84668C12.5707 6.84668 13.5563 7.25494 14.283 7.98164C15.0097 8.70834 15.418 9.69397 15.418 10.7217Z" stroke="white" stroke-width="1.9375" stroke-linecap="round" stroke-linejoin="round"/>
</svg>
