<svg width="35" height="37" viewBox="0 0 35 37" fill="none" xmlns="http://www.w3.org/2000/svg">
<path d="M6.70801 9.00391C11.523 4.18891 19.3764 4.18891 24.2139 9.00391C26.5536 11.3438 27.8358 14.4487 27.8359 17.7559C27.8359 21.0632 26.5537 24.1688 24.2139 26.5088C23.0643 27.6578 21.699 28.5689 20.1973 29.1904C18.6955 29.812 17.0862 30.1314 15.4609 30.1309C13.8357 30.1314 12.2263 29.8119 10.7246 29.1904C9.22284 28.5689 7.85755 27.6578 6.70801 26.5088C4.36816 24.1688 3.08594 21.0632 3.08594 17.7559C3.08606 14.4487 4.36828 11.3438 6.70801 9.00391ZM15.4609 7.63086C12.8734 7.63086 10.2857 8.62156 8.30566 10.6016C6.39343 12.5139 5.33606 15.0562 5.33594 17.7559C5.33594 20.4557 6.39331 22.9987 8.30566 24.9111C10.207 26.8017 12.7796 27.8633 15.4609 27.8633C18.1423 27.8633 20.7149 26.8017 22.6162 24.9111C24.5286 22.9987 25.5859 20.4557 25.5859 17.7559C25.5858 15.0562 24.5284 12.5139 22.6162 10.6016C21.6784 9.6591 20.5629 8.91109 19.335 8.40137C18.1071 7.8917 16.7904 7.62957 15.4609 7.63086Z" fill="#1E3932"/>
<path d="M6.70801 9.00391C11.523 4.18891 19.3764 4.18891 24.2139 9.00391C26.5536 11.3438 27.8358 14.4487 27.8359 17.7559C27.8359 21.0632 26.5537 24.1688 24.2139 26.5088C23.0643 27.6578 21.699 28.5689 20.1973 29.1904C18.6955 29.812 17.0862 30.1314 15.4609 30.1309C13.8357 30.1314 12.2263 29.8119 10.7246 29.1904C9.22284 28.5689 7.85755 27.6578 6.70801 26.5088C4.36816 24.1688 3.08594 21.0632 3.08594 17.7559C3.08606 14.4487 4.36828 11.3438 6.70801 9.00391ZM15.4609 7.63086C12.8734 7.63086 10.2857 8.62156 8.30566 10.6016C6.39343 12.5139 5.33606 15.0562 5.33594 17.7559C5.33594 20.4557 6.39331 22.9987 8.30566 24.9111C10.207 26.8017 12.7796 27.8633 15.4609 27.8633C18.1423 27.8633 20.7149 26.8017 22.6162 24.9111C24.5286 22.9987 25.5859 20.4557 25.5859 17.7559C25.5858 15.0562 24.5284 12.5139 22.6162 10.6016C21.6784 9.6591 20.5629 8.91109 19.335 8.40137C18.1071 7.8917 16.7904 7.62957 15.4609 7.63086Z" stroke="#1E3932"/>
<path d="M19.4941 25.0469C19.9441 24.5969 20.6408 24.5969 21.0908 25.0469L28.6963 32.6514C29.1463 33.1014 29.1463 33.799 28.6963 34.249C28.4714 34.4739 28.1791 34.5868 27.9092 34.5869H27.8867C27.7392 34.5887 27.5926 34.5591 27.457 34.501C27.3214 34.4429 27.1991 34.3571 27.0986 34.249L19.4941 26.6436C19.0442 26.1936 19.0441 25.4969 19.4941 25.0469Z" fill="#1E3932"/>
<path d="M19.4941 25.0469C19.9441 24.5969 20.6408 24.5969 21.0908 25.0469L28.6963 32.6514C29.1463 33.1014 29.1463 33.799 28.6963 34.249C28.4714 34.4739 28.1791 34.5868 27.9092 34.5869H27.8867C27.7392 34.5887 27.5926 34.5591 27.457 34.501C27.3214 34.4429 27.1991 34.3571 27.0986 34.249L19.4941 26.6436C19.0442 26.1936 19.0441 25.4969 19.4941 25.0469Z" stroke="#1E3932"/>
</svg>
