<svg width="73" height="73" viewBox="0 0 73 73" fill="none" xmlns="http://www.w3.org/2000/svg">
<path d="M43.7419 39.2859C44.1715 39.2859 44.5836 39.1152 44.8874 38.8114C45.1912 38.5076 45.3619 38.0955 45.3619 37.6659C45.3619 37.2362 45.1912 36.8242 44.8874 36.5204C44.5836 36.2166 44.1715 36.0459 43.7419 36.0459C43.3122 36.0459 42.9002 36.2166 42.5964 36.5204C42.2926 36.8242 42.1219 37.2362 42.1219 37.6659C42.1219 38.0955 42.2926 38.5076 42.5964 38.8114C42.9002 39.1152 43.3122 39.2859 43.7419 39.2859ZM43.7419 45.7659C44.1715 45.7659 44.5836 45.5952 44.8874 45.2914C45.1912 44.9876 45.3619 44.5755 45.3619 44.1459C45.3619 43.7162 45.1912 43.3042 44.8874 43.0004C44.5836 42.6966 44.1715 42.5259 43.7419 42.5259C43.3122 42.5259 42.9002 42.6966 42.5964 43.0004C42.2926 43.3042 42.1219 43.7162 42.1219 44.1459C42.1219 44.5755 42.2926 44.9876 42.5964 45.2914C42.9002 45.5952 43.3122 45.7659 43.7419 45.7659ZM37.2619 37.6659C37.2619 38.0955 37.0912 38.5076 36.7874 38.8114C36.4836 39.1152 36.0715 39.2859 35.6419 39.2859C35.2122 39.2859 34.8002 39.1152 34.4964 38.8114C34.1926 38.5076 34.0219 38.0955 34.0219 37.6659C34.0219 37.2362 34.1926 36.8242 34.4964 36.5204C34.8002 36.2166 35.2122 36.0459 35.6419 36.0459C36.0715 36.0459 36.4836 36.2166 36.7874 36.5204C37.0912 36.8242 37.2619 37.2362 37.2619 37.6659ZM37.2619 44.1459C37.2619 44.5755 37.0912 44.9876 36.7874 45.2914C36.4836 45.5952 36.0715 45.7659 35.6419 45.7659C35.2122 45.7659 34.8002 45.5952 34.4964 45.2914C34.1926 44.9876 34.0219 44.5755 34.0219 44.1459C34.0219 43.7162 34.1926 43.3042 34.4964 43.0004C34.8002 42.6966 35.2122 42.5259 35.6419 42.5259C36.0715 42.5259 36.4836 42.6966 36.7874 43.0004C37.0912 43.3042 37.2619 43.7162 37.2619 44.1459ZM27.5419 39.2859C27.9715 39.2859 28.3836 39.1152 28.6874 38.8114C28.9912 38.5076 29.1619 38.0955 29.1619 37.6659C29.1619 37.2362 28.9912 36.8242 28.6874 36.5204C28.3836 36.2166 27.9715 36.0459 27.5419 36.0459C27.1122 36.0459 26.7002 36.2166 26.3964 36.5204C26.0926 36.8242 25.9219 37.2362 25.9219 37.6659C25.9219 38.0955 26.0926 38.5076 26.3964 38.8114C26.7002 39.1152 27.1122 39.2859 27.5419 39.2859ZM27.5419 45.7659C27.9715 45.7659 28.3836 45.5952 28.6874 45.2914C28.9912 44.9876 29.1619 44.5755 29.1619 44.1459C29.1619 43.7162 28.9912 43.3042 28.6874 43.0004C28.3836 42.6966 27.9715 42.5259 27.5419 42.5259C27.1122 42.5259 26.7002 42.6966 26.3964 43.0004C26.0926 43.3042 25.9219 43.7162 25.9219 44.1459C25.9219 44.5755 26.0926 44.9876 26.3964 45.2914C26.7002 45.5952 27.1122 45.7659 27.5419 45.7659Z" fill="#1E3932"/>
<path fill-rule="evenodd" clip-rule="evenodd" d="M27.5399 19.4404C27.8622 19.4404 28.1712 19.5684 28.3991 19.7963C28.6269 20.0242 28.7549 20.3332 28.7549 20.6554V21.8915C29.8274 21.8704 31.0084 21.8704 32.3076 21.8704H38.9707C40.2715 21.8704 41.4525 21.8704 42.5249 21.8915V20.6554C42.5249 20.3332 42.6529 20.0242 42.8808 19.7963C43.1087 19.5684 43.4177 19.4404 43.7399 19.4404C44.0622 19.4404 44.3712 19.5684 44.5991 19.7963C44.8269 20.0242 44.9549 20.3332 44.9549 20.6554V21.9952C45.3761 22.0276 45.7752 22.0686 46.1521 22.1183C48.0508 22.3742 49.5881 22.9121 50.8015 24.1238C52.0133 25.3372 52.5511 26.8746 52.8071 28.7732C53.0549 30.62 53.0549 32.9772 53.0549 35.9547V39.3761C53.0549 42.3537 53.0549 44.7124 52.8071 46.5576C52.5511 48.4563 52.0133 49.9936 50.8015 51.207C49.5881 52.4188 48.0508 52.9566 46.1521 53.2126C44.3053 53.4604 41.9482 53.4604 38.9707 53.4604H32.3108C29.3333 53.4604 26.9746 53.4604 25.1294 53.2126C23.2307 52.9566 21.6934 52.4188 20.48 51.207C19.2682 49.9936 18.7304 48.4563 18.4744 46.5576C18.2266 44.7108 18.2266 42.3537 18.2266 39.3761V35.9547C18.2266 32.9772 18.2266 30.6184 18.4744 28.7732C18.7304 26.8746 19.2682 25.3372 20.48 24.1238C21.6934 22.9121 23.2307 22.3742 25.1294 22.1183C25.5074 22.0686 25.9064 22.0276 26.3266 21.9952V20.6554C26.3266 20.3335 26.4543 20.0247 26.6819 19.7969C26.9094 19.5691 27.218 19.4409 27.5399 19.4404ZM25.4501 24.5272C23.822 24.7459 22.8824 25.1574 22.1972 25.8427C21.5119 26.5279 21.1004 27.4675 20.8817 29.0956C20.845 29.371 20.8137 29.6621 20.7878 29.9688H50.4921C50.4662 29.6621 50.4349 29.3705 50.3981 29.094C50.1794 27.4659 49.768 26.5263 49.0827 25.8411C48.3974 25.1558 47.4578 24.7443 45.8281 24.5256C44.1644 24.302 41.9693 24.2988 38.8799 24.2988H32.3999C29.3106 24.2988 27.1171 24.3037 25.4501 24.5272ZM20.6549 36.0454C20.6549 34.6619 20.6549 33.4583 20.676 32.4004H50.6039C50.6249 33.4583 50.6249 34.6619 50.6249 36.0454V39.2854C50.6249 42.3748 50.6217 44.5699 50.3981 46.2352C50.1794 47.8633 49.768 48.8029 49.0827 49.4882C48.3974 50.1735 47.4578 50.5849 45.8281 50.8036C44.1644 51.0272 41.9693 51.0304 38.8799 51.0304H32.3999C29.3106 51.0304 27.1171 51.0272 25.4501 50.8036C23.822 50.5849 22.8824 50.1735 22.1972 49.4882C21.5119 48.8029 21.1004 47.8633 20.8817 46.2336C20.6582 44.5699 20.6549 42.3748 20.6549 39.2854V36.0454Z" fill="#1E3932"/>
</svg>
