<svg width="40" height="40" viewBox="0 0 40 40" fill="none" xmlns="http://www.w3.org/2000/svg">
<path id="&#237;&#142;&#152;&#236;&#157;&#180;&#236;&#138;&#164;&#235;&#182;&#129;" d="M19.9133 0.750488C9.01914 0.750488 0.188232 9.5814 0.188232 20.4756C0.188232 30.2075 7.23337 38.2908 16.505 39.9068V25.5097H11.5884V19.9989H16.505V18.0042C16.505 15.7777 16.7433 14.1127 17.2167 13.0158C17.6901 11.9189 18.5617 11.0244 19.835 10.3355C21.1082 9.64669 22.7144 9.30064 24.6601 9.30064C26.6059 9.30064 28.6071 9.60098 30.5202 10.1984L29.5734 15.0856C28.4602 14.8212 27.3861 14.6873 26.3578 14.6873C25.3294 14.6873 24.6177 14.9256 24.177 15.399C23.7362 15.8724 23.5175 16.7832 23.5175 18.1283V19.9989H28.754V25.5097H23.5175V39.8742C32.6945 38.1831 39.6449 30.1422 39.6449 20.4788C39.6449 9.58466 30.814 0.753753 19.9198 0.753753L19.9133 0.750488Z" fill="black"/>
</svg>
