<svg width="580" height="469" viewBox="0 0 580 469" fill="none" xmlns="http://www.w3.org/2000/svg">
<path d="M251.676 442.705C250.458 442.705 249.285 442.638 248.22 442.475C244.746 441.948 241.182 439.903 239.549 437.506C238.753 436.337 238.447 435.12 238.652 433.966C236.96 432.14 235.57 429.887 234.177 426.725C226.683 423.653 224.606 415.173 224.105 412.223C193.378 404.753 171.688 396.373 159.636 387.319C156.651 386.728 153.304 386.131 149.763 385.504C140.912 383.93 130.885 382.145 122.741 379.756C113.398 377.017 97.5209 353.426 82.1667 330.618C78.5953 325.315 74.9043 319.831 71.415 314.795C60.4915 299.027 49.8407 282.287 45.892 266.674C43.912 258.848 42.9295 251.753 41.9806 244.895C41.0055 237.848 40.0828 231.19 38.17 224.195C36.332 217.471 22.9802 204.541 11.2012 193.138C7.66712 189.712 4.3273 186.48 1.53665 183.638C1.38348 183.482 1.38722 183.233 1.54412 183.081C1.70103 182.929 1.95133 182.932 2.1045 183.088C4.88768 185.923 8.22376 189.152 11.7578 192.574C23.6116 204.052 37.0456 217.059 38.9396 223.991C40.8636 231.038 41.79 237.718 42.7726 244.791C43.7215 251.63 44.7002 258.703 46.669 266.485C50.5841 281.975 61.1939 298.645 72.0763 314.349C75.5693 319.393 79.264 324.878 82.8354 330.184C98.1112 352.877 113.906 376.345 122.973 379.006C131.076 381.385 141.08 383.162 149.908 384.736C153.487 385.374 156.872 385.975 159.887 386.573C159.946 386.584 160.002 386.61 160.047 386.647C172.028 395.683 193.733 404.055 224.55 411.533C224.707 411.57 224.822 411.696 224.849 411.855C225.256 414.442 227.161 423.107 234.625 426.069C234.722 426.106 234.801 426.184 234.842 426.276C236.269 429.553 237.685 431.828 239.43 433.65C239.452 433.672 239.471 433.698 239.486 433.724C247.178 442.827 256.151 439.176 262.334 434.492C262.401 434.441 262.487 434.411 262.573 434.411L268.289 434.426C269.48 434.426 269.988 434.945 270.205 435.379C270.597 436.174 270.269 437.187 269.764 437.843C269.174 438.612 267.915 439.862 265.528 440.738C268.136 441.176 273.881 441.05 286.348 438.942C288.085 438.649 289.799 438.148 291.787 437.565C293.905 436.945 296.307 436.244 299.307 435.632C301.134 435.257 303.185 434.904 305.359 434.53C309.928 433.743 315.106 432.849 318.969 431.59C319.036 431.568 319.107 431.565 319.174 431.579C325.264 432.852 329.351 433.598 333.677 434.389C336.086 434.83 338.578 435.287 341.541 435.854C349.158 437.32 364.576 438.014 373.467 434.86C381.846 431.887 387.88 426.399 395.486 418.969C395.579 418.88 395.71 418.84 395.837 418.862C396.875 419.051 398.041 419.315 399.274 419.593C403.095 420.458 407.855 421.534 412.23 421.114C414.127 420.933 423.542 418.383 431.047 414.531C441.94 408.935 451.418 399.98 461.449 390.503C466.582 385.652 471.887 380.639 477.449 376.059C479.086 374.824 481.148 373.937 483.33 372.998C487.151 371.35 491.485 369.484 495.591 365.16C502.371 358.024 511.427 341.254 516.261 329.167C516.294 329.082 516.358 329.012 516.436 328.967L516.948 328.685C522.735 325.486 532.418 320.131 536.737 310.304C538.702 305.833 540.428 299.598 542.255 293C544.601 284.528 547.257 274.928 551.019 266.89C557.967 252.031 560.538 239.265 559.357 225.505C558.509 215.667 554.052 205.788 549.737 196.233C547.769 191.876 545.736 187.367 544.1 182.973C544.04 182.817 544.089 182.639 544.22 182.532C549.887 177.897 555.58 173.395 561.083 169.039C566.59 164.682 572.283 160.177 577.95 155.542C578.122 155.404 578.369 155.427 578.511 155.597C578.649 155.764 578.626 156.013 578.458 156.154C572.787 160.793 567.09 165.298 561.584 169.658C556.152 173.956 550.537 178.398 544.948 182.966C546.554 187.252 548.542 191.653 550.466 195.913C554.807 205.529 559.294 215.47 560.153 225.442C561.348 239.347 558.756 252.235 551.744 267.227C548.011 275.206 545.363 284.773 543.024 293.215C541.19 299.843 539.456 306.104 537.469 310.627C533.046 320.699 523.213 326.136 517.34 329.383L516.952 329.598C512.073 341.748 502.991 358.532 496.173 365.713C491.952 370.155 487.54 372.055 483.651 373.736C481.421 374.697 479.497 375.529 477.95 376.694C472.421 381.247 467.127 386.253 462.006 391.093C451.93 400.611 442.415 409.603 431.42 415.251C423.826 419.151 414.251 421.734 412.315 421.92C407.81 422.354 402.983 421.263 399.106 420.383C397.963 420.124 396.875 419.879 395.904 419.697C388.537 426.889 382.201 432.622 373.743 435.624C364.71 438.831 349.102 438.133 341.399 436.652C338.444 436.085 335.952 435.628 333.542 435.186C329.238 434.4 325.17 433.654 319.126 432.392C315.218 433.65 310.063 434.541 305.505 435.327C303.338 435.702 301.291 436.055 299.475 436.426C296.509 437.031 294.126 437.728 292.019 438.344C290.009 438.931 288.272 439.439 286.49 439.74C274.427 441.781 266.895 442.271 264.097 441.202C263.865 441.261 263.623 441.317 263.372 441.365C260.567 441.933 255.86 442.738 251.687 442.738L251.676 442.705ZM239.381 434.797C239.407 435.539 239.684 436.296 240.203 437.064C241.697 439.257 245.119 441.206 248.339 441.695C253.118 442.423 260.328 441.143 263.204 440.56C266.779 439.836 268.453 438.241 269.133 437.354C269.548 436.816 269.697 436.129 269.495 435.717C269.286 435.294 268.726 435.205 268.289 435.205L262.707 435.19C256.386 439.94 247.316 443.592 239.381 434.801V434.797ZM312.338 431.561C297.424 431.561 280.094 423.972 276.986 422.027C271.931 420.736 261.829 416.713 257.806 414.906C253.159 412.82 250.88 411.08 250.196 409.083C249.841 408.052 249.946 406.957 250.506 405.825C248.84 402.437 248.679 398.823 250.028 395.082C252.057 389.471 257.518 384.034 263.944 381.236C274.718 376.546 303.753 379.21 315.125 385.901C318.408 384.658 321.759 384.721 326.067 385.226C326.283 385.251 326.44 385.448 326.414 385.663C326.388 385.879 326.194 386.034 325.973 386.009C321.703 385.508 318.42 385.452 315.233 386.706C315.117 386.751 314.986 386.74 314.882 386.676C304.025 380.149 274.696 377.414 264.265 381.96C258.03 384.676 252.733 389.931 250.775 395.349C249.475 398.945 249.654 402.411 251.302 405.651C251.306 405.662 251.309 405.669 251.317 405.68C253.913 411.792 257.944 410.939 265.263 409.395C269.675 408.464 275.159 407.298 282.055 407.347C282.167 407.347 282.276 407.395 282.35 407.48L286.837 412.549C289.87 415.978 289.56 418.235 288.765 419.522C287.341 421.834 283.292 422.766 279.548 422.458C285.649 425.33 302.61 432.095 316.466 430.559C316.686 430.54 316.88 430.692 316.903 430.908C316.925 431.123 316.768 431.32 316.552 431.342C315.177 431.494 313.765 431.565 312.33 431.565L312.338 431.561ZM277.251 421.281C281.14 422.261 286.546 421.612 288.088 419.107C289.03 417.582 288.391 415.492 286.243 413.065L281.876 408.13C281.812 408.13 281.753 408.13 281.689 408.13C275.05 408.13 269.723 409.254 265.431 410.163C258.273 411.677 253.831 412.613 250.962 406.801C250.73 407.514 250.727 408.182 250.947 408.831C251.545 410.575 253.764 412.23 258.131 414.19C262.147 415.993 272.241 420.012 277.232 421.278C277.24 421.278 277.243 421.278 277.251 421.281ZM234.932 424.558H234.924C234.704 424.554 234.532 424.373 234.536 424.157C234.737 414.694 242.571 408.389 249.217 405.866C249.423 405.788 249.651 405.892 249.729 406.092C249.808 406.293 249.703 406.523 249.501 406.601C243.083 409.035 235.522 415.099 235.328 424.172C235.324 424.387 235.145 424.558 234.932 424.558ZM392.886 418.684C392.856 418.684 392.822 418.68 392.788 418.673C389.774 417.93 386.699 417.229 383.449 416.483C372.297 413.934 360.765 411.299 352.281 407.117C340.636 401.376 331.218 389.961 330.184 388.677C329.347 387.641 328.659 386.706 327.998 385.801C327.053 384.513 326.235 383.4 325.271 382.39C325.208 382.327 325.174 382.246 325.163 382.164C320.549 378.175 316.671 373.046 313.029 367.899C311.923 366.333 311.109 365.067 311.546 364.206C311.721 363.865 312.069 363.646 312.58 363.561C312.48 362.945 312.442 362.362 312.472 361.824C312.588 359.79 313.189 357.916 314.213 356.243C313.6 356.016 312.894 355.638 312.42 355.17C310.724 353.504 310.44 350.468 311.62 346.616C312.644 343.28 314.897 337.502 316.458 335.339C318.024 333.175 321.715 331.45 325.626 329.624C329.067 328.017 332.623 326.358 334.846 324.332C334.805 323.619 334.704 322.977 334.64 322.695C334.114 320.64 332.627 318.94 330.221 317.645C324.038 314.312 312.969 314.413 306.514 316.595C295.676 320.257 277.923 333.327 269.783 346.23C269.708 346.349 269.581 346.416 269.436 346.416C261.714 346.23 255.908 349.262 250.29 352.194C248.956 352.892 247.697 353.549 246.412 354.165C243.18 355.712 239.706 357.096 236.351 358.432C232.653 359.902 229.163 361.293 226.175 362.819C225.981 362.919 225.741 362.841 225.641 362.648C225.54 362.455 225.618 362.217 225.812 362.117C228.835 360.573 232.343 359.178 236.056 357.701C239.4 356.369 242.859 354.992 246.068 353.456C247.342 352.847 248.593 352.19 249.92 351.496C255.572 348.542 261.407 345.488 269.226 345.622C277.512 332.641 295.343 319.537 306.256 315.849C312.872 313.615 324.232 313.522 330.598 316.951C333.038 318.265 334.611 319.983 335.283 322.061C336.045 321.82 337.319 321.742 338.231 322.079C338.881 322.321 339.292 322.751 339.415 323.323C339.71 324.673 338.604 326.51 336.934 329.286C336.437 330.114 335.873 331.049 335.283 332.073C334.928 332.689 334.51 333.387 334.035 334.144C360.242 317.159 374.67 312.594 386.931 317.303C393.95 319.998 397.821 324.165 399.535 328.236C408.785 329.75 417.086 335.116 420.729 341.948C421.651 343.681 422.245 345.44 422.514 347.195C430.812 343.273 442.542 342.924 454.833 346.253C455.046 346.308 455.169 346.527 455.113 346.735C455.057 346.943 454.837 347.069 454.627 347.014C442.4 343.703 430.759 344.074 422.619 348.023C422.843 350.416 422.454 352.803 421.457 355.103C422.159 356.744 422.059 358.273 421.162 359.653C417.647 365.056 402.886 366.652 396.057 366.956C396.999 367.212 397.877 367.468 398.672 367.713C398.881 367.776 399.001 367.999 398.934 368.207C398.867 368.415 398.646 368.534 398.437 368.467C390.838 366.129 379.881 364.025 375.432 364.711C375.32 364.726 375.204 364.696 375.118 364.626C374.121 363.806 373.015 362.989 371.827 362.184C371.812 362.177 371.797 362.165 371.782 362.154C360.769 354.706 342.493 348.156 332.866 348.576C321.393 349.058 313.705 354.276 313.272 361.869C313.238 362.425 313.29 363.041 313.421 363.702C317.478 367.112 325.245 368.496 331.495 369.613C333.755 370.018 335.705 370.367 337.218 370.764C339.964 371.484 343.995 381.325 344.925 383.919C345.594 385.782 345.508 387.289 344.675 388.28C344.058 389.018 342.721 389.801 339.844 389.341C335.317 388.621 331.39 386.806 327.89 384.305C328.136 384.635 328.387 384.977 328.648 385.329C329.306 386.227 329.989 387.155 330.811 388.176C331.835 389.445 341.148 400.737 352.643 406.4C361.045 410.542 372.529 413.165 383.636 415.704C386.893 416.446 389.968 417.151 392.99 417.893C393.203 417.945 393.334 418.16 393.282 418.372C393.237 418.55 393.076 418.673 392.897 418.673L392.886 418.684ZM312.909 364.318C312.551 364.344 312.319 364.429 312.252 364.563C311.994 365.067 313.089 366.615 313.675 367.442C320.508 377.102 328.166 386.691 339.96 388.565C341.944 388.881 343.36 388.61 344.055 387.779C344.694 387.014 344.735 385.771 344.167 384.186C342.728 380.167 339.034 372.063 337.005 371.528C335.522 371.139 333.587 370.793 331.342 370.393C325.002 369.261 317.131 367.854 312.909 364.314V364.318ZM388.007 365.086C389.863 365.45 391.716 365.865 393.457 366.292C393.521 366.255 393.584 366.225 393.67 366.233C393.696 366.233 393.719 366.233 393.745 366.233C398.288 366.233 416.724 365.012 420.486 359.23C421.125 358.25 421.278 357.211 420.953 356.068C419.41 358.788 417.392 360.536 414.957 361.267C411.501 362.303 407.283 361.379 402.064 358.428C393.356 360.087 388.511 362.384 388.007 365.082V365.086ZM377.49 363.795C380.139 363.795 383.654 364.262 387.229 364.934C387.816 361.835 392.803 359.379 402.064 357.627C402.158 357.608 402.255 357.627 402.337 357.671C407.343 360.521 411.512 361.479 414.733 360.51C417.18 359.776 419.174 357.898 420.665 354.933C421.659 352.702 422.044 350.391 421.823 348.064C421.808 348.045 421.797 348.023 421.786 348.001C421.73 347.889 421.73 347.763 421.778 347.659C421.554 345.874 420.971 344.082 420.03 342.323C416.559 335.814 408.696 330.67 399.868 329.097C400.387 330.589 400.626 332.055 400.626 333.409C401.863 333.973 402.64 334.738 402.935 335.691C403.256 336.73 402.991 337.914 402.139 339.209C399.614 343.046 392.919 347.522 389.325 349.927C388.761 350.301 388.283 350.621 387.921 350.873L386.665 351.745C382.717 354.495 377.307 358.258 375.01 358.978C374.965 358.993 374.916 359.007 374.868 359.019C374.487 360.158 373.482 361.108 372.682 361.802C373.68 362.496 374.621 363.197 375.492 363.906C376.082 363.828 376.754 363.791 377.498 363.791L377.49 363.795ZM333.766 347.771C343.827 347.771 361.105 354.016 371.999 361.345C372.664 360.774 373.541 359.987 373.967 359.108C372.518 359.048 370.803 358.135 369.817 356.796C368.79 355.393 368.748 353.816 369.712 352.469C372.245 348.917 383.341 341.551 385.541 340.111C385.571 340.093 385.604 340.074 385.642 340.063C387.741 339.417 390.285 339.265 392.527 339.128C394.686 338.998 396.722 338.872 397.727 338.334C399.688 337.28 399.871 335.216 399.827 333.736C399.827 333.721 399.827 333.706 399.827 333.687C399.827 333.687 399.827 333.654 399.827 333.643C399.924 328.581 396.517 321.842 386.647 318.049C374.442 313.362 359.902 318.161 333.019 335.762C331.42 338.244 329.451 341.165 327.524 344.019C326.246 345.911 325.028 347.715 323.997 349.281C326.597 348.442 329.567 347.93 332.832 347.793C333.139 347.778 333.452 347.774 333.774 347.774L333.766 347.771ZM385.929 340.801C383.643 342.301 372.794 349.515 370.362 352.925C369.331 354.369 369.981 355.679 370.463 356.332C371.42 357.634 373.209 358.492 374.468 358.302C374.479 358.302 374.487 358.302 374.498 358.299C374.591 358.284 374.677 358.262 374.763 358.236C376.945 357.549 382.294 353.827 386.202 351.107L387.461 350.231C387.827 349.979 388.309 349.656 388.877 349.277C392.426 346.906 399.035 342.49 401.47 338.783C402.188 337.692 402.423 336.734 402.173 335.929C401.971 335.283 401.455 334.738 400.63 334.296C400.611 335.58 400.312 337.84 398.108 339.027C396.95 339.651 394.925 339.773 392.579 339.918C390.397 340.052 387.932 340.2 385.933 340.805L385.929 340.801ZM335.474 322.825C335.548 323.263 335.623 323.89 335.649 324.484C335.653 324.599 335.608 324.711 335.526 324.788C333.221 326.959 329.53 328.681 325.966 330.347C322.152 332.129 318.55 333.81 317.105 335.81C315.588 337.907 313.387 343.573 312.379 346.858C311.303 350.361 311.523 353.192 312.976 354.617C313.395 355.026 314.097 355.386 314.661 355.571C316.432 353.07 319.204 351.07 322.757 349.719C323.904 347.964 325.338 345.837 326.859 343.585C329.859 339.139 332.963 334.541 334.596 331.695C335.186 330.663 335.754 329.72 336.254 328.893C337.775 326.369 338.869 324.547 338.642 323.501C338.574 323.196 338.35 322.974 337.954 322.829C337.158 322.532 335.993 322.662 335.477 322.833L335.474 322.825ZM226.287 411.967C226.074 411.967 225.895 411.796 225.891 411.581C225.883 411.362 226.059 411.18 226.279 411.176C235.791 410.939 238.869 410.323 247.29 404.827C247.473 404.708 247.719 404.76 247.839 404.938C247.958 405.12 247.91 405.365 247.723 405.484C239.187 411.054 235.836 411.722 226.294 411.959C226.294 411.959 226.287 411.959 226.283 411.959L226.287 411.967ZM298.074 380.023C297.97 380.023 297.865 379.982 297.787 379.9C297.637 379.741 297.645 379.492 297.802 379.344C301.982 375.432 303.611 373.354 309.678 365.632L310.324 364.808C310.459 364.637 310.709 364.607 310.881 364.741C311.053 364.874 311.086 365.123 310.948 365.294L310.302 366.118C304.209 373.881 302.568 375.967 298.343 379.919C298.265 379.989 298.168 380.026 298.071 380.026L298.074 380.023ZM484.712 361.98C484.686 361.98 484.663 361.98 484.645 361.98C484.137 361.965 483.811 361.59 483.61 360.922C480.016 361.75 475.746 360.763 471.812 358.184C467.542 355.382 464.273 351.122 462.603 346.19C458.867 335.15 458.397 321.831 461.247 307.673C464.938 289.349 478.279 279.069 491.108 270.441L496.125 255.482C496.196 255.274 496.42 255.163 496.625 255.234C496.835 255.304 496.947 255.527 496.876 255.731L492.187 269.717C493.106 269.101 494.025 268.497 494.933 267.892C495.116 267.773 495.363 267.821 495.482 267.999C495.605 268.181 495.553 268.426 495.374 268.545C494.163 269.346 492.942 270.155 491.713 270.979C491.679 271.013 491.642 271.039 491.597 271.057C478.88 279.607 465.652 289.783 462.021 307.822C459.2 321.842 459.659 335.02 463.35 345.934C466.78 356.072 476.672 361.702 483.434 360.147C483.247 358.896 483.266 357.07 483.288 354.847C483.303 353.37 483.318 351.841 483.27 350.361C483.158 347.054 482.821 342.393 482.493 337.884C482.026 331.431 481.585 325.334 481.846 323.768C482.317 320.94 487.099 316.676 490.002 314.654C492.927 312.616 496.338 310.509 499.827 311.344C503.275 312.167 506.451 317.619 507.119 321.011C508.247 326.726 507.336 331.383 504.078 336.582C503.891 336.883 503.6 337.339 503.223 337.922C506.492 335.161 509.406 333.316 512.032 331.654C512.913 331.097 513.743 330.57 514.546 330.036C514.729 329.913 514.976 329.962 515.095 330.143C515.218 330.325 515.17 330.57 514.987 330.689C514.176 331.227 513.343 331.758 512.458 332.318C509.29 334.326 505.703 336.597 501.579 340.438C499.79 343.154 497.328 346.817 494.84 350.335C486.894 361.568 485.287 361.98 484.708 361.98H484.712ZM484.293 360.47C484.379 360.911 484.503 361.186 484.671 361.189C484.671 361.189 484.678 361.189 484.682 361.189C486.397 361.189 495.374 348.468 500.899 340.063C500.918 340 500.955 339.944 501.004 339.896L501.011 339.888C501.923 338.497 502.741 337.228 503.406 336.163C506.548 331.145 507.426 326.659 506.342 321.159C505.729 318.046 502.745 312.846 499.644 312.108C496.48 311.351 493.371 313.27 490.461 315.299C487.458 317.392 483.042 321.445 482.631 323.898C482.384 325.371 482.844 331.706 483.288 337.829C483.617 342.345 483.953 347.014 484.066 350.335C484.118 351.834 484.099 353.37 484.084 354.859C484.066 356.521 484.039 358.97 484.252 360.28C484.26 360.299 484.267 360.317 484.271 360.336C484.282 360.38 484.286 360.425 484.286 360.466L484.293 360.47ZM158.34 358.343C157.555 358.343 156.678 358.054 155.736 357.471C151.126 354.61 147.458 350.854 143.569 346.88C143.004 346.305 142.44 345.726 141.865 345.143C141.824 345.102 141.787 345.062 141.745 345.021C141.689 345.01 141.637 344.987 141.589 344.954C140.232 343.996 138.947 343.132 137.662 342.312C133.867 339.888 129.473 337.387 125.229 334.964C118.307 331.019 111.769 327.29 107.604 323.89C98.9741 316.847 95.653 311.685 92.4439 306.694C91.3232 304.953 90.2697 303.309 88.9995 301.602C87.3819 299.424 85.8241 297.056 84.3148 294.767C81.2813 290.154 78.416 285.797 75.9765 284.491C73.2157 283.014 70.567 282.702 67.4999 282.339C66.4688 282.216 65.4041 282.09 64.2572 281.915C64.0405 281.882 63.8911 281.682 63.9247 281.466C63.9584 281.251 64.1601 281.106 64.3768 281.136C65.5087 281.311 66.5697 281.437 67.5933 281.556C70.7389 281.927 73.4585 282.246 76.3501 283.797C78.9689 285.2 81.8865 289.634 84.976 294.332C86.4778 296.615 88.0282 298.975 89.6346 301.135C90.9197 302.864 91.9844 304.519 93.1089 306.271C96.2843 311.21 99.5681 316.316 108.104 323.282C112.218 326.64 118.729 330.351 125.622 334.281C129.877 336.708 134.278 339.217 138.092 341.647C138.604 341.974 139.115 342.308 139.635 342.653C137.423 339.952 135.514 336.89 134.468 334.292C132.062 328.314 133.691 320.669 138.82 313.841C143.965 306.998 149.243 305.669 155.433 309.666C159.05 311.997 164.026 316.346 166.155 320.918C169.82 328.785 164.822 346.171 163.783 349.578C162.599 353.463 161.825 355.334 160.723 357C173.765 356.796 179.204 341.213 179.671 330.559C180.142 319.805 174.015 294.384 168.296 287.486C164.698 283.144 156.323 277.548 149.594 273.05C145.563 270.356 142.085 268.033 140.587 266.604C137.591 263.75 129.862 251.923 127.46 246.516C124.867 240.679 124.658 236.749 125.158 232.296C125.185 232.081 125.379 231.925 125.596 231.947C125.812 231.973 125.969 232.166 125.947 232.381C125.45 236.816 125.655 240.497 128.188 246.197C130.564 251.545 138.189 263.223 141.14 266.032C142.59 267.413 146.042 269.721 150.043 272.393C156.816 276.92 165.244 282.554 168.916 286.981C174.845 294.136 180.957 319.467 180.471 330.592C179.985 341.748 174.146 358.154 160.014 357.783C159.532 358.154 158.968 358.339 158.336 358.339L158.34 358.343ZM148.844 308.211C145.567 308.211 142.537 310.223 139.459 314.316C134.494 320.922 132.907 328.28 135.208 334.003C136.556 337.358 139.392 341.514 142.433 344.594C143.008 345.177 143.576 345.759 144.14 346.334C147.992 350.275 151.63 353.994 156.158 356.807C157.152 357.423 158.979 358.213 160.066 356.573C161.119 354.981 161.867 353.159 163.028 349.355C164.052 345.997 168.983 328.859 165.438 321.256C163.376 316.832 158.527 312.609 155.004 310.334C152.826 308.928 150.79 308.215 148.844 308.215V308.211ZM127.49 154.261C127.303 154.261 127.138 154.131 127.101 153.946C125.831 147.7 124.83 146.056 122.114 142.23C121.834 141.837 120.997 140.705 119.73 138.991C73.6266 76.687 53.1619 43.3327 44.1137 26.3252C44.0128 26.1323 44.0838 25.8948 44.2781 25.7909C44.4724 25.6907 44.7114 25.7612 44.8161 25.9541C53.853 42.9393 74.2954 76.2565 120.373 138.527C121.643 140.245 122.484 141.377 122.768 141.778C125.435 145.541 126.571 147.322 127.886 153.794C127.93 154.009 127.788 154.217 127.576 154.258C127.549 154.261 127.523 154.265 127.497 154.265L127.49 154.261ZM438.22 132.318C438.145 132.318 438.07 132.296 438.003 132.255C437.82 132.136 437.768 131.892 437.887 131.71C442.602 124.477 446.263 120.343 458.651 107.154C463.631 101.851 472.765 93.6573 484.331 83.2814C502.356 67.1089 524.79 46.9843 544.922 25.8614C545.071 25.7018 545.325 25.6981 545.482 25.8465C545.643 25.995 545.65 26.2473 545.497 26.4032C525.343 47.5484 502.898 67.6879 484.861 83.8677C473.31 94.2288 464.187 102.415 459.23 107.692C446.879 120.84 443.233 124.956 438.552 132.136C438.477 132.252 438.35 132.315 438.22 132.315V132.318Z" fill="white"/>
<path d="M481.846 323.768C481.585 325.334 482.026 331.431 482.493 337.884C482.821 342.393 483.158 347.054 483.27 350.361C483.318 351.841 483.303 353.37 483.288 354.847C483.266 357.07 483.247 358.896 483.434 360.147C476.672 361.702 466.78 356.072 463.35 345.934C459.659 335.02 459.2 321.842 462.021 307.822C465.652 289.783 478.88 279.607 491.597 271.057C491.642 271.039 491.679 271.013 491.713 270.979C492.942 270.155 494.163 269.346 495.374 268.545C495.553 268.426 495.605 268.181 495.482 267.999C495.363 267.821 495.116 267.773 494.933 267.892C494.025 268.497 493.106 269.101 492.187 269.717L496.876 255.731C496.947 255.527 496.835 255.304 496.625 255.234C496.42 255.163 496.196 255.274 496.125 255.482L491.108 270.441C478.279 279.069 464.938 289.349 461.247 307.673C458.397 321.831 458.867 335.15 462.603 346.19C464.273 351.122 467.542 355.382 471.812 358.184C475.746 360.763 480.016 361.75 483.61 360.922C483.811 361.59 484.137 361.965 484.645 361.98C484.663 361.98 484.686 361.98 484.712 361.98H484.708C485.287 361.98 486.894 361.568 494.84 350.335C497.328 346.817 499.79 343.154 501.579 340.438C505.703 336.597 509.29 334.326 512.458 332.318C513.343 331.758 514.176 331.227 514.987 330.689C515.17 330.57 515.218 330.325 515.095 330.143C514.976 329.962 514.729 329.913 514.546 330.036C513.743 330.57 512.913 331.097 512.032 331.654C509.406 333.316 506.492 335.161 503.223 337.922C503.6 337.339 503.891 336.883 504.078 336.582C507.336 331.383 508.247 326.726 507.119 321.011C506.451 317.619 503.275 312.167 499.827 311.344C496.338 310.509 492.927 312.616 490.002 314.654C487.099 316.676 482.317 320.94 481.846 323.768ZM481.846 323.768L482.239 323.831M160.066 356.573C158.979 358.213 157.152 357.423 156.158 356.807C151.63 353.994 147.992 350.275 144.14 346.334C143.576 345.759 143.008 345.177 142.433 344.594C139.392 341.514 136.556 337.358 135.208 334.003C132.907 328.28 134.494 320.922 139.459 314.316C142.537 310.223 145.567 308.211 148.844 308.211V308.215C150.79 308.215 152.826 308.928 155.004 310.334C158.527 312.609 163.376 316.832 165.438 321.256C168.983 328.859 164.052 345.997 163.028 349.355C161.867 353.159 161.119 354.981 160.066 356.573ZM160.066 356.573L160.398 356.788M251.676 442.705C250.458 442.705 249.285 442.638 248.22 442.475C244.746 441.948 241.182 439.903 239.549 437.506C238.753 436.337 238.447 435.12 238.652 433.966C236.96 432.14 235.57 429.887 234.177 426.725C226.683 423.653 224.606 415.173 224.105 412.223C193.378 404.753 171.688 396.373 159.636 387.319C156.651 386.728 153.304 386.131 149.763 385.504C140.912 383.93 130.885 382.145 122.741 379.756C113.398 377.017 97.5209 353.426 82.1667 330.618C78.5953 325.315 74.9043 319.831 71.415 314.795C60.4915 299.027 49.8407 282.287 45.892 266.674C43.912 258.848 42.9295 251.753 41.9806 244.895C41.0055 237.848 40.0828 231.19 38.17 224.195C36.332 217.471 22.9802 204.541 11.2012 193.138C7.66712 189.712 4.3273 186.48 1.53665 183.638C1.38348 183.482 1.38722 183.233 1.54412 183.081C1.70103 182.929 1.95133 182.932 2.1045 183.088C4.88768 185.923 8.22376 189.152 11.7578 192.574C23.6116 204.052 37.0456 217.059 38.9396 223.991C40.8636 231.038 41.79 237.718 42.7726 244.791C43.7215 251.63 44.7002 258.703 46.669 266.485C50.5841 281.975 61.1939 298.645 72.0763 314.349C75.5693 319.393 79.264 324.878 82.8354 330.184C98.1112 352.877 113.906 376.345 122.973 379.006C131.076 381.385 141.08 383.162 149.908 384.736C153.487 385.374 156.872 385.975 159.887 386.573C159.946 386.584 160.002 386.61 160.047 386.647C172.028 395.683 193.733 404.055 224.55 411.533C224.707 411.57 224.822 411.696 224.849 411.855C225.256 414.442 227.161 423.107 234.625 426.069C234.722 426.106 234.801 426.184 234.842 426.276C236.269 429.553 237.685 431.828 239.43 433.65C239.452 433.672 239.471 433.698 239.486 433.724C247.178 442.827 256.151 439.176 262.334 434.492C262.401 434.441 262.487 434.411 262.573 434.411L268.289 434.426C269.48 434.426 269.988 434.945 270.205 435.379C270.597 436.174 270.269 437.187 269.764 437.843C269.174 438.612 267.915 439.862 265.528 440.738C268.136 441.176 273.881 441.05 286.348 438.942C288.085 438.649 289.799 438.148 291.787 437.565C293.905 436.945 296.307 436.244 299.307 435.632C301.134 435.257 303.185 434.904 305.359 434.53C309.928 433.743 315.106 432.849 318.969 431.59C319.036 431.568 319.107 431.565 319.174 431.579C325.264 432.852 329.351 433.598 333.677 434.389C336.086 434.83 338.578 435.287 341.541 435.854C349.158 437.32 364.576 438.014 373.467 434.86C381.846 431.887 387.88 426.399 395.486 418.969C395.579 418.88 395.71 418.84 395.837 418.862C396.875 419.051 398.041 419.315 399.274 419.593C403.095 420.458 407.855 421.534 412.23 421.114C414.127 420.933 423.542 418.383 431.047 414.531C441.94 408.935 451.418 399.98 461.449 390.503C466.582 385.652 471.887 380.639 477.449 376.059C479.086 374.824 481.148 373.937 483.33 372.998C487.151 371.35 491.485 369.484 495.591 365.16C502.371 358.024 511.427 341.254 516.261 329.167C516.294 329.082 516.358 329.012 516.436 328.967L516.948 328.685C522.735 325.486 532.418 320.131 536.737 310.304C538.702 305.833 540.428 299.598 542.255 293C544.601 284.528 547.257 274.928 551.019 266.89C557.967 252.031 560.538 239.265 559.357 225.505C558.509 215.667 554.052 205.788 549.737 196.233C547.769 191.876 545.736 187.367 544.1 182.973C544.04 182.817 544.089 182.639 544.22 182.532C549.887 177.897 555.58 173.395 561.083 169.039C566.59 164.682 572.283 160.177 577.95 155.542C578.122 155.404 578.369 155.427 578.511 155.597C578.649 155.764 578.626 156.013 578.458 156.154C572.787 160.793 567.09 165.298 561.584 169.658C556.152 173.956 550.537 178.398 544.948 182.966C546.554 187.252 548.542 191.653 550.466 195.913C554.807 205.529 559.294 215.47 560.153 225.442C561.348 239.347 558.756 252.235 551.744 267.227C548.011 275.206 545.363 284.773 543.024 293.215C541.19 299.843 539.456 306.104 537.469 310.627C533.046 320.699 523.213 326.136 517.34 329.383L516.952 329.598C512.073 341.748 502.991 358.532 496.173 365.713C491.952 370.155 487.54 372.055 483.651 373.736C481.421 374.697 479.497 375.529 477.95 376.694C472.421 381.247 467.127 386.253 462.006 391.093C451.93 400.611 442.415 409.603 431.42 415.251C423.826 419.151 414.251 421.734 412.315 421.92C407.81 422.354 402.983 421.263 399.106 420.383C397.963 420.124 396.875 419.879 395.904 419.697C388.537 426.889 382.201 432.622 373.743 435.624C364.71 438.831 349.102 438.133 341.399 436.652C338.444 436.085 335.952 435.628 333.542 435.186C329.238 434.4 325.17 433.654 319.126 432.392C315.218 433.65 310.063 434.541 305.505 435.327C303.338 435.702 301.291 436.055 299.475 436.426C296.509 437.031 294.126 437.728 292.019 438.344C290.009 438.931 288.272 439.439 286.49 439.74C274.427 441.781 266.895 442.271 264.097 441.202C263.865 441.261 263.623 441.317 263.372 441.365C260.567 441.933 255.86 442.738 251.687 442.738L251.676 442.705ZM239.381 434.797C239.407 435.539 239.684 436.296 240.203 437.064C241.697 439.257 245.119 441.206 248.339 441.695C253.118 442.423 260.328 441.143 263.204 440.56C266.779 439.836 268.453 438.241 269.133 437.354C269.548 436.816 269.697 436.129 269.495 435.717C269.286 435.294 268.726 435.205 268.289 435.205L262.707 435.19C256.386 439.94 247.316 443.592 239.381 434.801V434.797ZM312.338 431.561C297.424 431.561 280.094 423.972 276.986 422.027C271.931 420.736 261.829 416.713 257.806 414.906C253.159 412.82 250.88 411.08 250.196 409.083C249.841 408.052 249.946 406.957 250.506 405.825C248.84 402.437 248.679 398.823 250.028 395.082C252.057 389.471 257.518 384.034 263.944 381.236C274.718 376.546 303.753 379.21 315.125 385.901C318.408 384.658 321.759 384.721 326.067 385.226C326.283 385.251 326.44 385.448 326.414 385.663C326.388 385.879 326.194 386.034 325.973 386.009C321.703 385.508 318.42 385.452 315.233 386.706C315.117 386.751 314.986 386.74 314.882 386.676C304.025 380.149 274.696 377.414 264.265 381.96C258.03 384.676 252.733 389.931 250.775 395.349C249.475 398.945 249.654 402.411 251.302 405.651C251.306 405.662 251.309 405.669 251.317 405.68C253.913 411.792 257.944 410.939 265.263 409.395C269.675 408.464 275.159 407.298 282.055 407.347C282.167 407.347 282.276 407.395 282.35 407.48L286.837 412.549C289.87 415.978 289.56 418.235 288.765 419.522C287.341 421.834 283.292 422.766 279.548 422.458C285.649 425.33 302.61 432.095 316.466 430.559C316.686 430.54 316.88 430.692 316.903 430.908C316.925 431.123 316.768 431.32 316.552 431.342C315.177 431.494 313.765 431.565 312.33 431.565L312.338 431.561ZM277.251 421.281C281.14 422.261 286.546 421.612 288.088 419.107C289.03 417.582 288.391 415.492 286.243 413.065L281.876 408.13C281.812 408.13 281.753 408.13 281.689 408.13C275.05 408.13 269.723 409.254 265.431 410.163C258.273 411.677 253.831 412.613 250.962 406.801C250.73 407.514 250.727 408.182 250.947 408.831C251.545 410.575 253.764 412.23 258.131 414.19C262.147 415.993 272.241 420.012 277.232 421.278C277.24 421.278 277.243 421.278 277.251 421.281ZM234.932 424.558H234.924C234.704 424.554 234.532 424.373 234.536 424.157C234.737 414.694 242.571 408.389 249.217 405.866C249.423 405.788 249.651 405.892 249.729 406.092C249.808 406.293 249.703 406.523 249.501 406.601C243.083 409.035 235.522 415.099 235.328 424.172C235.324 424.387 235.145 424.558 234.932 424.558ZM392.886 418.684C392.856 418.684 392.822 418.68 392.788 418.673C389.774 417.93 386.699 417.229 383.449 416.483C372.297 413.934 360.765 411.299 352.281 407.117C340.636 401.376 331.218 389.961 330.184 388.677C329.347 387.641 328.659 386.706 327.998 385.801C327.053 384.513 326.235 383.4 325.271 382.39C325.208 382.327 325.174 382.246 325.163 382.164C320.549 378.175 316.671 373.046 313.029 367.899C311.923 366.333 311.109 365.067 311.546 364.206C311.721 363.865 312.069 363.646 312.58 363.561C312.48 362.945 312.442 362.362 312.472 361.824C312.588 359.79 313.189 357.916 314.213 356.243C313.6 356.016 312.894 355.638 312.42 355.17C310.724 353.504 310.44 350.468 311.62 346.616C312.644 343.28 314.897 337.502 316.458 335.339C318.024 333.175 321.715 331.45 325.626 329.624C329.067 328.017 332.623 326.358 334.846 324.332C334.805 323.619 334.704 322.977 334.64 322.695C334.114 320.64 332.627 318.94 330.221 317.645C324.038 314.312 312.969 314.413 306.514 316.595C295.676 320.257 277.923 333.327 269.783 346.23C269.708 346.349 269.581 346.416 269.436 346.416C261.714 346.23 255.908 349.262 250.29 352.194C248.956 352.892 247.697 353.549 246.412 354.165C243.18 355.712 239.706 357.096 236.351 358.432C232.653 359.902 229.163 361.293 226.175 362.819C225.981 362.919 225.741 362.841 225.641 362.648C225.54 362.455 225.618 362.217 225.812 362.117C228.835 360.573 232.343 359.178 236.056 357.701C239.4 356.369 242.859 354.992 246.068 353.456C247.342 352.847 248.593 352.19 249.92 351.496C255.572 348.542 261.407 345.488 269.226 345.622C277.512 332.641 295.343 319.537 306.256 315.849C312.872 313.615 324.232 313.522 330.598 316.951C333.038 318.265 334.611 319.983 335.283 322.061C336.045 321.82 337.319 321.742 338.231 322.079C338.881 322.321 339.292 322.751 339.415 323.323C339.71 324.673 338.604 326.51 336.934 329.286C336.437 330.114 335.873 331.049 335.283 332.073C334.928 332.689 334.51 333.387 334.035 334.144C360.242 317.159 374.67 312.594 386.931 317.303C393.95 319.998 397.821 324.165 399.535 328.236C408.785 329.75 417.086 335.116 420.729 341.948C421.651 343.681 422.245 345.44 422.514 347.195C430.812 343.273 442.542 342.924 454.833 346.253C455.046 346.308 455.169 346.527 455.113 346.735C455.057 346.943 454.837 347.069 454.627 347.014C442.4 343.703 430.759 344.074 422.619 348.023C422.843 350.416 422.454 352.803 421.457 355.103C422.159 356.744 422.059 358.273 421.162 359.653C417.647 365.056 402.886 366.652 396.057 366.956C396.999 367.212 397.877 367.468 398.672 367.713C398.881 367.776 399.001 367.999 398.934 368.207C398.867 368.415 398.646 368.534 398.437 368.467C390.838 366.129 379.881 364.025 375.432 364.711C375.32 364.726 375.204 364.696 375.118 364.626C374.121 363.806 373.015 362.989 371.827 362.184C371.812 362.177 371.797 362.165 371.782 362.154C360.769 354.706 342.493 348.156 332.866 348.576C321.393 349.058 313.705 354.276 313.272 361.869C313.238 362.425 313.29 363.041 313.421 363.702C317.478 367.112 325.245 368.496 331.495 369.613C333.755 370.018 335.705 370.367 337.218 370.764C339.964 371.484 343.995 381.325 344.925 383.919C345.594 385.782 345.508 387.289 344.675 388.28C344.058 389.018 342.721 389.801 339.844 389.341C335.317 388.621 331.39 386.806 327.89 384.305C328.136 384.635 328.387 384.977 328.648 385.329C329.306 386.227 329.989 387.155 330.811 388.176C331.835 389.445 341.148 400.737 352.643 406.4C361.045 410.542 372.529 413.165 383.636 415.704C386.893 416.446 389.968 417.151 392.99 417.893C393.203 417.945 393.334 418.16 393.282 418.372C393.237 418.55 393.076 418.673 392.897 418.673L392.886 418.684ZM312.909 364.318C312.551 364.344 312.319 364.429 312.252 364.563C311.994 365.067 313.089 366.615 313.675 367.442C320.508 377.102 328.166 386.691 339.96 388.565C341.944 388.881 343.36 388.61 344.055 387.779C344.694 387.014 344.735 385.771 344.167 384.186C342.728 380.167 339.034 372.063 337.005 371.528C335.522 371.139 333.587 370.793 331.342 370.393C325.002 369.261 317.131 367.854 312.909 364.314V364.318ZM388.007 365.086C389.863 365.45 391.716 365.865 393.457 366.292C393.521 366.255 393.584 366.225 393.67 366.233C393.696 366.233 393.719 366.233 393.745 366.233C398.288 366.233 416.724 365.012 420.486 359.23C421.125 358.25 421.278 357.211 420.953 356.068C419.41 358.788 417.392 360.536 414.957 361.267C411.501 362.303 407.283 361.379 402.064 358.428C393.356 360.087 388.511 362.384 388.007 365.082V365.086ZM377.49 363.795C380.139 363.795 383.654 364.262 387.229 364.934C387.816 361.835 392.803 359.379 402.064 357.627C402.158 357.608 402.255 357.627 402.337 357.671C407.343 360.521 411.512 361.479 414.733 360.51C417.18 359.776 419.174 357.898 420.665 354.933C421.659 352.702 422.044 350.391 421.823 348.064C421.808 348.045 421.797 348.023 421.786 348.001C421.73 347.889 421.73 347.763 421.778 347.659C421.554 345.874 420.971 344.082 420.03 342.323C416.559 335.814 408.696 330.67 399.868 329.097C400.387 330.589 400.626 332.055 400.626 333.409C401.863 333.973 402.64 334.738 402.935 335.691C403.256 336.73 402.991 337.914 402.139 339.209C399.614 343.046 392.919 347.522 389.325 349.927C388.761 350.301 388.283 350.621 387.921 350.873L386.665 351.745C382.717 354.495 377.307 358.258 375.01 358.978C374.965 358.993 374.916 359.007 374.868 359.019C374.487 360.158 373.482 361.108 372.682 361.802C373.68 362.496 374.621 363.197 375.492 363.906C376.082 363.828 376.754 363.791 377.498 363.791L377.49 363.795ZM333.766 347.771C343.827 347.771 361.105 354.016 371.999 361.345C372.664 360.774 373.541 359.987 373.967 359.108C372.518 359.048 370.803 358.135 369.817 356.796C368.79 355.393 368.748 353.816 369.712 352.469C372.245 348.917 383.341 341.551 385.541 340.111C385.571 340.093 385.604 340.074 385.642 340.063C387.741 339.417 390.285 339.265 392.527 339.128C394.686 338.998 396.722 338.872 397.727 338.334C399.688 337.28 399.871 335.216 399.827 333.736C399.827 333.721 399.827 333.706 399.827 333.687C399.827 333.687 399.827 333.654 399.827 333.643C399.924 328.581 396.517 321.842 386.647 318.049C374.442 313.362 359.902 318.161 333.019 335.762C331.42 338.244 329.451 341.165 327.524 344.019C326.246 345.911 325.028 347.715 323.997 349.281C326.597 348.442 329.567 347.93 332.832 347.793C333.139 347.778 333.452 347.774 333.774 347.774L333.766 347.771ZM385.929 340.801C383.643 342.301 372.794 349.515 370.362 352.925C369.331 354.369 369.981 355.679 370.463 356.332C371.42 357.634 373.209 358.492 374.468 358.302C374.479 358.302 374.487 358.302 374.498 358.299C374.591 358.284 374.677 358.262 374.763 358.236C376.945 357.549 382.294 353.827 386.202 351.107L387.461 350.231C387.827 349.979 388.309 349.656 388.877 349.277C392.426 346.906 399.035 342.49 401.47 338.783C402.188 337.692 402.423 336.734 402.173 335.929C401.971 335.283 401.455 334.738 400.63 334.296C400.611 335.58 400.312 337.84 398.108 339.027C396.95 339.651 394.925 339.773 392.579 339.918C390.397 340.052 387.932 340.2 385.933 340.805L385.929 340.801ZM335.474 322.825C335.548 323.263 335.623 323.89 335.649 324.484C335.653 324.599 335.608 324.711 335.526 324.788C333.221 326.959 329.53 328.681 325.966 330.347C322.152 332.129 318.55 333.81 317.105 335.81C315.588 337.907 313.387 343.573 312.379 346.858C311.303 350.361 311.523 353.192 312.976 354.617C313.395 355.026 314.097 355.386 314.661 355.571C316.432 353.07 319.204 351.07 322.757 349.719C323.904 347.964 325.338 345.837 326.859 343.585C329.859 339.139 332.963 334.541 334.596 331.695C335.186 330.663 335.754 329.72 336.254 328.893C337.775 326.369 338.869 324.547 338.642 323.501C338.574 323.196 338.35 322.974 337.954 322.829C337.158 322.532 335.993 322.662 335.477 322.833L335.474 322.825ZM226.287 411.967C226.074 411.967 225.895 411.796 225.891 411.581C225.883 411.362 226.059 411.18 226.279 411.176C235.791 410.939 238.869 410.323 247.29 404.827C247.473 404.708 247.719 404.76 247.839 404.938C247.958 405.12 247.91 405.365 247.723 405.484C239.187 411.054 235.836 411.722 226.294 411.959C226.294 411.959 226.287 411.959 226.283 411.959L226.287 411.967ZM298.074 380.023C297.97 380.023 297.865 379.982 297.787 379.9C297.637 379.741 297.645 379.492 297.802 379.344C301.982 375.432 303.611 373.354 309.678 365.632L310.324 364.808C310.459 364.637 310.709 364.607 310.881 364.741C311.053 364.874 311.086 365.123 310.948 365.294L310.302 366.118C304.209 373.881 302.568 375.967 298.343 379.919C298.265 379.989 298.168 380.026 298.071 380.026L298.074 380.023ZM484.293 360.47C484.379 360.911 484.503 361.186 484.671 361.189C484.671 361.189 484.678 361.189 484.682 361.189C486.397 361.189 495.374 348.468 500.899 340.063C500.918 340 500.955 339.944 501.004 339.896L501.011 339.888C501.923 338.497 502.741 337.228 503.406 336.163C506.548 331.145 507.426 326.659 506.342 321.159C505.729 318.046 502.745 312.846 499.644 312.108C496.48 311.351 493.371 313.27 490.461 315.299C487.458 317.392 483.042 321.445 482.631 323.898C482.384 325.371 482.844 331.706 483.288 337.829C483.617 342.345 483.953 347.014 484.066 350.335C484.118 351.834 484.099 353.37 484.084 354.859C484.066 356.521 484.039 358.97 484.252 360.28C484.26 360.299 484.267 360.317 484.271 360.336C484.282 360.38 484.286 360.425 484.286 360.466L484.293 360.47ZM158.34 358.343C157.555 358.343 156.678 358.054 155.736 357.471C151.126 354.61 147.458 350.854 143.569 346.88C143.004 346.305 142.44 345.726 141.865 345.143C141.824 345.102 141.787 345.062 141.745 345.021C141.689 345.01 141.637 344.987 141.589 344.954C140.232 343.996 138.947 343.132 137.662 342.312C133.867 339.888 129.473 337.387 125.229 334.964C118.307 331.019 111.769 327.29 107.604 323.89C98.9741 316.847 95.653 311.685 92.4439 306.694C91.3232 304.953 90.2697 303.309 88.9995 301.602C87.3819 299.424 85.8241 297.056 84.3148 294.767C81.2813 290.154 78.416 285.797 75.9765 284.491C73.2157 283.014 70.567 282.702 67.4999 282.339C66.4688 282.216 65.4041 282.09 64.2572 281.915C64.0405 281.882 63.8911 281.682 63.9247 281.466C63.9584 281.251 64.1601 281.106 64.3768 281.136C65.5087 281.311 66.5697 281.437 67.5933 281.556C70.7389 281.927 73.4585 282.246 76.3501 283.797C78.9689 285.2 81.8865 289.634 84.976 294.332C86.4778 296.615 88.0282 298.975 89.6346 301.135C90.9197 302.864 91.9844 304.519 93.1089 306.271C96.2843 311.21 99.5681 316.316 108.104 323.282C112.218 326.64 118.729 330.351 125.622 334.281C129.877 336.708 134.278 339.217 138.092 341.647C138.604 341.974 139.115 342.308 139.635 342.653C137.423 339.952 135.514 336.89 134.468 334.292C132.062 328.314 133.691 320.669 138.82 313.841C143.965 306.998 149.243 305.669 155.433 309.666C159.05 311.997 164.026 316.346 166.155 320.918C169.82 328.785 164.822 346.171 163.783 349.578C162.599 353.463 161.825 355.334 160.723 357C173.765 356.796 179.204 341.213 179.671 330.559C180.142 319.805 174.015 294.384 168.296 287.486C164.698 283.144 156.323 277.548 149.594 273.05C145.563 270.356 142.085 268.033 140.587 266.604C137.591 263.75 129.862 251.923 127.46 246.516C124.867 240.679 124.658 236.749 125.158 232.296C125.185 232.081 125.379 231.925 125.596 231.947C125.812 231.973 125.969 232.166 125.947 232.381C125.45 236.816 125.655 240.497 128.188 246.197C130.564 251.545 138.189 263.223 141.14 266.032C142.59 267.413 146.042 269.721 150.043 272.393C156.816 276.92 165.244 282.554 168.916 286.981C174.845 294.136 180.957 319.467 180.471 330.592C179.985 341.748 174.146 358.154 160.014 357.783C159.532 358.154 158.968 358.339 158.336 358.339L158.34 358.343ZM127.49 154.261C127.303 154.261 127.138 154.131 127.101 153.946C125.831 147.7 124.83 146.056 122.114 142.23C121.834 141.837 120.997 140.705 119.73 138.991C73.6266 76.687 53.1619 43.3327 44.1137 26.3252C44.0128 26.1323 44.0838 25.8948 44.2781 25.7909C44.4724 25.6907 44.7114 25.7612 44.8161 25.9541C53.853 42.9393 74.2954 76.2565 120.373 138.527C121.643 140.245 122.484 141.377 122.768 141.778C125.435 145.541 126.571 147.322 127.886 153.794C127.93 154.009 127.788 154.217 127.576 154.258C127.549 154.261 127.523 154.265 127.497 154.265L127.49 154.261ZM438.22 132.318C438.145 132.318 438.07 132.296 438.003 132.255C437.82 132.136 437.768 131.892 437.887 131.71C442.602 124.477 446.263 120.343 458.651 107.154C463.631 101.851 472.765 93.6573 484.331 83.2814C502.356 67.1089 524.79 46.9843 544.922 25.8614C545.071 25.7018 545.325 25.6981 545.482 25.8465C545.643 25.995 545.65 26.2473 545.497 26.4032C525.343 47.5484 502.898 67.6879 484.861 83.8677C473.31 94.2288 464.187 102.415 459.23 107.692C446.879 120.84 443.233 124.956 438.552 132.136C438.477 132.252 438.35 132.315 438.22 132.315V132.318Z" stroke="white" stroke-width="1.31326"/>
</svg>
