<?xml version="1.0" encoding="UTF-8"?>
<svg id="Layer_1" data-name="Layer 1" xmlns="http://www.w3.org/2000/svg" viewBox="0 0 225.54 136.58">
  <defs>
    <style>
      .cls-1 {
        fill: #fff;
      }
    </style>
  </defs>
  <path class="cls-1" d="M37.54,108.89c8.07,2.33,16.28,4.15,24.58,5.48,8.24,1.32,16.55,2.2,24.88,2.8,7.29,.53,15.11,.62,21.8-2.76,2.9-1.46,5.33-3.57,6.91-6.43,1.39-2.5,2.17-5.59,1.29-8.4-.97-3.1-3.77-5-6.87-5.54-3.57-.63-7.24,.04-10.79,.48-1.07,.13-2.15,.26-3.22,.4l.65,.65c.45-4.28,2.6-8.14,3.34-12.36,.35-2,.37-4.05-.22-6.01-.56-1.84-1.6-3.5-2.91-4.89-2.9-3.08-6.93-4.67-11.03-5.4-2.27-.4-4.59-.59-6.89-.69-1.7-.08-3.41-.05-5.1,.18-3.69,.49-7.42,1.97-8.95,5.61-.14,.33,.15,.71,.45,.8,.37,.11,.66-.13,.8-.45,1.2-2.86,4.28-4.08,7.14-4.57,1.61-.28,3.25-.34,4.88-.3,2.04,.05,4.09,.2,6.1,.48,3.96,.55,7.96,1.77,10.96,4.54,1.3,1.2,2.41,2.66,3.05,4.32,.67,1.75,.81,3.63,.55,5.48-.62,4.55-2.99,8.66-3.47,13.25-.03,.32,.33,.69,.65,.65,2.09-.26,4.18-.51,6.27-.77,1.65-.2,3.31-.37,4.98-.35,2.97,.04,6.21,.83,7.82,3.58,1.36,2.31,.99,5.23-.06,7.58-1.23,2.76-3.29,4.94-5.89,6.45-6.23,3.6-13.78,3.7-20.76,3.27-8.02-.49-16.05-1.34-23.99-2.54-7.96-1.21-15.84-2.83-23.61-4.95-1-.27-1.99-.55-2.99-.84-.8-.23-1.15,1.02-.35,1.25h0Z"/>
  <path class="cls-1" d="M37.89,107.64c-11.63-3.83-15.86-17.65-15.27-28.75,.69-12.93,6.72-25.2,14.83-35.07,8.49-10.33,19.33-18.61,30.96-25.1,13.15-7.34,27.53-12.73,42.35-15.49,14.96-2.78,30.57-2.72,45.28,1.41,12.54,3.51,24.05,10.26,33.3,19.42s15.85,20.13,18.66,32.53c2.9,12.8,1.1,26.29-5.75,37.56-5.94,9.77-15.9,17.9-27.69,18.54-4.45,.24-9.06-.63-12.74-3.24-4.06-2.88-6.17-7.58-6.68-12.43-.19-1.77-.19-3.52,.2-5.27,.43-1.92,1.17-3.74,1.91-5.56,.32-.77-.94-1.11-1.25-.35-.8,1.97-1.61,3.96-2.02,6.06-.34,1.78-.32,3.57-.11,5.36,.3,2.62,.98,5.19,2.22,7.53,2.17,4.11,5.98,7.01,10.41,8.32,10.38,3.08,21.55-1.6,29.12-8.69,9.9-9.27,15.27-23,15.06-36.47-.2-13.04-5.11-25.64-12.83-36.06-7.87-10.62-18.55-19.17-30.61-24.59C153.42,1.09,137.89-.84,122.87,.32c-15.87,1.23-31.38,5.8-45.78,12.51-12.72,5.93-24.74,13.67-34.69,23.61-9.45,9.44-17.04,21.09-19.92,34.26-1.35,6.17-1.65,12.5-.32,18.7,1.23,5.71,3.83,11.39,8.23,15.35,2.08,1.87,4.5,3.27,7.15,4.14,.8,.26,1.14-.99,.35-1.25h0Z"/>
  <path class="cls-1" d="M174.13,79.74c-1.71,1.4-1.99,3.87-1.31,5.88,.8,2.37,2.8,3.87,5.05,4.78,1.34,.54,2.76,.87,4.18,1.14,.82,.16,1.17-1.09,.35-1.25-2.17-.42-4.42-.95-6.24-2.28-1.55-1.13-2.51-2.93-2.37-4.87,.07-.98,.5-1.85,1.26-2.48,.27-.22,.23-.69,0-.92-.27-.27-.65-.22-.92,0h0Z"/>
  <path class="cls-1" d="M116.38,85.64c7.03-5.25,15.77-8.03,24.54-7.89,2.45,.04,4.89,.31,7.28,.81,.82,.17,1.16-1.08,.35-1.25-8.82-1.85-18.16-.64-26.28,3.26-2.3,1.1-4.49,2.43-6.54,3.96-.28,.21-.42,.56-.23,.89,.16,.28,.61,.44,.89,.23h0Z"/>
  <path class="cls-1" d="M19.32,61.55c-5.85,1.61-9.68,6.87-12.35,11.99-3.08,5.9-5.31,12.29-6.34,18.87-1.02,6.52-.87,13.25,.96,19.61,1.62,5.65,4.6,10.79,8.75,14.96,3.94,3.96,8.87,7.04,14.26,8.56,2.65,.75,5.43,1.12,8.19,1.02,2.77-.1,5.61-.6,8.12-1.84s4.59-3.32,4.92-6.17c.34-2.99-1.51-5.8-3.77-7.58-2.64-2.07-5.97-2.84-9.15-3.66-1.59-.41-3.19-.85-4.7-1.49-1.28-.54-2.5-1.2-3.66-1.96-4.65-3.04-8.23-7.75-9.9-13.05-2.11-6.69-.67-13.66,1.46-20.16,.56-1.7,1.16-3.38,1.77-5.07,.28-.79-.97-1.13-1.25-.35-2.41,6.69-4.91,13.73-4.22,20.96,.53,5.55,3.03,10.8,6.83,14.86,1.88,2.01,4.09,3.72,6.52,5.01,2.77,1.47,5.78,2.18,8.79,2.99,3.04,.81,6.06,1.86,8.17,4.3,1.78,2.05,2.54,4.92,1.02,7.33-1.4,2.21-4.09,3.38-6.54,3.96-2.61,.62-5.33,.74-7.99,.45-5.33-.58-10.41-2.89-14.63-6.15-4.34-3.35-7.87-7.77-10.1-12.77-2.58-5.79-3.45-12.27-3.1-18.56,.36-6.46,2.01-12.85,4.53-18.8,1.2-2.84,2.58-5.64,4.28-8.22,1.55-2.36,3.43-4.59,5.81-6.15,1.14-.75,2.37-1.32,3.69-1.68,.8-.22,.46-1.47-.35-1.25h0Z"/>
  <path class="cls-1" d="M171.3,50.48c-7.31,4.86-12.72,12.42-15,20.89-.28,1.06-.52,2.13-.7,3.21-.2,1.21-.39,2.5,.04,3.69,.6,1.64,2.09,2.55,3.77,2.78,1.81,.25,3.7-.09,5.4-.72,2.15-.81,4.23-1.84,6.22-2.97,4.64-2.63,8.86-6.01,12.43-9.97,.56-.62-.36-1.54-.92-.92-3.03,3.35-6.5,6.28-10.33,8.67-1.89,1.19-3.87,2.24-5.91,3.16-1.65,.74-3.33,1.41-5.15,1.52-1.36,.08-3.05-.08-3.92-1.27-.59-.81-.61-1.83-.51-2.79,.12-1.06,.35-2.11,.6-3.15,.96-4,2.65-7.81,4.92-11.23,2.55-3.85,5.86-7.21,9.72-9.77,.69-.46,.04-1.59-.66-1.12h0Z"/>
  <path class="cls-1" d="M206.01,91.53c-1.67,3.95,.9,8.27,4.54,10.02,1.92,.92,4.03,1.08,6.08,.49,2.05-.6,3.88-1.87,5.28-3.47,1.43-1.63,2.49-3.59,3.07-5.69,.71-2.56,.69-5.27,.3-7.87-.41-2.77-1.28-5.45-2.3-8.04-.97-2.44-2.06-4.84-3.28-7.17-2.44-4.67-5.38-9.07-8.74-13.13-.41-.5-.83-.99-1.26-1.48-.55-.63-1.47,.29-.92,.92,3.24,3.72,6.11,7.76,8.55,12.05,2.47,4.34,4.67,8.98,5.99,13.81,1.23,4.48,1.53,9.47-.86,13.63-1.83,3.19-5.48,6.14-9.4,5.42-3.74-.68-7.58-4.88-5.91-8.83,.14-.33,.1-.69-.23-.89-.27-.16-.75-.09-.89,.23h0Z"/>
</svg>