<svg width="28" height="29" viewBox="0 0 28 29" fill="none" xmlns="http://www.w3.org/2000/svg">
<path d="M21.2163 16.3946C20.3024 18.2462 19.0655 20.0923 17.7982 21.7489C16.5349 23.4003 15.2672 24.8299 14.3138 25.8478C14.1871 25.983 14.0661 26.1108 13.9516 26.2307C13.8371 26.1108 13.7161 25.983 13.5894 25.8478C12.636 24.8299 11.3684 23.4003 10.105 21.7489C8.83773 20.0923 7.6008 18.2462 6.68697 16.3946C5.76371 14.524 5.23217 12.7711 5.23217 11.268C5.23217 6.4524 9.136 2.54858 13.9516 2.54858C18.7672 2.54858 22.6711 6.4524 22.6711 11.268C22.6711 12.7711 22.1395 14.524 21.2163 16.3946ZM13.9516 28.7069C13.9516 28.7069 24.4149 18.7906 24.4149 11.268C24.4149 5.48928 19.7304 0.804688 13.9516 0.804688C8.17287 0.804688 3.48828 5.48928 3.48828 11.268C3.48828 18.7906 13.9516 28.7069 13.9516 28.7069Z" fill="white"/>
<path d="M13.9516 14.7558C12.0254 14.7558 10.4638 13.1943 10.4638 11.268C10.4638 9.34177 12.0254 7.78024 13.9516 7.78024C15.8779 7.78024 17.4394 9.34177 17.4394 11.268C17.4394 13.1943 15.8779 14.7558 13.9516 14.7558ZM13.9516 16.4997C16.841 16.4997 19.1833 14.1574 19.1833 11.268C19.1833 8.37865 16.841 6.03635 13.9516 6.03635C11.0622 6.03635 8.71995 8.37865 8.71995 11.268C8.71995 14.1574 11.0622 16.4997 13.9516 16.4997Z" fill="white"/>
</svg>
