<svg width="33" height="32" viewBox="0 0 33 32" fill="none" xmlns="http://www.w3.org/2000/svg">
<path d="M19.491 0.142578C23.378 0.142578 26.4792 1.25074 28.7959 3.46424C31.1112 5.67915 32.2702 8.63189 32.2702 12.3196C32.2702 16.0074 31.1027 18.9912 28.7662 21.1863C26.4297 23.3815 23.2848 24.4783 19.3299 24.4783C17.6507 24.4783 16.1029 24.2734 14.688 23.862C13.2731 23.4521 11.936 22.8288 10.6752 21.9934V31.3845H0.273438V0.142578H19.491Z" fill="#1E3932"/>
<path d="M8.65695 16.8682C9.54885 17.1254 10.4577 17.3261 11.3751 17.4731C12.2839 17.6187 13.1999 17.7148 14.1186 17.7799C14.9186 17.8364 15.7766 17.8421 16.5074 17.4647C16.8226 17.3021 17.0869 17.0661 17.2551 16.7509C17.4007 16.4781 17.4827 16.1431 17.3851 15.8406C17.2777 15.507 16.9752 15.3006 16.6402 15.2399C16.2459 15.1678 15.8388 15.2427 15.4473 15.2907C15.33 15.3049 15.2112 15.319 15.0939 15.3346L15.1646 15.4052C15.2155 14.9303 15.4558 14.5034 15.5335 14.0342C15.5702 13.8179 15.5717 13.5946 15.5052 13.3826C15.443 13.1833 15.33 13.0023 15.1872 12.8497C14.8692 12.5104 14.4253 12.3366 13.9758 12.2574C13.7285 12.2136 13.4755 12.1938 13.2253 12.1811C13.0387 12.1726 12.8507 12.1755 12.6641 12.1995C12.2698 12.2504 11.8486 12.4073 11.6818 12.8002C11.6464 12.8836 11.7694 12.9571 11.8048 12.8723C11.9419 12.5486 12.2698 12.4087 12.5977 12.3521C12.9878 12.2857 13.4062 12.3182 13.7949 12.3719C14.2345 12.4327 14.6783 12.567 15.0105 12.8751C15.1533 13.008 15.2734 13.1677 15.3441 13.35C15.4204 13.5493 15.4317 13.7642 15.3992 13.9734C15.3243 14.4639 15.0741 14.9091 15.0218 15.4052C15.0176 15.4406 15.0572 15.4816 15.0925 15.4759C15.4967 15.4264 15.9067 15.3487 16.3151 15.3529C16.6487 15.3558 17.0134 15.442 17.1915 15.7529C17.3427 16.0159 17.2904 16.3466 17.1661 16.6095C17.0205 16.9176 16.783 17.1509 16.4848 17.3134C15.8006 17.688 14.9808 17.6922 14.2218 17.6442C13.3426 17.589 12.4634 17.4958 11.5927 17.3629C10.6146 17.2131 9.64497 17.0053 8.6937 16.7297C8.60466 16.7042 8.56791 16.8413 8.65554 16.8668L8.65695 16.8682Z" fill="white"/>
<path d="M8.69439 16.7295C7.41661 16.3083 6.95158 14.7902 7.0166 13.5704C7.09151 12.1499 7.75443 10.8028 8.64633 9.71728C9.57923 8.58227 10.7694 7.6734 12.0486 6.9596C13.4931 6.15251 15.0734 5.56026 16.7003 5.25778C18.3442 4.95247 20.0587 4.95954 21.6743 5.41185C23.051 5.79773 24.3161 6.53839 25.3324 7.54619C26.319 8.52431 27.0738 9.75686 27.3819 11.1194C27.7013 12.5259 27.5035 14.0072 26.7501 15.2468C26.0971 16.3196 25.003 17.2129 23.7083 17.2836C23.2192 17.3105 22.7132 17.2143 22.309 16.9274C21.8623 16.6108 21.6305 16.0949 21.5754 15.562C21.5556 15.3669 21.5542 15.1747 21.5966 14.9825C21.6432 14.7719 21.7252 14.5711 21.8072 14.3718C21.8425 14.287 21.704 14.2503 21.6701 14.3337C21.5824 14.5499 21.4934 14.769 21.4481 14.9994C21.41 15.1945 21.4128 15.391 21.4354 15.5888C21.4679 15.8758 21.5429 16.1585 21.6785 16.4157C21.9174 16.868 22.3358 17.1861 22.822 17.3302C23.9627 17.6695 25.1896 17.155 26.0207 16.3761C27.1077 15.3584 27.6985 13.8489 27.6745 12.369C27.6519 10.9357 27.1133 9.55191 26.2653 8.407C25.4002 7.24088 24.227 6.30092 22.9026 5.70585C21.3845 5.02456 19.6785 4.81254 18.029 4.93975C16.2847 5.07544 14.5815 5.57723 12.9998 6.31364C11.6033 6.96525 10.2831 7.81475 9.18911 8.90736C8.15021 9.94485 7.31767 11.224 7.00105 12.6714C6.85264 13.3499 6.81871 14.0439 6.96572 14.7252C7.1 15.3528 7.38552 15.9761 7.87034 16.4115C8.09932 16.6164 8.36505 16.7705 8.65623 16.8666C8.74386 16.8949 8.78061 16.7578 8.69439 16.7295Z" fill="white"/>
<path d="M23.6584 13.6649C23.4139 13.8671 23.4365 14.2501 23.6047 14.4932C23.8111 14.7915 24.1913 14.8947 24.5291 14.9611C24.6182 14.9781 24.6577 14.8409 24.5673 14.824C24.2775 14.7674 23.9369 14.6897 23.7446 14.4452C23.5934 14.2529 23.5552 13.9349 23.7588 13.7667C23.8294 13.7088 23.7277 13.6084 23.6584 13.6664V13.6649Z" fill="white"/>
<path d="M17.3195 14.314C18.0899 13.7402 19.044 13.4348 20.0037 13.4476C20.2765 13.4504 20.5479 13.4801 20.8165 13.5366C20.9055 13.555 20.9451 13.4179 20.8546 13.3995C19.8836 13.1974 18.8574 13.3288 17.9641 13.7585C17.7125 13.8801 17.4736 14.0243 17.2489 14.1925C17.1768 14.2462 17.2475 14.3706 17.321 14.3154L17.3195 14.314Z" fill="white"/>
<path d="M6.65434 11.6665C6.01404 11.8446 5.59565 12.4156 5.30024 12.9768C4.95959 13.6256 4.71365 14.3295 4.60057 15.0546C4.48891 15.7698 4.50445 16.5091 4.70375 17.2073C4.88185 17.8307 5.20978 18.396 5.66774 18.8568C6.09744 19.2879 6.63314 19.6244 7.21973 19.7926C7.78936 19.9565 8.46217 19.9749 9.00777 19.7148C9.26927 19.5904 9.50814 19.3728 9.55762 19.0745C9.61133 18.7537 9.43888 18.4469 9.20283 18.242C8.93003 18.0045 8.57808 17.907 8.23461 17.8179C7.89537 17.7303 7.57027 17.6328 7.27062 17.4462C6.74622 17.1183 6.33914 16.6009 6.14549 16.0129C5.90096 15.2709 6.05786 14.4977 6.29391 13.774C6.3561 13.5846 6.42254 13.398 6.49038 13.2114C6.52148 13.1252 6.38437 13.087 6.35328 13.1733C6.08896 13.9054 5.81474 14.6772 5.88824 15.4702C5.94337 16.0652 6.20486 16.6278 6.60346 17.0702C6.80417 17.2935 7.04305 17.4858 7.30454 17.6314C7.59996 17.7967 7.9194 17.883 8.2445 17.9678C8.57525 18.054 8.91731 18.1529 9.16467 18.4031C9.38235 18.6236 9.51097 18.9515 9.34701 19.2413C9.20142 19.4971 8.90035 19.6328 8.62614 19.6993C8.35192 19.7657 8.04661 19.7841 7.75544 19.7544C7.16743 19.695 6.60487 19.442 6.13843 19.0858C5.66209 18.7226 5.2748 18.2406 5.02744 17.695C4.73768 17.0575 4.63873 16.3394 4.6769 15.644C4.71506 14.9345 4.89457 14.2348 5.1702 13.5818C5.30165 13.2694 5.45289 12.9612 5.63947 12.6757C5.80909 12.4156 6.01546 12.1683 6.27695 11.9958C6.40416 11.911 6.54127 11.8474 6.68827 11.8079C6.77732 11.7838 6.73915 11.6453 6.6501 11.6707L6.65434 11.6665Z" fill="white"/>
<path d="M23.3503 10.4511C22.5432 10.9896 21.9453 11.825 21.6979 12.7635C21.6683 12.8766 21.6428 12.9911 21.6244 13.1056C21.6032 13.2371 21.5835 13.3756 21.6301 13.5042C21.6937 13.6809 21.8548 13.7812 22.0358 13.8081C22.2308 13.8378 22.4372 13.8025 22.6209 13.736C22.8584 13.6512 23.0874 13.5353 23.3065 13.4109C23.8224 13.1212 24.2903 12.7466 24.6874 12.307C24.7482 12.2392 24.6479 12.1374 24.5871 12.2066C24.2592 12.5699 23.8832 12.8865 23.4704 13.148C23.2669 13.2766 23.0535 13.3925 22.8344 13.4929C22.6506 13.5777 22.4612 13.6554 22.2577 13.6724C22.1036 13.6851 21.9086 13.671 21.8082 13.5353C21.7375 13.4406 21.7389 13.3162 21.7545 13.2046C21.77 13.0929 21.7941 12.977 21.8209 12.8653C21.9283 12.4314 22.1121 12.0172 22.3594 11.6455C22.6393 11.2229 23.0026 10.8568 23.4238 10.5755C23.5001 10.5246 23.428 10.4016 23.3517 10.4525L23.3503 10.4511Z" fill="white"/>
<path d="M27.1582 14.9782C26.9815 15.4022 27.2741 15.8715 27.6586 16.0581C28.0939 16.2715 28.5844 16.0934 28.8968 15.7499C29.7152 14.8481 29.1569 13.5082 28.6749 12.5852C28.3724 12.0042 27.9992 11.4601 27.5681 10.9668C27.5073 10.8975 27.407 10.9993 27.4678 11.0671C27.8197 11.47 28.1307 11.9081 28.3964 12.3717C28.6622 12.8354 28.9067 13.3499 29.0565 13.8757C29.1964 14.3704 29.2403 14.9259 28.9802 15.3895C28.7809 15.7471 28.3823 16.0736 27.9469 16.003C27.513 15.9309 27.1116 15.4574 27.2967 15.0149C27.3321 14.9301 27.1936 14.8934 27.1596 14.9768L27.1582 14.9782Z" fill="white"/>
</svg>
