<svg width="12" height="11" viewBox="0 0 12 11" fill="none" xmlns="http://www.w3.org/2000/svg">
<path d="M10.4887 9.63581V1.40481C10.4887 1.26281 10.5364 1.14381 10.6317 1.04781C10.7277 0.951809 10.8467 0.903809 10.9887 0.903809C11.1307 0.903809 11.2494 0.951809 11.3447 1.04781C11.44 1.14381 11.4877 1.26248 11.4877 1.40381V9.63481C11.4877 9.77681 11.4397 9.89581 11.3437 9.99181C11.2477 10.0878 11.129 10.1355 10.9877 10.1348C10.8464 10.1341 10.7277 10.0865 10.6317 9.99181C10.5357 9.89714 10.4877 9.77814 10.4877 9.63481M0.949707 8.62481V2.41481C0.949707 2.17214 1.03037 1.97681 1.19171 1.82881C1.35371 1.68081 1.54237 1.60681 1.75771 1.60681C1.84104 1.60681 1.91971 1.61481 1.99371 1.63081C2.06771 1.64681 2.14004 1.68214 2.21071 1.73681L6.87271 4.84881C6.99737 4.93548 7.08737 5.03381 7.14271 5.14381C7.19804 5.25381 7.22604 5.37914 7.22671 5.51981C7.22737 5.66048 7.19937 5.78581 7.14271 5.89581C7.08737 6.00514 6.99737 6.10347 6.87271 6.19081L2.21071 9.30281C2.14071 9.35614 2.06837 9.39148 1.99371 9.40881C1.91904 9.42614 1.84004 9.43447 1.75671 9.43381C1.54137 9.43381 1.35304 9.35948 1.19171 9.21081C1.03037 9.06281 0.949707 8.86781 0.949707 8.62581M1.94971 8.26981L6.07871 5.51981L1.94871 2.76981L1.94971 8.26981Z" fill="#5F5F5F" fill-opacity="0.5"/>
</svg>
