<svg width="44" height="44" viewBox="0 0 44 44" fill="none" xmlns="http://www.w3.org/2000/svg">
<path d="M28.8026 0.497516C28.7915 0.508598 28.6585 0.523373 28.5034 0.534454C27.8828 0.575086 26.9594 0.951855 26.2945 1.43205C25.9103 1.70909 25.2713 2.28901 25.0349 2.57713C24.6951 2.98345 24.4254 3.33806 24.3553 3.46365C24.322 3.52275 24.2186 3.68528 24.1262 3.82933C24.0339 3.9697 23.9268 4.15439 23.8861 4.23565C23.8455 4.31692 23.7938 4.41665 23.7679 4.46098C23.5389 4.85621 23.14 5.84246 22.9479 6.48888C22.6376 7.53792 22.4788 8.65714 22.4751 9.83178C22.4677 11.4201 22.7743 12.857 23.3838 14.1166C23.7864 14.9477 24.4476 15.7714 25.0534 16.1999C25.3304 16.392 25.9399 16.7392 26.0064 16.7392C26.0322 16.7392 26.0692 16.754 26.0913 16.7724C26.1246 16.8057 26.5605 16.9387 26.7525 16.9793C26.8153 16.9904 27.048 17.0089 27.2771 17.0236C28.906 17.1123 30.5387 16.1962 31.8352 14.4675C32.8658 13.0934 33.6784 10.9879 33.8631 9.2223C33.8816 9.03761 33.9038 8.83075 33.9148 8.76057C33.9259 8.69039 33.9444 8.29885 33.9555 7.89253C33.9776 7.17223 33.9296 6.37437 33.8299 5.86093C33.8114 5.7575 33.7745 5.56912 33.7523 5.43614C33.5344 4.2652 33.0025 3.09057 32.2637 2.15604C31.6542 1.38403 30.7677 0.815184 29.7741 0.560311C29.6152 0.519679 28.8322 0.467966 28.8026 0.497516Z" fill="white"/>
<path d="M13.801 0.831986C12.7002 1.07947 11.8285 1.64093 11.1562 2.53114C10.9641 2.78601 10.5874 3.37333 10.5874 3.41765C10.5874 3.42504 10.5394 3.53586 10.4803 3.66514C10.1441 4.39651 9.89663 5.33843 9.81906 6.20648C9.76735 6.75686 9.7969 8.30457 9.86339 8.75521C10.0185 9.7784 10.3288 10.8939 10.713 11.7989C11.0232 12.534 11.6844 13.6717 12.0686 14.1334C12.1388 14.2147 12.2459 14.3476 12.305 14.4289C12.4971 14.6764 13.1398 15.3006 13.5055 15.5888C13.8268 15.8436 14.2553 16.1428 14.296 16.1428C14.307 16.1428 14.3883 16.1909 14.477 16.25C14.5619 16.3127 14.7023 16.3829 14.7835 16.4125C14.8611 16.442 15.0421 16.5085 15.1862 16.5639C15.8991 16.8299 16.6452 16.9222 17.4209 16.8373C18.0452 16.7671 18.9132 16.3682 19.4377 15.9101C20.3132 15.1455 20.8672 14.211 21.2588 12.8369C21.4065 12.305 21.5174 11.5847 21.5469 10.953C21.5543 10.6871 21.5654 10.4544 21.5654 10.4359C21.5728 10.2918 21.5137 9.30928 21.4804 9.06918C21.4472 8.81431 21.3364 8.14204 21.2846 7.87608C21.2366 7.65076 21.0113 6.9083 20.8488 6.44658C20.5348 5.56745 20.11 4.72896 19.4932 3.78703C19.3713 3.60234 18.843 2.96331 18.5808 2.68997C17.9122 1.98815 16.9666 1.34173 16.202 1.0647C15.622 0.854149 15.3561 0.809824 14.6875 0.791355C14.2073 0.780273 13.9783 0.791355 13.801 0.831986Z" fill="white"/>
<path d="M38.3063 10.5934C37.3238 10.7227 36.3671 11.2325 35.4695 12.1042C35.3291 12.2372 35.0816 12.5105 34.9228 12.71C34.7603 12.9132 34.6088 13.0941 34.5904 13.1163C34.546 13.168 34.2764 13.5854 34.1545 13.7886C33.593 14.7342 33.0131 16.1268 32.821 16.9837C32.3999 18.8823 32.3667 19.1483 32.3667 20.6591C32.3704 21.9297 32.4036 22.2843 32.6216 23.3001C32.6733 23.5329 32.7213 23.7656 32.7324 23.8173C32.8173 24.2531 33.2126 25.3207 33.4379 25.7381C34.0843 26.9275 34.6864 27.5702 35.6283 28.091C36.1196 28.3644 36.9101 28.538 37.442 28.4936C38.4061 28.4124 39.3406 27.9839 40.2234 27.2156C40.4746 26.9976 40.9622 26.4584 41.2245 26.1074C41.3242 25.9745 41.4202 25.8489 41.435 25.8304C41.6271 25.5903 42.0962 24.737 42.3806 24.1128C42.5801 23.6769 42.9014 22.7941 42.9827 22.469C42.9975 22.4062 43.0566 22.1661 43.1194 21.9334C43.2524 21.4237 43.3225 21.0469 43.4186 20.382C43.522 19.658 43.5331 19.4955 43.5331 18.4022C43.5368 17.2017 43.4888 16.6956 43.2634 15.5616C43.1933 15.1959 42.9014 14.2688 42.7574 13.9363C42.6724 13.7443 42.3104 12.9981 42.2476 12.8984C41.9817 12.444 41.3944 11.7422 41.0398 11.4504C40.6962 11.1697 39.8356 10.7043 39.6583 10.7043C39.6176 10.7043 39.577 10.6895 39.5659 10.6747C39.5549 10.6562 39.4921 10.6415 39.4256 10.6378C39.3591 10.6341 39.215 10.6156 39.1042 10.5934C38.8826 10.5528 38.6351 10.5528 38.3063 10.5934Z" fill="white"/>
<path d="M5.08626 11.4762C4.04091 11.6387 3.37233 11.9822 2.62987 12.7321C2.21247 13.1532 1.89111 13.5927 1.63993 14.084C1.55867 14.2354 1.4811 14.3758 1.46263 14.3943C1.44416 14.4164 1.42939 14.4534 1.42939 14.4792C1.42939 14.5088 1.39614 14.6011 1.35182 14.6861C1.31118 14.771 1.27055 14.8671 1.26316 14.9003C1.25578 14.9336 1.20037 15.1257 1.13757 15.3251C0.997209 15.7905 0.963965 15.9383 0.853151 16.6143C0.775581 17.1018 0.764499 17.2828 0.768193 18.0918C0.768193 18.6459 0.790356 19.2073 0.8236 19.4954C0.938108 20.478 1.32226 21.8927 1.7212 22.7718C2.17184 23.7729 2.50059 24.3417 3.06574 25.0989C4.19236 26.606 5.67727 27.6181 7.16957 27.8878C7.88986 28.0171 8.5806 27.9653 9.30828 27.7289C10.1468 27.4519 11.0407 26.7242 11.6021 25.8599C12.2559 24.8515 12.629 23.7212 12.7879 22.2843C12.81 22.0737 12.81 20.6442 12.7842 20.3265C12.7583 19.9904 12.6623 19.3181 12.5995 19.0411C12.5736 18.9155 12.5404 18.7567 12.5293 18.6902C12.5071 18.5609 12.2966 17.8443 12.1599 17.4269C11.9567 16.8137 11.4765 15.8053 11.0961 15.1921C10.9077 14.8893 10.3906 14.1394 10.3315 14.084C10.3204 14.0729 10.2354 13.9732 10.1431 13.8624C9.7146 13.3563 9.18269 12.865 8.65078 12.492C8.25185 12.2112 7.36903 11.7532 7.13632 11.7052C7.11785 11.6978 6.98488 11.6609 6.84082 11.6202C6.29044 11.454 5.58862 11.3986 5.08626 11.4762Z" fill="white"/>
<path d="M21.9328 17.5342C20.7102 17.6044 19.5762 18.055 18.5899 18.8566C18.2353 19.1447 17.9509 19.455 17.8696 19.636C17.8327 19.7209 17.7588 19.8872 17.7034 20.0054C17.648 20.1236 17.5557 20.3267 17.4966 20.4523C17.1383 21.2354 16.9277 21.6787 16.8612 21.7932C16.8317 21.8449 16.7135 22.0776 16.5953 22.3103C16.4808 22.543 16.2554 22.9937 16.0966 23.3076C15.8417 23.8174 15.0291 25.3023 14.7853 25.7012C14.7631 25.7345 14.7003 25.8453 14.6412 25.9487C14.5784 26.0484 14.4861 26.1999 14.4307 26.2811C14.379 26.3624 14.2793 26.5249 14.2165 26.6394C14.0207 27.0051 12.8202 28.8447 12.2661 29.6314C12.1295 29.8272 11.9337 30.1079 11.8303 30.252C11.7305 30.3997 11.5791 30.6029 11.4978 30.7063C11.4165 30.8098 11.2836 30.9908 11.2023 31.109C11.025 31.3601 10.168 32.4868 10.0535 32.616C9.65829 33.0593 9.18179 33.7131 9.04882 33.9864C8.56493 34.9948 8.3433 36.0845 8.38762 37.237C8.41717 37.924 8.42825 38.0164 8.55015 38.5815C8.76439 39.5752 9.14855 40.4432 9.72109 41.2411C9.82452 41.3814 9.93533 41.5255 9.96488 41.5588C9.99443 41.5883 10.1348 41.7361 10.2752 41.8838C11.1284 42.7925 12.3141 43.4204 13.5663 43.6273C13.969 43.6938 14.1426 43.7012 14.6191 43.6864C15.3098 43.6605 15.6275 43.5977 16.562 43.2948C17.4744 43.003 18.7709 42.6854 19.3841 42.6041C19.4543 42.593 19.6685 42.5635 19.8532 42.5302C20.0416 42.5007 20.2743 42.4674 20.3703 42.46C20.4701 42.4527 20.688 42.4305 20.8616 42.412C21.3381 42.364 22.8895 42.3714 23.3919 42.4268C23.6357 42.4527 23.9533 42.4822 24.0937 42.497C24.2378 42.5118 24.4705 42.545 24.6108 42.5745C24.7549 42.6041 25.0098 42.6558 25.1834 42.6854C25.357 42.7149 25.5565 42.7555 25.6266 42.774C25.6968 42.7925 25.996 42.8701 26.2915 42.9439C26.816 43.0732 27.5622 43.2985 27.9427 43.4389C28.722 43.727 30.1848 43.8046 31.1415 43.6051C32.305 43.365 33.5646 42.6964 34.4179 41.869C35.8659 40.4654 36.6083 38.9805 36.8891 36.9378C36.9482 36.513 36.9075 35.1278 36.8226 34.6365C36.66 33.7131 36.3941 32.9042 36.0025 32.1469C35.8807 31.9142 34.9609 30.4847 34.9018 30.4367C34.887 30.4256 34.7688 30.2594 34.6395 30.0673C34.5102 29.8752 34.2517 29.4985 34.067 29.2362C33.8786 28.9702 33.6459 28.6378 33.5462 28.4937C33.4464 28.3497 33.2728 28.1096 33.1583 27.9581C32.981 27.718 32.5378 27.116 32.3568 26.8611C32.3235 26.8131 32.1942 26.6358 32.0686 26.4732C31.9467 26.307 31.7214 26.0041 31.57 25.801C31.2117 25.3208 30.6281 24.5746 29.8191 23.5625C29.5236 23.1968 29.2835 22.9013 28.5817 22.0702C28.4783 21.9483 28.3822 21.8301 28.3674 21.8116C28.2677 21.686 27.5474 20.8586 27.4034 20.7035C27.311 20.6001 27.1189 20.3858 26.9786 20.2233C25.7559 18.7864 25.3459 18.454 24.186 17.9405C23.5692 17.6672 22.6051 17.4936 21.9328 17.5342Z" fill="white"/>
</svg>
