<svg width="118" height="100" viewBox="0 0 118 100" fill="none" xmlns="http://www.w3.org/2000/svg">
<path d="M83.6255 90.5533C86.2105 93.5883 89.1105 97.0933 93.2955 97.7183C96.8605 98.2483 100.581 96.5033 102.946 93.8933C105.741 90.8033 106.291 86.9133 105.771 82.8983C105.036 77.2283 103.766 71.6283 102.901 65.9783C101.131 54.4733 102.381 43.4883 108.521 33.4233C113.096 25.9183 120.281 16.8433 116.236 7.53832C114.826 4.29832 112.016 1.46832 108.486 0.698317C106.521 0.268317 104.486 0.543316 102.616 1.23832C100.516 2.01832 97.9105 4.73832 95.6605 4.38332C93.4105 4.02832 91.3405 2.84332 89.1355 2.40832C86.7705 1.93832 84.3555 1.69832 81.9455 1.72332C77.4205 1.76332 72.9055 2.72832 68.7905 4.62332C61.2205 8.11832 55.3105 15.1383 53.2905 23.2433C52.3055 27.2033 52.0955 31.4883 53.8155 35.2683C54.7355 37.2983 56.2205 38.8733 57.3305 40.7633C58.6655 43.0333 56.2255 43.6283 54.4255 44.1533C49.9655 45.4583 45.6155 46.3933 41.5655 48.7983C37.6155 51.1383 34.1655 54.3483 31.6455 58.1883C25.9405 66.8733 25.7805 78.2283 30.3955 87.3983L31.3655 85.7033C25.1505 85.7783 20.3905 81.0283 18.0155 75.6483C16.7505 72.7833 16.0305 69.7133 15.4605 66.6383C14.9755 64.0333 14.9605 60.8833 13.9005 58.4383C12.2905 54.7133 7.39553 54.3933 4.51053 56.8333C0.855528 59.9233 0.260528 65.6633 0.825528 70.1133C2.14553 80.4933 10.1155 88.6033 19.2805 92.8383C30.0805 97.8283 42.9255 99.3283 54.7005 99.7683C60.7905 99.9933 67.1255 99.6583 72.8455 97.3633C75.2505 96.3983 78.0105 95.0283 79.8005 93.0833C80.5655 92.2533 82.2755 89.2683 83.6255 90.5633C84.6705 91.5633 86.2655 89.9783 85.2155 88.9733C82.8155 86.6783 80.3405 88.9483 78.6505 90.8933C75.7755 94.1933 71.2955 95.8633 67.0855 96.7383C61.7505 97.8433 56.2105 97.6983 50.8105 97.3133C44.5505 96.8633 38.2605 96.0383 32.1305 94.6783C21.5705 92.3383 10.9555 87.5983 5.61553 77.6433C3.16053 73.0683 1.97553 67.3733 3.64553 62.3233C4.50053 59.7283 6.72553 56.7533 9.85553 57.6233C12.7705 58.4333 12.5805 63.1083 12.9955 65.5283C14.6655 75.3433 19.3305 88.1033 31.3755 87.9633C32.2655 87.9533 32.7255 87.0233 32.3455 86.2683C28.2005 78.0283 28.3055 67.8633 33.2005 59.9483C37.5605 52.8983 44.6655 48.9633 52.5055 46.9883C54.7605 46.4233 58.1655 45.9433 59.5805 43.8183C61.1655 41.4283 58.7905 39.0483 57.5205 37.1983C52.4105 29.7433 55.3405 19.9533 60.8255 13.4883C66.5555 6.73332 75.2455 3.57332 83.9905 4.01832C86.2005 4.13332 88.3905 4.47332 90.5355 5.03332C92.3305 5.50332 94.2055 6.59832 96.0505 6.77832C97.7355 6.94332 98.9005 5.87332 100.236 5.00832C102.356 3.63332 104.786 2.47832 107.376 2.80832C111.846 3.37332 114.766 7.87332 115.081 12.0933C115.461 17.1683 113.091 21.9383 110.506 26.1383C108.141 29.9783 105.516 33.6383 103.676 37.7733C101.941 41.6683 100.761 45.7783 100.191 50.0033C98.7355 60.7683 101.751 71.4633 103.396 82.0283C104.231 87.3783 103.076 92.9633 97.4105 95.0283C92.0505 96.9833 88.3655 92.6483 85.2305 88.9683C84.2905 87.8633 82.7055 89.4633 83.6405 90.5583L83.6255 90.5533Z" fill="#4C9C8B"/>
<path d="M73.4402 22.293C71.7902 28.758 74.0803 37.233 81.8753 37.878C89.8053 38.533 91.2553 29.818 91.1803 23.803C91.1603 22.358 88.9103 22.353 88.9303 23.803C88.9853 28.218 88.6103 35.733 82.5303 35.663C75.8853 35.588 74.2903 28.078 75.6153 22.888C75.9753 21.483 73.8053 20.888 73.4453 22.288L73.4402 22.293Z" fill="#4C9C8B"/>
<path d="M94.6805 14.1583C95.4123 14.1583 96.0055 13.5651 96.0055 12.8333C96.0055 12.1015 95.4123 11.5083 94.6805 11.5083C93.9487 11.5083 93.3555 12.1015 93.3555 12.8333C93.3555 13.5651 93.9487 14.1583 94.6805 14.1583Z" fill="#4C9C8B"/>
<path d="M36.8404 16.4433C28.2104 24.5183 34.9703 43.6834 48.3303 57.0334C61.6753 70.3784 84.2453 73.5583 90.1203 67.6833L90.8054 66.9983C93.3404 64.4633 98.5553 55.3733 94.5353 51.7683L86.2453 43.4784C83.7103 40.9434 79.5953 40.9434 77.0503 43.4784L66.9503 52.6083C64.5503 50.7533 62.1653 48.6583 59.8403 46.3333C57.5153 44.0083 55.4253 41.6183 53.5653 39.2233L58.2153 34.5733C60.7503 32.0383 64.5253 24.8483 61.9903 22.3033L52.8103 14.0133C47.9103 8.14335 40.0703 13.2233 37.5253 15.7583L36.9304 16.3533C36.9304 16.3533 36.8653 16.4033 36.8353 16.4333L36.8453 16.4433H36.8404Z" fill="#4C9C8B"/>
</svg>
