<svg width="99" height="95" viewBox="0 0 99 95" fill="none" xmlns="http://www.w3.org/2000/svg">
<path d="M66.0309 93.2713H88.6459C88.6459 93.2713 88.4459 53.4763 88.6459 53.4763C88.8459 53.4763 92.2959 55.5463 95.8659 52.7463C99.4359 49.9463 97.3259 45.5263 95.3059 43.5613C90.1309 38.5363 59.4609 7.90133 54.2209 3.21133C48.9809 -1.47867 45.2509 2.52133 43.1909 4.49633C41.1309 6.47133 3.1209 43.4663 2.2909 44.9363C1.4609 46.4063 -0.0991042 49.9913 3.3009 52.7463C6.7009 55.5013 10.5609 53.3913 10.5609 53.3913L11.0809 93.2663H66.0259L66.0309 93.2713Z" stroke="#4C9C8B" stroke-width="2" stroke-miterlimit="10"/>
<path d="M49.4964 56.006C49.4964 56.006 55.3164 49.696 60.0264 48.056C62.0214 47.361 71.0564 45.3261 75.2364 51.1911C77.7914 54.2111 82.6664 62.976 74.9464 73.771C69.3114 80.836 51.2064 86.9461 49.5814 87.1211C47.3164 86.5411 34.2164 83.441 28.4914 77.361C26.4614 75.206 18.4714 70.691 20.0964 58.796C20.6764 50.726 30.6614 45.041 38.2064 48.116C45.4314 51.376 46.3064 53.976 49.4964 56.006Z" fill="#4C9C8B"/>
<path d="M58.251 64.2207H52.416V58.3857H46.581V64.2207H40.751V70.0557H46.581V75.8857H52.416V70.0557H58.251V64.2207Z" fill="white"/>
</svg>
