<svg width="101" height="106" viewBox="0 0 101 106" fill="none" xmlns="http://www.w3.org/2000/svg">
<path d="M54.5903 99.5189C57.8353 103.324 62.1603 106.259 66.7603 102.509C71.8053 98.3989 69.0403 91.0489 68.1203 85.6889C66.7103 77.4589 66.8803 69.8089 71.3103 62.4939C74.3153 57.5339 78.9253 51.6739 76.3753 45.5289C75.4953 43.4089 73.7403 41.5389 71.5003 40.8639C70.6153 40.5989 69.6803 40.5439 68.7703 40.6639C66.8303 40.9189 65.7303 42.1389 64.0153 42.7589C62.3003 43.3789 60.2253 42.1739 58.4853 41.8339C57.0753 41.5589 55.6353 41.3989 54.2003 41.3889C51.3403 41.3689 48.4753 41.8889 45.8353 42.9939C40.7253 45.1339 36.6903 49.5189 35.0903 54.8389C34.4003 57.1239 34.0553 59.7839 34.6853 62.1189C35.0703 63.5439 35.8203 64.8239 36.6553 66.0289C37.0103 66.5389 38.0403 67.4189 37.5503 68.1889C37.2403 68.6789 35.8353 68.8639 35.3053 69.0089C29.3003 70.6389 23.9403 73.0889 20.5803 78.6489C17.2203 84.2089 17.2053 91.4939 20.1153 97.3939L21.0853 95.6989C16.5053 95.6789 13.5453 91.8089 12.2003 87.8139C11.5553 85.8989 11.2103 83.8939 10.8803 81.9089C10.6403 80.4589 10.6103 78.7739 9.72032 77.5489C8.26532 75.5339 5.30031 75.6389 3.51031 77.1039C1.28031 78.9289 0.695316 82.2589 0.845316 84.9889C1.76532 101.384 22.1553 104.839 34.9753 105.534C39.1003 105.759 43.4203 105.679 47.3553 104.269C49.0153 103.674 50.6353 102.869 52.0003 101.734C52.3453 101.444 54.1903 99.1639 54.6053 99.5239C55.7003 100.464 57.2953 98.8789 56.1953 97.9339C54.8353 96.7689 53.4253 97.1489 52.1703 98.3039C51.5803 98.8489 51.1603 99.5139 50.5553 100.034C49.1903 101.204 47.3803 101.959 45.6753 102.454C38.7753 104.464 30.6553 103.219 23.7353 101.929C16.8153 100.639 9.05031 97.9239 5.15031 91.3339C3.40031 88.3789 2.49032 84.7239 3.46032 81.3489C4.05532 79.2889 7.13532 76.4889 8.25532 79.7739C8.81532 81.4139 8.82532 83.3739 9.17532 85.0739C10.4203 91.1839 14.0003 97.9239 21.0903 97.9539C21.9903 97.9539 22.4303 97.0089 22.0603 96.2589C19.3903 90.8539 19.5253 84.2489 22.9153 79.1689C25.8503 74.7689 30.3253 72.6189 35.2853 71.3389C37.9253 70.6589 41.3453 69.4139 39.4853 66.1089C38.0653 63.5739 36.4553 61.9139 36.6553 58.7339C36.8253 55.9939 37.8253 53.3539 39.3503 51.0839C42.5703 46.2839 48.0953 43.7039 53.8053 43.6489C56.6653 43.6239 59.0503 44.3739 61.7403 45.1339C64.4053 45.8889 65.3803 44.0439 67.7903 43.2139C70.8503 42.1589 73.6653 44.0589 74.5503 47.0439C75.6053 50.5889 73.7853 54.2989 71.9853 57.2539C68.9803 62.1789 66.1403 66.6689 65.2553 72.4939C64.2603 79.0389 65.8403 85.5989 66.9603 92.0239C67.5553 95.4589 68.0803 99.2639 64.5653 101.314C61.0503 103.364 58.3703 100.489 56.1903 97.9339C55.2503 96.8289 53.6653 98.4289 54.6003 99.5239L54.5903 99.5189Z" fill="#4C9C8B"/>
<path d="M47.9006 54.9938C46.8006 59.4038 48.3806 65.1038 53.6606 65.5638C59.0756 66.0338 60.1956 60.2438 60.1506 56.0788C60.1356 54.6338 57.8856 54.6288 57.9006 56.0788C57.9306 58.6788 57.8306 63.3638 54.1706 63.3488C50.1006 63.3288 49.2956 58.6788 50.0656 55.5938C50.4156 54.1888 48.2456 53.5888 47.8956 54.9938H47.9006Z" fill="#4C9C8B"/>
<path d="M62.0202 49.8391C62.4951 49.8391 62.8802 49.4541 62.8802 48.9791C62.8802 48.5042 62.4951 48.1191 62.0202 48.1191C61.5452 48.1191 61.1602 48.5042 61.1602 48.9791C61.1602 49.4541 61.5452 49.8391 62.0202 49.8391Z" fill="#4C9C8B"/>
<path d="M72.2956 9.09879C72.2956 9.09879 77.7506 3.18379 82.1706 1.64879C84.0406 0.998793 92.5106 -0.906207 96.4256 4.58879C98.8206 7.41879 103.391 15.6338 96.1556 25.7538C90.8706 32.3738 73.9006 38.1038 72.3756 38.2688C70.2556 37.7238 57.9756 34.8188 52.6056 29.1188C50.7006 27.0988 43.2106 22.8688 44.7356 11.7138C45.2806 4.14879 54.6406 -1.18121 61.7106 1.70379C68.4806 4.75879 69.3056 7.19379 72.2956 9.09879Z" fill="#4C9C8B"/>
</svg>
