<svg width="119" height="94" viewBox="0 0 119 94" fill="none" xmlns="http://www.w3.org/2000/svg">
<path d="M85.2211 9.74391C84.7961 9.11391 83.9061 8.38892 84.1811 7.55892C84.4561 6.72892 84.8611 6.02891 84.8461 5.09391C84.8261 3.45391 83.9211 1.88392 82.5861 0.953915C81.2511 0.0239152 79.3261 -0.131085 77.9061 0.798915C76.3911 1.78891 75.6761 3.52892 75.5361 5.27892L76.2711 4.31392C73.4211 4.78392 70.6861 5.43892 67.7761 5.35892C66.3611 5.31892 64.9511 5.18392 63.5461 5.01892C62.1411 4.85392 60.8061 4.74392 59.4961 4.32392L60.2311 5.28892C60.0411 2.81892 58.5261 0.298916 55.8211 0.163916C53.5061 0.0439162 51.4311 2.00891 51.0111 4.20891C50.8961 4.79891 50.8861 5.38891 50.9961 5.97891C51.1161 6.61891 51.5861 7.19392 51.6511 7.82892C51.7011 8.32392 51.2511 8.77392 50.9711 9.14392C50.5661 9.67892 50.2261 10.2189 50.0311 10.8689C49.3361 13.1839 50.4911 15.8789 52.7511 16.8089C54.0211 17.3289 55.4661 17.2739 56.7161 16.7239C57.2911 16.4739 57.8311 16.1139 58.2561 15.6539C58.6811 15.1939 58.9261 14.5439 59.4661 14.2239L58.6961 14.3239C61.6061 15.4089 64.7511 15.5989 67.8311 15.4739C69.3461 15.4139 70.8611 15.2889 72.3711 15.1489C73.9561 15.0039 75.5511 14.8239 77.0661 14.3089L76.2961 14.2089C76.8411 14.5339 77.0961 15.1889 77.5211 15.6489C77.9461 16.1089 78.4911 16.4689 79.0611 16.7189C80.3561 17.2839 81.8411 17.3189 83.1461 16.7539C85.7711 15.6089 86.6911 12.1339 85.2361 9.73392C84.5711 8.63392 82.8361 9.63891 83.5111 10.7439C84.3161 12.0739 83.9611 14.0439 82.5511 14.8289C81.8961 15.1939 81.1011 15.2589 80.3811 15.0739C79.5211 14.8539 79.0011 14.3539 78.5061 13.6489C78.2111 13.2339 77.8911 12.8339 77.4461 12.5639C76.8661 12.2189 76.3861 12.4489 75.7861 12.6139C74.6711 12.9139 73.5211 13.0439 72.3761 13.1489C69.9611 13.3639 67.5361 13.5739 65.1111 13.4839C63.9661 13.4439 62.8261 13.3339 61.7011 13.0989C61.1561 12.9839 60.6161 12.8489 60.0811 12.6789C59.4861 12.4939 58.9661 12.1939 58.3761 12.5389C57.5261 13.0339 57.2311 14.0139 56.4661 14.5839C55.8561 15.0389 55.0411 15.2339 54.2911 15.1539C52.6811 14.9839 51.6711 13.4289 51.8661 11.8689C51.9861 10.9239 52.6611 10.3089 53.1511 9.54391C53.7861 8.54891 53.7711 7.53892 53.3061 6.48392C52.9311 5.63392 52.7861 4.86391 53.1711 3.97891C53.4911 3.24891 54.1061 2.59392 54.8511 2.30392C56.8061 1.54392 58.1111 3.58392 58.2411 5.27892C58.2761 5.73892 58.5311 6.09891 58.9761 6.24391C60.3411 6.67891 61.7861 6.79892 63.1961 6.96392C64.7211 7.14392 66.2511 7.30392 67.7911 7.34392C70.8761 7.42892 73.7961 6.72891 76.8161 6.22891C77.2711 6.15391 77.5161 5.67391 77.5511 5.26391C77.6411 4.10891 78.2011 2.74392 79.3511 2.28392C80.3811 1.86892 81.5161 2.40891 82.1661 3.22891C82.9361 4.19391 83.0161 5.28391 82.5311 6.38391C82.1761 7.18391 81.9711 7.98391 82.2911 8.83391C82.5611 9.55891 83.0911 10.1039 83.5111 10.7389C84.2211 11.8039 85.9561 10.8039 85.2361 9.72892L85.2211 9.74391Z" fill="#4C9C8B"/>
<path d="M88.3059 85.7686C91.0508 85.7686 93.2759 83.5435 93.2759 80.7986C93.2759 78.0538 91.0508 75.8286 88.3059 75.8286C85.5611 75.8286 83.3359 78.0538 83.3359 80.7986C83.3359 83.5435 85.5611 85.7686 88.3059 85.7686Z" stroke="#4C9C8B" stroke-width="2" stroke-miterlimit="10"/>
<path d="M88.3057 92.1344C94.5658 92.1344 99.6407 87.0595 99.6407 80.7994C99.6407 74.5392 94.5658 69.4644 88.3057 69.4644C82.0456 69.4644 76.9707 74.5392 76.9707 80.7994C76.9707 87.0595 82.0456 92.1344 88.3057 92.1344Z" stroke="#4C9C8B" stroke-width="2" stroke-miterlimit="10"/>
<path d="M35.6458 85.7686C38.3906 85.7686 40.6158 83.5435 40.6158 80.7986C40.6158 78.0538 38.3906 75.8286 35.6458 75.8286C32.9009 75.8286 30.6758 78.0538 30.6758 80.7986C30.6758 83.5435 32.9009 85.7686 35.6458 85.7686Z" stroke="#4C9C8B" stroke-width="2" stroke-miterlimit="10"/>
<path d="M35.6455 92.1344C41.9057 92.1344 46.9805 87.0595 46.9805 80.7994C46.9805 74.5392 41.9057 69.4644 35.6455 69.4644C29.3854 69.4644 24.3105 74.5392 24.3105 80.7994C24.3105 87.0595 29.3854 92.1344 35.6455 92.1344Z" stroke="#4C9C8B" stroke-width="2" stroke-miterlimit="10"/>
<path d="M111.016 41.6435C103.966 23.8835 84.6759 15.6185 67.6459 15.9485C27.8409 16.4985 22.9809 46.0985 22.9809 46.0985C6.18089 49.4885 0.86089 62.8335 1.98589 71.6785C3.11089 80.5235 11.3659 86.4985 20.1009 86.7685C21.2309 86.8035 23.3459 86.8285 26.1709 86.8485C25.0009 85.0635 24.3159 82.9285 24.3159 80.6335C24.3159 74.3735 29.3909 69.2985 35.6509 69.2985C41.9109 69.2985 46.9859 74.3735 46.9859 80.6335C46.9859 82.9435 46.2909 85.0935 45.1059 86.8885C56.0109 86.8885 68.5259 86.8585 78.8209 86.8285C77.6559 85.0485 76.9759 82.9185 76.9759 80.6335C76.9759 74.3735 82.0509 69.2985 88.3109 69.2985C94.5709 69.2985 99.6459 74.3735 99.6459 80.6335C99.6459 82.8985 98.9809 85.0035 97.8359 86.7735C98.6959 86.7735 99.2809 86.7735 99.5459 86.7735C103.251 86.7735 110.661 86.2835 114.686 78.2635C118.711 70.2435 118.066 59.4135 111.016 41.6535V41.6435Z" stroke="#4C9C8B" stroke-width="2" stroke-miterlimit="10"/>
<path d="M33.3955 45.9591H63.2655V25.1041C63.2655 25.1041 39.2405 23.4891 33.3955 45.9591Z" stroke="#4C9C8B" stroke-width="2" stroke-miterlimit="10"/>
<path d="M99.6413 45.9585H72.4863V24.9585C72.4863 24.9585 95.4113 26.1435 99.6413 45.9585Z" stroke="#4C9C8B" stroke-width="2" stroke-miterlimit="10"/>
<path d="M60.2515 59.8407C61.5853 59.8314 62.6572 58.4874 62.6456 56.8389C62.6341 55.1904 61.5436 53.8615 60.2099 53.8708C58.8761 53.8801 57.8043 55.2241 57.8158 56.8726C57.8273 58.5212 58.9178 59.85 60.2515 59.8407Z" fill="#4C9C8B"/>
<path d="M56.881 60.8739C55.706 59.7189 54.001 59.5489 53.061 60.4989C52.126 61.4489 52.316 63.1539 53.491 64.3089C54.666 65.4639 56.371 65.6339 57.311 64.6839C58.246 63.7339 58.056 62.0289 56.881 60.8739Z" fill="#4C9C8B"/>
<path d="M76.2307 60.3335C75.2807 59.3985 73.5757 59.5885 72.4207 60.7635C71.2657 61.9385 71.0957 63.6435 72.0457 64.5835C72.9957 65.5185 74.7007 65.3285 75.8557 64.1535C77.0107 62.9785 77.1807 61.2735 76.2307 60.3335Z" fill="#4C9C8B"/>
<path d="M68.4117 59.7841C69.7454 59.7747 70.8173 58.4308 70.8058 56.7823C70.7943 55.1337 69.7038 53.8049 68.37 53.8142C67.0363 53.8235 65.9644 55.1675 65.9759 56.816C65.9874 58.4645 67.078 59.7934 68.4117 59.7841Z" fill="#4C9C8B"/>
<path d="M68.5961 62.9683C70.3511 64.3483 71.0611 64.1783 72.4811 66.2733C73.9011 68.3683 73.5261 70.6033 71.0261 71.5483C70.7911 71.6383 67.6711 72.1883 64.7461 72.3183C61.8211 72.4533 59.9561 72.1283 58.4561 71.6333C55.9161 70.7983 55.5411 68.4933 56.9261 66.3783C58.3161 64.2633 59.1561 64.8283 60.7611 63.0183C61.9211 61.7083 65.1611 60.2633 68.5961 62.9633V62.9683Z" fill="#4C9C8B"/>
</svg>
