<svg width="216" height="188" viewBox="0 0 216 188" fill="none" xmlns="http://www.w3.org/2000/svg">
<path id="Vector" d="M23.1328 187.793C14.4195 187.793 7.62683 185.186 3.75805 177.914C1.11027 172.937 -0.0489864 168.502 0.21682 164.355C0.463763 160.508 1.94371 156.908 4.74411 153.35C9.99165 146.68 19.5075 140.706 30.5257 133.79C44.7094 124.886 62.3624 113.804 77.9404 96.8295C86.4806 87.5244 93.4635 77.5546 99.289 66.3517C105.907 53.6235 110.919 39.2845 114.183 23.7319C115.978 15.1788 121.058 8.53937 128.871 4.52829C140.201 -1.28609 155.752 -0.747952 169.455 5.93065C169.462 5.93422 169.471 5.93778 169.477 5.94313C169.565 5.99124 178.259 10.8256 186.659 19.507C191.599 24.614 195.48 30.0381 198.19 35.6262C201.587 42.6309 203.146 49.9154 202.825 57.2746C202.131 73.1568 206.299 87.1822 209.976 99.5558C213.627 111.839 216.779 122.448 213.948 131.274C211.977 137.416 207.582 145.128 202.192 151.907C197.37 157.969 189.293 166.383 178.199 172.037C171.47 175.467 164.403 177.484 157.195 178.035C149.062 178.655 140.652 177.409 132.198 174.33C110.333 166.367 83.555 173.817 59.9307 180.389C46.1156 184.23 33.3123 187.791 23.1328 187.793ZM146.645 1.57922C140.378 1.57922 134.413 2.87289 129.325 5.48517C121.802 9.34658 116.913 15.7329 115.188 23.9565C111.902 39.607 106.857 54.0405 100.193 66.8578C94.3244 78.1444 87.2883 88.189 78.6847 97.5654C63.0124 114.643 45.2942 125.766 31.059 134.704C20.1232 141.57 10.6776 147.498 5.54324 154.027C0.0487614 161.01 -0.222189 168.218 4.66008 177.397C8.30592 184.25 14.9202 187.197 25.4788 186.668C35.1044 186.187 47.0348 182.869 59.6649 179.355C83.4332 172.743 110.374 165.248 132.539 173.32C148.331 179.07 163.541 178.316 177.747 171.076C188.676 165.506 196.643 157.206 201.4 151.224C206.714 144.542 211.041 136.958 212.974 130.935C215.7 122.434 212.593 111.978 208.995 99.8695C205.293 87.4121 201.096 73.2922 201.8 57.223C202.113 50.0543 200.592 42.9534 197.281 36.118C194.623 30.6333 190.812 25.3054 185.956 20.2804C177.793 11.8359 169.351 7.07999 169.008 6.88932C161.76 3.36114 153.995 1.57922 146.645 1.57922Z" fill="#A97D5E"/>
</svg>
