<svg width="33" height="24" viewBox="0 0 33 24" fill="none" xmlns="http://www.w3.org/2000/svg">
<path d="M30.2766 19.8595C30.2766 20.3828 30.0688 20.8846 29.6988 21.2546C29.3288 21.6246 28.827 21.8324 28.3038 21.8324H4.62933C4.10609 21.8324 3.60429 21.6246 3.2343 21.2546C2.86432 20.8846 2.65646 20.3828 2.65646 19.8595V8.02233C2.65646 7.4991 2.86432 6.99729 3.2343 6.62731C3.60429 6.25732 4.10609 6.04947 4.62933 6.04947H6.94153C8.51043 6.04861 10.0148 5.42486 11.124 4.31531L12.7615 2.68178C13.1304 2.31273 13.6305 2.10488 14.1524 2.10373H18.7768C19.3 2.10384 19.8017 2.31177 20.1716 2.68178L21.8051 4.31531C22.3548 4.86518 23.0075 5.30135 23.7258 5.5989C24.4441 5.89645 25.214 6.04956 25.9916 6.04947H28.3038C28.827 6.04947 29.3288 6.25732 29.6988 6.62731C30.0688 6.99729 30.2766 7.4991 30.2766 8.02233V19.8595ZM4.62933 4.0766C3.58286 4.0766 2.57924 4.49231 1.83927 5.23228C1.0993 5.97225 0.683594 6.97586 0.683594 8.02233L0.683594 19.8595C0.683594 20.906 1.0993 21.9096 1.83927 22.6496C2.57924 23.3896 3.58286 23.8053 4.62933 23.8053H28.3038C29.3502 23.8053 30.3538 23.3896 31.0938 22.6496C31.8338 21.9096 32.2495 20.906 32.2495 19.8595V8.02233C32.2495 6.97586 31.8338 5.97225 31.0938 5.23228C30.3538 4.49231 29.3502 4.0766 28.3038 4.0766H25.9916C24.9452 4.07637 23.9417 3.66052 23.2019 2.9205L21.5684 1.28696C20.8286 0.54694 19.8251 0.131083 18.7787 0.130859H14.1543C13.108 0.131083 12.1045 0.54694 11.3647 1.28696L9.73117 2.9205C8.99137 3.66052 7.98792 4.07637 6.94153 4.0766H4.62933Z" fill="#3A3A3A"/>
<path d="M17.4739 18.4876C16.1658 18.4876 14.9113 17.968 13.9864 17.043C13.0614 16.118 12.5418 14.8635 12.5418 13.5554C12.5418 12.2473 13.0614 10.9928 13.9864 10.0679C14.9113 9.1429 16.1658 8.62326 17.4739 8.62326C18.782 8.62326 20.0365 9.1429 20.9615 10.0679C21.8865 10.9928 22.4061 12.2473 22.4061 13.5554C22.4061 14.8635 21.8865 16.118 20.9615 17.043C20.0365 17.968 18.782 18.4876 17.4739 18.4876ZM17.4739 20.4605C19.3053 20.4605 21.0616 19.733 22.3565 18.438C23.6515 17.1431 24.379 15.3868 24.379 13.5554C24.379 11.7241 23.6515 9.96778 22.3565 8.67283C21.0616 7.37788 19.3053 6.65039 17.4739 6.65039C15.6426 6.65039 13.8863 7.37788 12.5913 8.67283C11.2964 9.96778 10.5689 11.7241 10.5689 13.5554C10.5689 15.3868 11.2964 17.1431 12.5913 18.438C13.8863 19.733 15.6426 20.4605 17.4739 20.4605ZM7.60959 9.60969C7.60959 9.87131 7.50566 10.1222 7.32067 10.3072C7.13567 10.4922 6.88477 10.5961 6.62315 10.5961C6.36153 10.5961 6.11063 10.4922 5.92564 10.3072C5.74065 10.1222 5.63672 9.87131 5.63672 9.60969C5.63672 9.34807 5.74065 9.09717 5.92564 8.91218C6.11063 8.72719 6.36153 8.62326 6.62315 8.62326C6.88477 8.62326 7.13567 8.72719 7.32067 8.91218C7.50566 9.09717 7.60959 9.34807 7.60959 9.60969Z" fill="#3A3A3A"/>
</svg>
