<svg width="32" height="32" viewBox="0 0 32 32" fill="none" xmlns="http://www.w3.org/2000/svg">
<path d="M21.6432 9.80063C21.9193 9.52694 22.292 9.3729 22.6808 9.37183C23.0695 9.37076 23.4431 9.52273 23.7207 9.7949C23.9983 10.0671 24.1577 10.4376 24.1643 10.8263C24.1709 11.215 24.0243 11.5907 23.7561 11.8721L15.8804 21.7168C15.7451 21.8625 15.5817 21.9795 15.4001 22.0608C15.2185 22.142 15.0224 22.1857 14.8235 22.1894C14.6246 22.1931 14.427 22.1566 14.2425 22.0822C14.058 22.0078 13.8904 21.8969 13.7497 21.7562L8.53149 16.536C8.38611 16.4005 8.26951 16.2372 8.18864 16.0557C8.10777 15.8742 8.06428 15.6783 8.06078 15.4796C8.05727 15.2809 8.09382 15.0836 8.16824 14.8993C8.24266 14.7151 8.35342 14.5477 8.49393 14.4072C8.63443 14.2667 8.8018 14.1559 8.98604 14.0815C9.17028 14.0071 9.36763 13.9705 9.5663 13.9741C9.76498 13.9776 9.96091 14.021 10.1424 14.1019C10.3239 14.1828 10.4873 14.2994 10.6227 14.4448L14.7539 18.574L21.6057 9.84403L21.6432 9.80063Z" fill="#3A3A3A"/>
<path d="M27.6202 1.97336C28.1434 1.97336 28.6452 2.18121 29.0152 2.5512C29.3852 2.92118 29.593 3.42299 29.593 3.94622V27.6206C29.593 28.1439 29.3852 28.6457 29.0152 29.0157C28.6452 29.3857 28.1434 29.5935 27.6202 29.5935H3.94574C3.4225 29.5935 2.92069 29.3857 2.55071 29.0157C2.18072 28.6457 1.97287 28.1439 1.97287 27.6206V3.94622C1.97287 3.42299 2.18072 2.92118 2.55071 2.5512C2.92069 2.18121 3.4225 1.97336 3.94574 1.97336H27.6202ZM3.94574 0.000488281C2.89926 0.000488281 1.89565 0.416199 1.15568 1.15617C0.41571 1.89614 0 2.89975 0 3.94622L0 27.6206C0 28.6671 0.41571 29.6707 1.15568 30.4107C1.89565 31.1507 2.89926 31.5664 3.94574 31.5664H27.6202C28.6666 31.5664 29.6702 31.1507 30.4102 30.4107C31.1502 29.6707 31.5659 28.6671 31.5659 27.6206V3.94622C31.5659 2.89975 31.1502 1.89614 30.4102 1.15617C29.6702 0.416199 28.6666 0.000488281 27.6202 0.000488281L3.94574 0.000488281Z" fill="#3A3A3A"/>
</svg>
