<svg width="125" height="125" viewBox="0 0 125 125" fill="none" xmlns="http://www.w3.org/2000/svg">
<mask id="mask0_1088_12929" style="mask-type:luminance" maskUnits="userSpaceOnUse" x="0" y="0" width="125" height="125">
<path d="M106.619 106.363C130.799 82.1842 130.799 42.9817 106.619 18.8024C82.4396 -5.37683 43.2375 -5.37683 19.0582 18.8024C-5.12097 42.9817 -5.12097 82.1842 19.0582 106.363C43.2375 130.542 82.4396 130.542 106.619 106.363Z" fill="white"/>
</mask>
<g mask="url(#mask0_1088_12929)">
<path d="M138.808 -16.2771H-6.11914V149.724H138.808V-16.2771Z" fill="#EDEDED"/>
<path d="M49.1695 16.9231C57.2332 14.5532 69.4351 16.4795 74.0108 20.3625C74.0108 20.3625 95.1391 15.5741 86.0791 41.1081L88.2791 58.0315C95.7411 66.8609 91.1711 80.4842 87.2031 85.0782C82.1721 90.9002 71.9143 90.7842 64.513 90.2192C53.1922 89.3622 43.421 85.2792 43.421 85.2792C26.4125 81.1102 25.3066 65.9068 26.6738 47.7438C27.5488 36.1374 34.221 21.3104 49.1695 16.917V16.9231Z" fill="white"/>
<path d="M91.8081 113.076C91.2981 111.703 88.7581 108.561 85.9991 106.368C83.4171 104.32 77.0001 100.054 75.9181 98.0492C75.5471 97.3622 74.7575 96.3962 74.6238 95.6912C72.8615 86.1812 76.9751 78.4272 76.9751 78.4272C88.8861 75.6752 91.5961 66.3654 90.4651 55.1844C90.4231 54.7894 90.7151 54.4248 91.1281 54.3701L92.9631 54.1149C94.1661 53.9751 94.1111 52.8145 93.1331 52.3648C89.9251 50.8821 88.1811 47.8499 86.7041 42.9886C83.2221 31.522 77.1941 28.7693 64.6885 31.0176C54.1334 32.9135 48.5003 46.0269 51.8425 59.1342C52.1038 60.1672 53.8721 61.3157 52.9849 61.9051C52.9849 61.9051 51.9944 62.7923 52.0126 62.8653C52.6628 65.9218 55.2575 75.5712 55.2575 75.5772C55.2575 75.5772 52.5899 87.7182 46.8536 95.4602C42.4966 101.336 31.662 106.896 29.0187 109.588C24.7407 113.957 22.4863 117.81 21.3803 129.301C19.448 149.402 24.923 165.919 28.4961 182.435H50.9735C50.694 180.405 50.1775 178.467 49.904 177.598C45.3344 162.771 44.8847 147.944 48.9986 134.527C48.9986 134.527 64.1659 134.806 72.8737 134.193C80.8221 133.633 89.5541 129.307 89.5541 129.307C91.5471 134.502 95.6731 139.528 95.6731 139.528C93.4551 130.966 95.0291 121.808 91.7961 113.076H91.8081Z" fill="#FFA18A"/>
<path d="M78.568 31.3584C78.604 36.56 78.294 43.4995 66.8339 44.7149C60.7026 45.3651 56.7407 53.7873 52.7605 62.1366C51.8064 64.1418 48.3853 61.4803 46.1613 59.8092C41.0387 55.9749 42.8981 39.9812 52.9671 32.1119C61.8815 25.1481 78.531 26.5518 78.562 31.3584H78.568Z" fill="white"/>
<path d="M90.5471 62.875C90.5161 63.1849 90.4371 63.8047 90.3951 64.1146C90.3771 64.2422 90.3341 64.4853 90.2981 64.7101C90.2611 64.9167 90.2371 65.0322 90.2371 65.0322C87.8851 65.5244 86.4941 63.671 87.5931 63.2942C89.6901 62.5772 90.5471 62.875 90.5471 62.875Z" fill="#FF7A5A"/>
<path d="M75.485 46.491C76.858 45.5309 79.143 44.7167 82.953 44.2001C83.998 44.0604 84.253 42.8147 82.953 42.8086C80.534 42.7964 76.621 45.0083 75.466 45.8955C74.2693 46.8131 71.8447 49.0371 75.485 46.491Z" fill="white"/>
<path opacity="0.4" d="M76.9801 78.4452C76.9801 78.4452 76.2331 80.0192 75.9771 80.8032C75.8011 81.3502 75.2791 82.9842 75.2791 82.9842C65.2219 81.1372 63.2227 70.8555 63.2227 70.8555C71.7786 78.9072 76.9801 78.4452 76.9801 78.4452Z" fill="#FF7A5A"/>
<path d="M83.2525 50.6012C83.4035 51.2149 83.0945 51.8226 82.5655 51.9502C82.0365 52.0778 81.4895 51.6828 81.3375 51.0691C81.1855 50.4553 81.4955 49.8477 82.0245 49.72C82.5535 49.5924 83.1005 49.9874 83.2525 50.6012Z" fill="#393146"/>
<path d="M59.4984 66.7739C58.2344 64.9327 56.6363 63.1948 54.473 62.4291C53.203 61.9794 51.8296 62.0706 50.6143 61.4325C49.2835 60.7398 48.609 59.5245 47.7401 58.3821L47.7279 58.3699C47.6975 58.3213 47.6611 58.2727 47.6185 58.2241C46.0386 56.5287 43.213 56.8751 41.1652 57.1971C37.9749 57.6954 34.8698 58.7163 31.8497 59.8283C30.4095 60.357 26.3321 61.0679 26.3321 61.0679C26.0343 62.6722 25.7548 65.4431 25.6333 66.78C25.3902 69.4233 25.5482 72.1578 26.1316 74.7404C26.9519 78.3801 28.3131 82.0501 30.6101 85.0161C33.5572 88.8201 37.7197 90.8621 42.3379 91.9011C47.1203 92.9761 52.5345 93.4871 57.171 91.5911C61.3517 89.8831 63.5636 86.0181 64.1105 81.6491C64.7789 76.3081 62.4516 71.0822 59.4984 66.7678V66.7739Z" fill="white"/>
<path d="M47.8398 58.6617C48.5994 61.6332 51.4615 63.5169 54.2385 62.8728C57.0155 62.2287 58.6501 59.2997 57.8966 56.3283C57.1371 53.3568 54.275 51.473 51.4979 52.1172C48.7209 52.7613 47.0863 55.6902 47.8398 58.6617Z" fill="#FFA18A"/>
<path d="M50.6367 55.5493C50.6367 55.4096 50.7764 55.2516 50.9405 55.2759C51.7304 55.3792 52.4718 55.6344 53.0855 56.1327C53.7479 56.6674 54.155 57.4149 54.4467 58.1805C54.5743 58.5208 54.0031 58.6484 53.8755 58.3142C53.675 57.7794 53.3894 57.269 52.9944 56.8497C52.9944 56.8497 52.9883 56.8497 52.9822 56.8497C52.9458 56.868 52.9093 56.8801 52.8789 56.8983C52.8121 56.9348 52.7452 56.9713 52.6784 57.0077C52.6602 57.0199 52.648 57.032 52.6298 57.0381C52.6055 57.0563 52.5812 57.0746 52.5569 57.0989C52.5083 57.1414 52.4596 57.19 52.4171 57.2386C52.4171 57.2447 52.405 57.2508 52.405 57.2569C52.3928 57.2751 52.3746 57.2933 52.3624 57.3116C52.3381 57.348 52.3138 57.3905 52.2956 57.4331C52.2956 57.4392 52.2895 57.4513 52.2895 57.4574C52.2834 57.4817 52.2713 57.4999 52.2652 57.5242C52.2652 57.5425 52.253 57.5668 52.247 57.585C52.247 57.5972 52.247 57.6093 52.247 57.6154C52.247 57.6518 52.2409 57.6944 52.2409 57.7308C52.2409 57.7551 52.2409 57.7794 52.2409 57.7977C52.2409 57.7977 52.2409 57.8038 52.2409 57.8098C52.253 57.8524 52.2591 57.8949 52.2652 57.9435C52.2652 57.9678 52.2834 58.0104 52.2956 58.0407C52.2956 58.0529 52.3077 58.0651 52.3077 58.0711C52.3199 58.0894 52.326 58.1137 52.3381 58.1319C52.3563 58.1684 52.3806 58.2048 52.405 58.2413C52.405 58.2474 52.4353 58.2777 52.4414 58.2899C52.4475 58.296 52.4536 58.3081 52.4596 58.3081C52.49 58.3446 52.5204 58.375 52.5569 58.4053C52.5933 58.4357 52.6298 58.4661 52.6602 58.4965C52.5994 58.4418 52.6602 58.4965 52.6784 58.5086C52.6966 58.5208 52.7149 58.533 52.7331 58.5451C52.7756 58.5694 52.8182 58.5937 52.8668 58.618C52.885 58.6302 52.9093 58.6363 52.9275 58.6423C52.8546 58.6059 52.9275 58.6423 52.9458 58.6423C53.0977 58.697 53.1949 58.8368 53.1463 58.9887C53.1038 59.1285 52.9336 59.2318 52.7817 59.1832C52.5143 59.0859 52.2652 58.9401 52.0768 58.7396C51.7365 58.381 51.5664 57.8949 51.6818 57.4149C51.7912 56.9652 52.1376 56.6431 52.5447 56.4304C52.0768 56.0962 51.5117 55.9078 50.9405 55.8289C50.7825 55.8106 50.6488 55.7073 50.6549 55.5433L50.6367 55.5493Z" fill="#FF7A5A"/>
<g opacity="0.8">
<path d="M47.6169 60.3119C44.609 60.239 41.8259 62.3719 39.8571 64.4562C37.712 66.7167 36.2719 69.7125 36.5575 72.8784C36.5757 73.1154 36.9464 73.1154 36.9281 72.8784C36.6547 69.8036 38.0402 66.9111 40.1245 64.7175C42.0325 62.7122 44.7184 60.6097 47.623 60.6826C47.86 60.6826 47.86 60.318 47.623 60.3119H47.6169Z" fill="#D8D8D8"/>
</g>
<g opacity="0.8">
<path d="M74.2848 20.7811C76.0471 21.6866 76.8371 23.7283 77.5481 25.4662C78.3071 27.3257 78.6171 29.3249 78.4841 31.3302C78.4651 31.5672 78.8361 31.5672 78.8541 31.3302C78.9941 29.1851 78.6231 27.0705 77.7911 25.0955C77.0501 23.3455 76.2541 21.3767 74.4732 20.4652C74.2605 20.3558 74.0722 20.6778 74.2848 20.7872V20.7811Z" fill="#D8D8D8"/>
</g>
<g opacity="0.8">
<path d="M67.8167 24.7156C68.7403 28.4528 67.9018 32.5241 65.6291 35.6293C64.3713 37.3489 62.6516 38.54 60.9683 39.81C59.3884 41.001 57.9969 42.3439 56.976 44.0575C55.8822 45.8988 55.2502 47.9891 55.1409 50.1342C55.1287 50.3712 55.4994 50.3712 55.5115 50.1342C55.6209 48.056 56.2346 46.0325 57.2981 44.2459C58.4162 42.3622 59.99 40.9828 61.734 39.7006C63.3322 38.5217 64.8756 37.3246 66.0362 35.6961C67.0936 34.2073 67.841 32.4998 68.236 30.7133C68.6796 28.7019 68.6614 26.6176 68.1691 24.6184C68.1145 24.3875 67.7559 24.4847 67.8106 24.7156H67.8167Z" fill="#D8D8D8"/>
</g>
<path d="M89.623 129.076C89.319 128.286 89.276 127.453 89.203 126.615C89.136 125.831 89.07 125.053 88.985 124.275C88.814 122.701 88.577 121.134 88.182 119.602C87.496 116.916 86.305 114.328 84.36 112.316C84.196 112.146 83.935 112.408 84.099 112.578C86.092 114.644 87.259 117.317 87.915 120.076C88.292 121.65 88.511 123.254 88.669 124.859C88.808 126.268 88.748 127.83 89.258 129.173C89.343 129.392 89.702 129.294 89.616 129.076H89.623Z" fill="#FF7A5A"/>
<path d="M49.5769 133.794C50.4276 128.756 51.2662 123.178 48.4102 118.596C48.2825 118.395 47.9666 118.578 48.0942 118.784C50.8955 123.281 50.0569 128.762 49.2244 133.702C49.188 133.933 49.5404 134.037 49.5829 133.8L49.5769 133.794Z" fill="#FF7A5A"/>
<g opacity="0.5">
<path d="M65.3365 104.288C63.9936 103.656 62.4623 103.376 61.0161 103.079C59.4665 102.763 57.9048 102.501 56.331 102.313C52.9767 101.906 49.4887 101.675 46.1405 102.228C45.9035 102.264 46.0068 102.623 46.2377 102.586C49.5008 102.052 52.9098 102.283 56.173 102.665C57.7407 102.854 59.2964 103.109 60.8398 103.425C62.2739 103.717 63.8174 103.984 65.1542 104.61C65.3669 104.713 65.5553 104.391 65.3426 104.288H65.3365Z" fill="#FF7A5A"/>
</g>
<g opacity="0.5">
<path d="M71.0034 104.505C73.0209 102.907 75.6221 102.397 78.0951 101.965C78.3261 101.923 78.2281 101.57 77.9981 101.607C75.4451 102.05 72.8203 102.597 70.7421 104.244C70.5538 104.39 70.8211 104.651 71.0034 104.505Z" fill="#FF7A5A"/>
</g>
<path d="M46.8576 95.5692C48.2066 96.6262 49.902 97.0032 51.5427 97.3622C53.5601 97.8052 55.5958 98.1762 57.6254 98.5282C61.6481 99.2212 65.7498 99.5862 69.6996 98.3102C71.4801 97.7382 73.5279 96.9362 74.6278 95.3382C74.7615 95.1442 74.4455 94.9552 74.3118 95.1502C73.3091 96.6082 71.4011 97.3562 69.7847 97.8962C67.9496 98.5102 66.0354 98.7902 64.1031 98.8142C62.1221 98.8382 60.1593 98.5892 58.2087 98.2552C56.331 97.9332 54.4534 97.5992 52.5878 97.2102C50.7284 96.8212 48.6502 96.5112 47.1128 95.3082C46.9305 95.1622 46.6631 95.4232 46.8515 95.5692H46.8576Z" fill="white"/>
</g>
</svg>
