<svg width="26" height="26" viewBox="0 0 26 26" fill="none" xmlns="http://www.w3.org/2000/svg">
<path fill-rule="evenodd" clip-rule="evenodd" d="M1.58539e-07 12.9324C0.00142243 14.7437 0.387586 16.5341 1.13293 18.185C1.87827 19.8359 2.96578 21.3096 4.32347 22.5086C5.68116 23.7077 7.27805 24.6046 9.00843 25.1401C10.7388 25.6756 12.5632 25.8374 14.3608 25.6149C16.1585 25.3923 17.8883 24.7905 19.4358 23.8492C20.9834 22.9079 22.3133 21.6486 23.3376 20.1546C24.3619 18.6607 25.0572 16.9663 25.3775 15.1835C25.6977 13.4007 25.6356 11.5702 25.1953 9.81315L23.4857 11.4346C23.819 13.8207 23.3448 16.2497 22.1386 18.3353C20.9324 20.4209 19.0634 22.0433 16.829 22.9444C14.5946 23.8456 12.123 23.9737 9.80738 23.3084C7.49176 22.6432 5.46509 21.2227 4.0497 19.273C2.63431 17.3233 1.91149 14.9563 1.99622 12.5485C2.08094 10.1407 2.96834 7.83041 4.51726 5.98502C6.06619 4.13962 8.18769 2.86513 10.5443 2.36427C12.901 1.86341 15.3574 2.16493 17.523 3.22088L18.9668 1.73162C17.0194 0.657414 14.8255 0.1096 12.6017 0.142248C10.3779 0.174896 8.2011 0.786877 6.28607 1.91779C4.37104 3.0487 2.78401 4.65945 1.68164 6.59105C0.579266 8.52265 -0.000349977 10.7083 1.58539e-07 12.9324ZM22.4242 5.30272C22.3292 5.20734 22.2162 5.13166 22.0918 5.08002C21.9675 5.02837 21.8341 5.00179 21.6995 5.00179C21.5648 5.00179 21.4315 5.02837 21.3071 5.08002C21.1827 5.13166 21.0698 5.20734 20.9747 5.30272L11.1496 15.1293L7.58416 11.2839C7.39755 11.0945 7.14454 10.9852 6.87873 10.9791C6.61291 10.9731 6.35517 11.0707 6.1601 11.2514C5.96502 11.432 5.84794 11.6815 5.83365 11.947C5.81935 12.2125 5.90897 12.4732 6.08353 12.6737L10.0895 16.9966C10.2194 17.1366 10.3763 17.249 10.5507 17.3271C10.7251 17.4051 10.9134 17.4472 11.1045 17.4507C11.2955 17.4543 11.4853 17.4193 11.6625 17.3479C11.8397 17.2765 12.0007 17.17 12.1358 17.0349L22.4242 6.74936C22.616 6.55749 22.7237 6.29732 22.7237 6.02604C22.7237 5.75476 22.616 5.49459 22.4242 5.30272Z" fill="#4C9C8B"/>
</svg>
