<svg width="33" height="33" viewBox="0 0 33 33" fill="none" xmlns="http://www.w3.org/2000/svg">
<g clip-path="url(#clip0_379_6671)">
<path fill-rule="evenodd" clip-rule="evenodd" d="M4.49652 4.40008C4.49652 3.35361 4.91223 2.34999 5.6522 1.61003C6.39217 0.870056 7.39578 0.454346 8.44226 0.454346L24.2252 0.454346C25.2717 0.454346 26.2753 0.870056 27.0153 1.61003C27.7552 2.34999 28.1709 3.35361 28.1709 4.40008V6.63534L30.0274 7.62572C30.6586 7.96226 31.1864 8.46403 31.5544 9.07738C31.9224 9.69072 32.1167 10.3926 32.1167 11.1078V28.0745C32.1167 29.121 31.701 30.1246 30.961 30.8646C30.221 31.6045 29.2174 32.0202 28.1709 32.0202H4.49652C3.45004 32.0202 2.44643 31.6045 1.70646 30.8646C0.966492 30.1246 0.550781 29.121 0.550781 28.0745V11.1078C0.55071 10.3926 0.745071 9.69072 1.11308 9.07738C1.48108 8.46403 2.00889 7.96226 2.64005 7.62572L4.49652 6.63534V4.40008ZM4.49652 8.87257L3.56927 9.36579C3.25336 9.53401 2.98916 9.78499 2.80497 10.0919C2.62077 10.3987 2.52353 10.7499 2.52365 11.1078V12.7197L4.49652 13.9034V8.87257ZM6.46939 15.0871L13.8676 19.5261L16.3337 18.0464L18.7998 19.5261L26.1981 15.0871V4.40008C26.1981 3.87685 25.9902 3.37504 25.6202 3.00505C25.2502 2.63507 24.7484 2.42721 24.2252 2.42721H8.44226C7.91902 2.42721 7.41721 2.63507 7.04723 3.00505C6.67724 3.37504 6.46939 3.87685 6.46939 4.40008V15.0871ZM28.1709 13.9034L30.1438 12.7197V11.1078C30.1436 10.7503 30.0462 10.3995 29.862 10.093C29.6778 9.7865 29.4138 9.53582 29.0982 9.36777L28.1709 8.87257V13.9034ZM16.3337 6.33744C19.6166 3.03683 27.8257 8.81142 16.3337 16.2373C4.84177 8.81142 13.0509 3.0388 16.3337 6.33744ZM30.1438 15.02L20.7174 20.6762L30.1438 26.3325V15.02ZM30.0748 28.5934L16.3337 20.3448L2.5927 28.5914C2.70619 29.0094 2.9541 29.3785 3.29817 29.6416C3.64225 29.9048 4.06336 30.0473 4.49652 30.0474H28.1709C28.6041 30.0473 29.0252 29.9048 29.3693 29.6416C29.7134 29.3785 29.9613 29.0114 30.0748 28.5934ZM2.52365 26.3305L11.95 20.6743L2.52365 15.02V26.3305Z" fill="#3A3A3A"/>
</g>
<defs>
<clipPath id="clip0_379_6671">
<rect width="31.5659" height="31.5659" fill="white" transform="translate(0.550781 0.454346)"/>
</clipPath>
</defs>
</svg>
