<svg width="32" height="33" viewBox="0 0 32 33" fill="none" xmlns="http://www.w3.org/2000/svg">
<path d="M11.9661 6.37295C11.9661 7.94266 11.3426 9.44808 10.2326 10.558C9.12264 11.668 7.61722 12.2916 6.04751 12.2916C4.4778 12.2916 2.97238 11.668 1.86243 10.558C0.752472 9.44808 0.128906 7.94266 0.128906 6.37295C0.128906 4.80324 0.752472 3.29782 1.86243 2.18787C2.97238 1.07791 4.4778 0.454346 6.04751 0.454346C7.61722 0.454346 9.12264 1.07791 10.2326 2.18787C11.3426 3.29782 11.9661 4.80324 11.9661 6.37295ZM2.10177 6.37295C2.10177 7.41943 2.51749 8.42304 3.25745 9.16301C3.99742 9.90298 5.00104 10.3187 6.04751 10.3187C7.09399 10.3187 8.0976 9.90298 8.83757 9.16301C9.57754 8.42304 9.99325 7.41943 9.99325 6.37295C9.99325 5.32648 9.57754 4.32286 8.83757 3.58289C8.0976 2.84292 7.09399 2.42721 6.04751 2.42721C5.00104 2.42721 3.99742 2.84292 3.25745 3.58289C2.51749 4.32286 2.10177 5.32648 2.10177 6.37295Z" fill="#3A3A3A"/>
<path d="M17.8854 12.2918C19.4551 12.2918 20.9605 11.6682 22.0705 10.5583C23.1804 9.44833 23.804 7.94291 23.804 6.3732C23.804 4.80348 23.1804 3.29806 22.0705 2.18811C20.9605 1.07816 19.4551 0.45459 17.8854 0.45459C16.3157 0.45459 14.8103 1.07816 13.7003 2.18811C12.5904 3.29806 11.9668 4.80348 11.9668 6.3732C11.9668 7.94291 12.5904 9.44833 13.7003 10.5583C14.8103 11.6682 16.3157 12.2918 17.8854 12.2918ZM13.9397 6.3732C13.9397 5.32672 14.3554 4.32311 15.0953 3.58314C15.8353 2.84317 16.8389 2.42746 17.8854 2.42746C18.9319 2.42746 19.9355 2.84317 20.6755 3.58314C21.4154 4.32311 21.8311 5.32672 21.8311 6.3732C21.8311 7.41967 21.4154 8.42328 20.6755 9.16325C19.9355 9.90322 18.9319 10.3189 17.8854 10.3189C16.8389 10.3189 15.8353 9.90322 15.0953 9.16325C14.3554 8.42328 13.9397 7.41967 13.9397 6.3732Z" fill="#3A3A3A"/>
<path d="M17.8847 12.2915H18.8712C19.8282 12.2914 20.7526 12.6391 21.4723 13.2699C22.1921 13.9007 22.658 14.7716 22.7834 15.7203L28.919 12.9938C29.2193 12.86 29.5483 12.8034 29.8761 12.8291C30.2039 12.8548 30.52 12.962 30.7958 13.1409C31.0716 13.3199 31.2984 13.565 31.4554 13.8539C31.6124 14.1427 31.6947 14.4663 31.6948 14.7951V29.5166C31.6945 29.8451 31.6122 30.1684 31.4553 30.4571C31.2984 30.7457 31.0719 30.9906 30.7964 31.1695C30.5208 31.3484 30.205 31.4557 29.8775 31.4816C29.55 31.5075 29.2212 31.4512 28.9209 31.3178L22.7834 28.5913C22.658 29.5401 22.1921 30.411 21.4723 31.0418C20.7526 31.6726 19.8282 32.0203 18.8712 32.0202H4.07464C3.02817 32.0202 2.02456 31.6045 1.28459 30.8645C0.544617 30.1245 0.128906 29.1209 0.128906 28.0745V16.2372C0.128906 15.1908 0.544617 14.1872 1.28459 13.4472C2.02456 12.7072 3.02817 12.2915 4.07464 12.2915H17.8847ZM29.7219 29.5146V14.797L22.8169 17.8649V26.4468L29.7219 29.5146ZM2.10177 16.2372V28.0745C2.10177 28.5977 2.30963 29.0995 2.67961 29.4695C3.0496 29.8395 3.55141 30.0473 4.07464 30.0473H18.8712C19.3944 30.0473 19.8962 29.8395 20.2662 29.4695C20.6362 29.0995 20.844 28.5977 20.844 28.0745V16.2372C20.844 15.714 20.6362 15.2122 20.2662 14.8422C19.8962 14.4722 19.3944 14.2644 18.8712 14.2644H4.07464C3.55141 14.2644 3.0496 14.4722 2.67961 14.8422C2.30963 15.2122 2.10177 15.714 2.10177 16.2372Z" fill="#3A3A3A"/>
</svg>
