<svg width="39" height="39" viewBox="0 0 39 39" fill="none" xmlns="http://www.w3.org/2000/svg">
<g id="&#236;&#157;&#184;&#236;&#138;&#164;&#237;&#131;&#128;">
<path id="Vector" d="M19.9182 15.1567C17.3946 15.1567 15.3412 17.2102 15.3412 19.7338C15.3412 22.2574 17.3946 24.3108 19.9182 24.3108C22.4418 24.3108 24.4953 22.2574 24.4953 19.7338C24.4953 17.2102 22.4418 15.1567 19.9182 15.1567ZM32.0987 0.713867H7.73452C3.96057 0.713867 0.898315 3.77612 0.898315 7.55007V31.9142C0.898315 35.6914 3.96057 38.7504 7.73452 38.7504H32.0987C35.8759 38.7504 38.9349 35.6882 38.9349 31.9142V7.55007C38.9349 3.77285 35.8726 0.713867 32.0987 0.713867ZM34.2795 28.2905C34.2795 31.4898 31.6743 34.095 28.4749 34.095H11.3616C8.16219 34.095 5.55699 31.4898 5.55699 28.2905V11.1771C5.55699 7.97774 8.16219 5.37254 11.3616 5.37254H28.4782C31.6775 5.37254 34.2827 7.97774 34.2827 11.1771V28.2937L34.2795 28.2905ZM28.4749 7.37378H11.3616C9.26564 7.37378 7.56149 9.07793 7.56149 11.1738V28.2905C7.56149 30.3864 9.26564 32.0905 11.3616 32.0905H28.4782C30.5741 32.0905 32.2782 30.3864 32.2782 28.2905V11.1771C32.2782 9.08119 30.5741 7.37704 28.4782 7.37704L28.4749 7.37378ZM19.9182 26.3153C16.2879 26.3153 13.3367 23.3641 13.3367 19.7338C13.3367 16.1035 16.2879 13.1522 19.9182 13.1522C23.5485 13.1522 26.4998 16.1035 26.4998 19.7338C26.4998 23.3641 23.5485 26.3153 19.9182 26.3153ZM28.0929 13.3873C26.996 13.3873 26.108 12.4993 26.108 11.4024C26.108 10.3054 26.996 9.41745 28.0929 9.41745C29.1899 9.41745 30.0779 10.3054 30.0779 11.4024C30.0779 12.4993 29.1899 13.3873 28.0929 13.3873Z" fill="black"/>
</g>
</svg>
