<svg width="46" height="39" viewBox="0 0 46 39" fill="none" xmlns="http://www.w3.org/2000/svg">
<g id="&#235;&#184;&#148;&#235;&#161;&#156;&#234;&#183;&#184;" clip-path="url(#clip0_370_1938)">
<path id="Vector" d="M10.2381 14.7363C9.3826 14.7363 8.68787 15.3688 8.68787 16.1477C8.68787 16.9266 9.3826 17.5591 10.2381 17.5591C11.0937 17.5591 11.7884 16.9266 11.7884 16.1477C11.7884 15.3688 11.0937 14.7363 10.2381 14.7363Z" fill="black"/>
<path id="Vector_2" d="M25.5432 17.6256C26.4647 17.6256 27.2118 16.9455 27.2118 16.1065C27.2118 15.2675 26.4647 14.5874 25.5432 14.5874C24.6217 14.5874 23.8746 15.2675 23.8746 16.1065C23.8746 16.9455 24.6217 17.6256 25.5432 17.6256Z" fill="black"/>
<path id="Vector_3" d="M39.3976 0.713867H6.43564C3.11062 0.713867 0.416626 3.16655 0.416626 6.19373V24.0033C0.416626 27.0305 3.11062 29.4832 6.43564 29.4832H18.0793L22.0383 37.9764C22.0383 37.9764 22.3114 38.7139 22.9697 38.7139C23.628 38.7139 23.9011 37.9764 23.9011 37.9764L27.8602 29.4832H39.3946C42.7196 29.4832 45.4136 27.0305 45.4136 24.0033V6.19373C45.4136 3.16655 42.7196 0.713867 39.3946 0.713867H39.3976ZM14.554 16.4574C14.5358 19.7139 10.8376 19.805 10.8376 19.805C9.40874 19.805 8.60175 18.9433 8.60175 18.9433V19.5288H5.91079V9.41978C5.91079 9.41978 5.89866 9.41702 5.91079 9.41426V9.41978C6.07765 9.44464 8.60175 9.41426 8.60175 9.41426V13.2811C9.23581 12.2978 11.0652 12.3144 11.0652 12.3144C15.0516 12.6514 14.554 16.4574 14.554 16.4574ZM19.2928 12.6237V19.5454H16.6564V12.6928C16.6564 11.7592 15.3853 11.5024 15.3853 11.5024V9.08558C19.5931 9.24025 19.2897 12.6237 19.2897 12.6237H19.2928ZM25.5393 19.8105C23.1002 19.8105 21.1221 18.1533 21.1221 16.1067C21.1221 14.06 23.1002 12.4028 25.5393 12.4028C27.9785 12.4028 29.9565 14.06 29.9565 16.1067C29.9565 18.1533 27.9785 19.8105 25.5393 19.8105ZM39.9771 19.8105C39.9771 19.8105 40.0135 23.3266 36.0908 23.3266H34.8955V21.0479H35.6145C35.6145 21.0479 37.2649 21.186 37.2436 18.8714C37.2436 18.8714 36.9221 19.8078 34.6073 19.8078C34.6073 19.8078 31.3278 19.5923 31.3278 16.6784V15.5736C31.3278 15.5736 31.4036 12.5519 35.0047 12.3116C35.0047 12.3116 36.4275 12.1735 37.2982 13.2452V12.5022H39.971V19.8078L39.9771 19.8105Z" fill="black"/>
<path id="Vector_4" d="M35.7906 17.59C36.6904 17.59 37.4198 16.9259 37.4198 16.1067C37.4198 15.2876 36.6904 14.6235 35.7906 14.6235C34.8909 14.6235 34.1615 15.2876 34.1615 16.1067C34.1615 16.9259 34.8909 17.59 35.7906 17.59Z" fill="black"/>
</g>
<defs>
<clipPath id="clip0_370_1938">
<rect width="45" height="38" fill="white" transform="translate(0.416626 0.713867)"/>
</clipPath>
</defs>
</svg>
