<svg width="25" height="37" viewBox="0 0 25 37" fill="none" xmlns="http://www.w3.org/2000/svg">
<path d="M6.15368 36.8633C9.53751 36.8633 12.2837 34.1171 12.2837 30.7333V24.603H6.15368C2.76985 24.603 0.0234375 27.3494 0.0234375 30.7333C0.0234375 34.1171 2.76985 36.8633 6.15368 36.8633Z" fill="#0ACF83"/>
<path d="M0.0234375 18.4716C0.0234375 15.0878 2.76985 12.3416 6.15368 12.3416H12.2837V24.6017H6.15368C2.76985 24.6017 0.0234375 21.8554 0.0234375 18.4716Z" fill="#A259FF"/>
<path d="M0.0234375 6.21209C0.0234375 2.82826 2.76985 0.0820312 6.15368 0.0820312H12.2837V12.3423H6.15368C2.76985 12.3423 0.0234375 9.59592 0.0234375 6.21209Z" fill="#F24E1E"/>
<path d="M12.2812 0.0820312H18.4113C21.7951 0.0820312 24.5416 2.82826 24.5416 6.21209C24.5416 9.59592 21.7951 12.3423 18.4113 12.3423H12.2812V0.0820312Z" fill="#FF7262"/>
<path d="M24.5416 18.4716C24.5416 21.8554 21.7951 24.6017 18.4113 24.6017C15.0275 24.6017 12.2812 21.8554 12.2812 18.4716C12.2812 15.0878 15.0275 12.3416 18.4113 12.3416C21.7951 12.3416 24.5416 15.0878 24.5416 18.4716Z" fill="#1ABCFE"/>
</svg>
