<svg width="40" height="39" viewBox="0 0 40 39" fill="none" xmlns="http://www.w3.org/2000/svg">
<path fill-rule="evenodd" clip-rule="evenodd" d="M39.0227 19.4728C39.0227 30.1104 30.4067 38.7263 19.7692 38.7263C9.13159 38.7263 0.515625 30.1104 0.515625 19.4728C0.515625 8.8352 9.13159 0.219238 19.7692 0.219238C30.4067 0.219238 39.0227 8.8352 39.0227 19.4728ZM15.8222 35.8624V32.2764C11.2495 33.3016 10.2627 30.2259 10.2627 30.2259C9.52628 28.2331 8.43846 27.7229 8.43846 27.7229C6.94149 26.6688 8.54676 26.6688 8.54676 26.6688C10.2074 26.7819 11.0738 28.4353 11.0738 28.4353C12.5443 31.0586 14.9245 30.3149 15.8631 29.8601C16.0003 28.7482 16.4359 27.9804 16.898 27.552C13.2398 27.1525 9.41317 25.6724 9.41317 19.0564C9.41317 17.1768 10.0654 15.6389 11.1027 14.4356C10.939 14.0096 10.3662 12.2431 11.2663 9.88692C11.2663 9.88692 12.655 9.43206 15.7909 11.6534C17.1307 11.2783 18.5151 11.0864 19.9063 11.083C21.295 11.083 22.7222 11.2828 24.0218 11.6534C27.1505 9.43206 28.5464 9.88692 28.5464 9.88692C29.4465 12.2503 28.8737 14.0264 28.71 14.4356C29.7738 15.6317 30.3995 17.1792 30.3995 19.0564C30.3995 25.6748 26.5488 27.1188 22.8906 27.552C23.4923 28.0936 24.0964 29.1188 24.0964 30.753V35.7829C27.6917 34.8319 30.8713 32.718 33.1394 29.7708C35.4076 26.8235 36.6367 23.2086 36.6353 19.4896C36.6353 10.1757 29.1023 2.64278 19.7884 2.64278C10.4745 2.64278 2.94157 10.1757 2.94157 19.4896C2.94157 27.4317 8.4529 34.0983 15.8414 35.8792L15.8222 35.8624Z" fill="white"/>
</svg>
