<svg width="19" height="20" viewBox="0 0 19 20" fill="none" xmlns="http://www.w3.org/2000/svg">
<path d="M5.73438 8.21094V6.21094C5.73438 3.44994 6.97338 1.21094 9.73438 1.21094C12.4954 1.21094 13.7344 3.44994 13.7344 6.21094V8.21094M1.23438 16.0109V11.4109C1.23438 10.2909 1.23437 9.73094 1.45237 9.30394C1.64395 8.92726 1.94992 8.62094 2.32638 8.42894C2.75438 8.21194 3.31437 8.21194 4.43437 8.21194H15.0344C16.1544 8.21194 16.7144 8.21194 17.1424 8.42894C17.5187 8.62068 17.8246 8.92663 18.0164 9.30294C18.2344 9.73094 18.2344 10.2909 18.2344 11.4109V16.0109C18.2344 17.1309 18.2344 17.6909 18.0164 18.1189C17.8246 18.4952 17.5187 18.8012 17.1424 18.9929C16.7144 19.2109 16.1544 19.2109 15.0344 19.2109H4.43437C3.31437 19.2109 2.75438 19.2109 2.32638 18.9929C1.95007 18.8012 1.64412 18.4952 1.45237 18.1189C1.23437 17.6919 1.23438 17.1319 1.23438 16.0109Z" stroke="#5F5F5F" stroke-width="1.5" stroke-linecap="round" stroke-linejoin="round"/>
</svg>
