<svg width="19" height="21" viewBox="0 0 19 21" fill="none" xmlns="http://www.w3.org/2000/svg">
<path d="M5.73438 8.71094V6.71094C5.73438 3.94994 6.97338 1.71094 9.73438 1.71094C11.8284 1.71094 13.0474 2.99894 13.5144 4.82494M13.7344 12.7109V15.7109M1.23438 16.5109V11.9109C1.23438 10.7909 1.23437 10.2309 1.45237 9.80394C1.64395 9.42726 1.94992 9.12094 2.32638 8.92894C2.75438 8.71194 3.31437 8.71194 4.43437 8.71194H15.0344C16.1544 8.71194 16.7144 8.71194 17.1424 8.92894C17.5187 9.12068 17.8246 9.42663 18.0164 9.80294C18.2344 10.2309 18.2344 10.7909 18.2344 11.9109V16.5109C18.2344 17.6309 18.2344 18.1909 18.0164 18.6189C17.8246 18.9952 17.5187 19.3012 17.1424 19.4929C16.7144 19.7109 16.1544 19.7109 15.0344 19.7109H4.43437C3.31437 19.7109 2.75438 19.7109 2.32638 19.4929C1.95007 19.3012 1.64412 18.9952 1.45237 18.6189C1.23437 18.1919 1.23438 17.6319 1.23438 16.5109Z" stroke="#5F5F5F" stroke-width="1.5" stroke-linecap="round" stroke-linejoin="round"/>
</svg>
