<svg xmlns="http://www.w3.org/2000/svg" width="492" height="364" viewBox="0 0 492 364" fill="none">
<path d="M230.485 363.749C208.02 363.749 185.704 361.992 164.398 358.462C140.48 354.498 118.538 348.457 99.1757 340.499C79.0146 332.217 62.1608 322.053 49.081 310.292C34.116 296.839 22.3231 278.555 14.0241 255.949C6.39284 235.161 1.99948 211.621 0.968602 185.982C-1.01706 136.716 9.92828 85.8554 30.2484 49.9312C40.8997 31.1011 53.426 17.4272 67.4812 9.2865C82.8441 0.388444 99.3832 -1.44788 116.638 3.82939C187.084 25.3708 222.089 18.5477 250.217 13.0629C264.57 10.2652 276.965 7.85133 291.193 9.83636C320.251 13.8963 434.821 62.1353 476.471 139.13C495.591 174.473 496.591 210.843 479.436 247.227C466.322 275.045 444.096 298.803 413.373 317.838C385.394 335.17 351.662 347.9 313.115 355.671C286.447 361.045 258.353 363.749 230.489 363.749H230.485ZM97.8058 2.99596C72.7256 2.99596 49.8455 19.4987 32.0542 50.9548C11.9174 86.554 1.07238 137.003 3.0442 185.899C4.06817 211.32 8.42001 234.65 15.9752 255.233C24.1565 277.518 35.7626 295.525 50.4717 308.749C63.375 320.348 80.0282 330.388 99.9678 338.58C119.188 346.475 140.978 352.479 164.744 356.414C212.234 364.282 264.781 363.296 312.707 353.637C351.012 345.915 384.515 333.279 412.284 316.074C442.66 297.254 464.623 273.793 477.565 246.345C494.422 210.591 493.439 174.853 474.652 140.119C452.374 98.9379 409.997 67.9002 378.372 49.115C338.278 25.3016 303.449 13.6473 290.909 11.894C277.023 9.95394 264.788 12.3401 250.618 15.1033C222.266 20.6295 186.977 27.5114 116.033 5.81788C109.862 3.92968 103.773 2.99596 97.8092 2.99596H97.8058Z" fill="#A97D5E"/>
</svg>