<svg width="228" height="104" viewBox="0 0 228 104" fill="none" xmlns="http://www.w3.org/2000/svg">
<g id="XMLID_1_">
<g id="XMLID_2_">
<path id="XMLID_62_" d="M212.598 1.63184L123.448 38.8105C123.448 38.8105 43.0579 36.1984 38.4179 42.7235C33.7779 49.2485 56.4579 53.1615 69.3379 53.1615C69.3379 53.1615 10.5879 55.7735 8.5279 62.949C6.4679 70.1246 46.6679 66.8621 67.7879 64.9106C67.7879 64.9106 2.8579 68.8236 2.3379 78.6111C2.0579 83.8551 31.7079 84.4856 68.8179 77.3101C68.8179 77.3101 22.9479 87.7481 22.9479 92.3116C22.9479 96.8752 54.3879 94.2732 75.5079 87.7481C96.6379 81.2231 102.818 85.1361 102.818 85.1361C102.818 85.1361 70.3579 97.5157 71.9079 100.778C73.4579 104.041 103.858 100.128 128.598 84.4656C153.338 68.8136 227.548 50.5495 227.548 50.5495" fill="white"/>
<g id="XMLID_3_">
<g id="XMLID_4_">
<g id="XMLID_5_">
<g id="XMLID_6_">
<path id="XMLID_61_" d="M227.858 51.8504C228.228 51.5802 227.898 51.2599 226.788 51.6202L226.138 52.4709L227.858 51.8504Z" fill="#A97D5E"/>
<path id="XMLID_60_" d="M219.919 52.6111C218.669 53.2716 217.269 54.2224 218.289 54.5826C219.449 53.6219 219.829 53.792 221.069 52.6812C222.189 52.3109 223.109 52.3709 222.979 52.6612C223.339 52.391 224.779 52.3509 225.289 51.7905C223.679 51.6704 221.799 52.1308 219.949 53.0515C219.489 53.0314 219.849 52.7512 219.919 52.6111Z" fill="#A97D5E"/>
<path id="XMLID_59_" d="M112.489 91.8511L113.189 91.6311C112.989 91.6711 112.749 91.7611 112.489 91.8511Z" fill="#A97D5E"/>
<path id="XMLID_58_" d="M97.1488 88.7589C96.6588 88.9791 96.4688 89.1192 96.4688 89.1892C96.9188 88.9591 97.2788 88.7689 97.1488 88.7589Z" fill="#A97D5E"/>
<path id="XMLID_57_" d="M97.5781 81.9937C97.8581 82.0237 98.0881 82.0537 98.3481 82.0937C98.0481 82.0037 97.7581 81.9537 97.5781 81.9937Z" fill="#A97D5E"/>
<path id="XMLID_56_" d="M112.489 91.8511L110.669 92.3915C110.629 92.6417 111.619 92.1713 112.489 91.8511Z" fill="#A97D5E"/>
<path id="XMLID_55_" d="M205.068 58.2854C205.438 58.1453 205.748 58.0052 206.018 57.8451C205.708 57.9552 205.408 58.0653 205.108 58.1753C205.098 58.2054 205.088 58.2354 205.068 58.2854Z" fill="#A97D5E"/>
<path id="XMLID_54_" d="M140.018 76.8997L140.548 76.6696C140.678 76.5295 140.788 76.3894 140.888 76.2292L140.018 76.8997Z" fill="#A97D5E"/>
<path id="XMLID_53_" d="M162.509 68.0129C161.979 68.1631 161.989 68.7635 161.879 69.0638C162.089 68.7335 162.439 68.5033 162.879 68.3132C162.849 68.2031 162.739 68.103 162.509 68.0129Z" fill="#A97D5E"/>
<path id="XMLID_52_" d="M199.268 57.5547L199.898 57.2947C199.738 57.3647 199.458 57.4747 199.268 57.5547Z" fill="#A97D5E"/>
<path id="XMLID_51_" d="M124.669 85.006C124.589 84.956 124.479 84.936 124.379 84.946C124.419 84.996 124.529 85.016 124.669 85.006Z" fill="#A97D5E"/>
<path id="XMLID_50_" d="M185.848 9.9283C185.848 9.9683 185.878 9.9883 185.888 10.0183C185.988 9.9083 186.018 9.8583 185.848 9.9283Z" fill="#A97D5E"/>
<path id="XMLID_49_" d="M212.649 1.76196L212.299 1.94211C212.299 2.05219 212.299 2.17229 212.339 2.26236L212.649 1.76196Z" fill="#A97D5E"/>
<path id="XMLID_48_" d="M74.8594 85.066C74.8994 85.056 74.9194 85.056 74.9594 85.046C75.5094 84.826 75.1894 84.926 74.8594 85.066Z" fill="#A97D5E"/>
<path id="XMLID_47_" d="M32.9085 70.765C30.5585 70.5949 36.5185 69.6041 33.0185 69.5341C33.3685 69.6942 30.0385 70.8551 32.9085 70.765Z" fill="#A97D5E"/>
<path id="XMLID_46_" d="M204.448 58.3754C204.138 58.4654 203.818 58.5554 203.498 58.6454C203.938 58.5454 204.228 58.4654 204.448 58.3754Z" fill="#A97D5E"/>
<path id="XMLID_45_" d="M33.0182 69.5342L32.6582 69.5242C32.8082 69.5242 32.8882 69.5242 33.0182 69.5342Z" fill="#A97D5E"/>
<path id="XMLID_44_" d="M29.1775 92.0015C29.0375 92.0915 28.9775 92.1615 28.9375 92.2415C29.0175 92.1915 29.0775 92.1315 29.1775 92.0015Z" fill="#A97D5E"/>
<path id="XMLID_43_" d="M62.6878 89.3593L61.7578 89.4793C62.1278 89.4493 62.4278 89.4093 62.6878 89.3593Z" fill="#A97D5E"/>
<path id="XMLID_42_" d="M38.418 86.9375C38.918 86.8274 39.108 86.8574 39.748 86.5772C39.678 86.5672 39.608 86.5672 39.528 86.5772C39.308 86.7273 38.998 86.8574 38.418 86.9375Z" fill="#A97D5E"/>
<path id="XMLID_41_" d="M58.2075 81.5033C58.0875 81.4833 57.9475 81.4933 57.8075 81.4833C57.6075 81.5433 57.3875 81.6133 57.1875 81.6733L58.2075 81.5033Z" fill="#A97D5E"/>
<path id="XMLID_40_" d="M128.138 34.2869C128.618 34.2569 128.938 34.3169 129.208 34.387C128.758 34.1368 131.499 32.8458 128.138 34.2869Z" fill="#A97D5E"/>
<path id="XMLID_39_" d="M204.979 57.9852C204.899 58.1554 204.749 58.2655 204.459 58.3856C204.689 58.3155 204.899 58.2454 205.109 58.1754C205.139 58.0653 205.129 57.9852 204.979 57.9852Z" fill="#A97D5E"/>
<path id="XMLID_38_" d="M37.918 82.4442L41.118 81.5835C40.218 81.7937 39.048 82.1039 37.918 82.4442Z" fill="#A97D5E"/>
<path id="XMLID_37_" d="M48.9492 52.2106L49.6992 52.0806C49.4092 52.0906 49.1392 52.1306 48.9492 52.2106Z" fill="#A97D5E"/>
<path id="XMLID_36_" d="M50.5293 78.9014C51.1493 78.9414 51.7793 78.9014 52.4193 78.8113C52.5393 78.7313 52.6793 78.6612 52.7493 78.5712L50.5293 78.9014Z" fill="#A97D5E"/>
<path id="XMLID_30_" d="M148.608 24.8497C145.718 26.0406 147.538 26.0806 147.088 26.7311C143.728 28.3624 145.288 26.8913 143.978 27.0314C141.908 28.1022 140.518 29.4232 138.908 30.0637C138.738 30.0036 138.418 30.0937 138.718 29.7935C136.678 31.2846 131.998 32.6257 129.638 34.417C129.418 34.4371 129.298 34.4271 129.218 34.387C129.788 34.5471 129.998 34.8674 130.018 35.1576C128.728 35.708 127.798 36.5887 127.128 36.3485C127.928 36.0283 127.918 35.8281 128.228 35.5279L126.958 36.2785C125.478 36.1484 128.708 35.2877 128.518 34.8073C127.608 35.2677 126.668 35.7981 125.738 36.3185C124.878 36.7889 124.018 37.2492 123.238 37.6695C123.108 37.6796 122.978 37.6796 122.858 37.6796C122.678 37.6796 122.508 37.6796 122.338 37.6695C121.978 37.6595 121.638 37.6395 121.318 37.5995C121.198 37.4194 121.508 37.3293 121.958 37.2792C122.188 37.2592 122.448 37.2392 122.718 37.2292C122.868 37.2192 123.018 37.2092 123.158 37.1992C123.358 37.0891 123.508 36.999 123.608 36.899C123.628 36.8589 123.588 36.8389 123.448 36.8489C123.338 36.8489 123.248 36.8189 123.098 36.8089C123.098 36.8089 123.178 36.7889 123.308 36.7689C123.328 36.7789 123.588 36.6788 123.748 36.6287C123.938 36.5687 124.138 36.4986 124.338 36.4286C125.148 36.1584 125.948 35.8982 125.948 35.8982C123.148 35.9082 127.878 35.1776 125.238 35.0275C124.618 35.2577 124.078 35.4679 123.608 35.658C123.388 35.7481 123.188 35.8381 122.998 35.9182L122.928 35.9682C122.888 35.9782 122.888 35.9883 122.808 35.9983C122.578 36.0083 122.348 36.0183 122.128 36.0183C121.678 36.0383 121.248 36.0483 120.778 36.0683C119.838 36.0883 118.748 36.0883 117.188 35.9782C116.178 36.3285 117.508 36.5487 116.498 36.899C110.158 37.4394 111.548 35.0776 106.878 35.9082C105.668 36.3385 105.188 37.1892 101.878 36.6988L103.018 35.9482C98.6885 35.8281 100.538 37.019 96.0185 36.4686C96.8285 36.1684 99.4185 36.2384 98.7685 36.1484C95.8385 35.5179 96.6885 36.5687 94.4385 36.5587L93.9785 35.8782C89.3685 35.9682 84.2985 36.4686 79.1985 36.6488C79.4785 36.4386 80.3485 36.2184 79.1585 36.0283C72.7185 36.4486 65.4085 36.2084 59.1485 36.1684L56.7985 36.899C56.2485 36.929 55.7485 36.7088 56.3485 36.5487C53.8985 36.4986 56.2485 36.929 55.0985 37.2392C53.7185 37.3893 53.2385 37.0491 54.1085 36.7989C51.9685 37.1992 48.9285 37.7696 45.8485 38.3501C44.2985 38.6503 42.7485 38.9705 41.2385 39.3508C39.9985 39.6511 37.4785 40.4117 36.5485 41.9128C36.5485 41.9128 36.6585 41.5826 36.8585 41.3023C36.9485 41.1522 37.0485 41.0121 37.1385 40.912C37.2185 40.812 37.2785 40.7419 37.2785 40.7419C36.9985 40.9621 36.7685 41.2123 36.5785 41.4625C36.4085 41.7227 36.2785 42.0029 36.1385 42.2531C35.9885 42.5033 35.9185 42.7635 35.8585 43.0137C35.7985 43.2639 35.7285 43.494 35.7485 43.7342C35.6685 44.6749 36.0485 45.4055 36.3985 46.036C36.6185 46.3362 36.8485 46.6164 37.0885 46.8866C37.3785 47.1268 37.6085 47.4171 37.9385 47.6672C38.6085 48.2177 39.1785 48.658 39.8885 49.2084L39.2285 48.9382C41.0385 50.1391 42.9785 50.8797 44.9085 51.4902C46.8385 52.0906 48.7785 52.551 50.6685 52.9413C54.4385 53.7219 57.9885 54.2623 60.8885 54.9929C61.4885 54.6226 63.3785 54.8928 65.2185 55.0329C67.0485 55.183 68.8285 55.2131 69.0785 54.6226C69.2085 54.6426 69.3285 54.6626 69.3585 54.6726L69.2885 51.6203C65.2485 51.28 66.2485 50.9998 60.2885 50.9798C58.6485 51.0298 57.9085 51.8705 55.8985 52.1407L55.8085 51.5302L53.1185 52.3809L51.6085 51.7604L49.7285 52.0706C50.4885 52.0406 51.3485 52.2207 51.2485 52.4009C48.3185 52.9013 44.0185 52.581 43.9185 52.2808C43.9185 52.2808 42.1885 52.581 40.4485 52.8813C38.7185 53.1915 36.9885 53.5117 36.9885 53.5117C37.1185 53.2515 38.2785 53.0314 39.1885 52.7812C35.5285 53.812 38.4385 52.2007 35.0885 53.1615C35.5585 53.2415 34.8785 53.5518 34.8185 53.6919C33.0685 53.5117 29.1885 54.0021 26.3385 54.6026L26.8285 54.1022C24.2185 54.4425 21.4885 54.9428 18.6685 55.6034C17.2585 55.9336 15.8285 56.3039 14.3685 56.7442C13.6385 56.9644 12.9085 57.2046 12.1585 57.4748L11.5785 57.685L10.6785 58.0552C10.0585 58.2954 9.50846 58.6157 8.94846 58.9159C10.6285 58.0953 11.4285 58.1353 11.3885 58.3555C11.3685 58.6057 10.6485 59.066 9.61846 59.6965C9.63846 59.6665 8.19846 59.8066 8.20846 59.8466C7.71846 60.4871 8.30846 60.0968 8.70846 59.8766C8.92846 59.7766 9.10846 59.7165 9.07846 59.8066C9.04846 59.8866 8.80846 60.1468 8.35846 60.6773C7.28846 61.618 7.03846 62.0683 6.82846 61.9482C6.66846 61.8482 6.66846 61.1876 7.19846 60.4571C6.95846 60.7073 6.81846 60.9975 6.63846 61.2777C6.51846 61.5779 6.38846 61.8582 6.27846 62.1784C6.14846 62.7188 6.08846 63.3293 6.19846 63.9097C6.01846 64.1599 5.83846 63.2592 5.65846 62.999C5.69846 63.4094 5.70846 64.0699 5.91846 64.7904C6.13846 65.501 6.50846 66.2415 7.13846 66.902C7.74846 67.5726 8.66846 68.143 9.63846 68.5233C10.6185 68.9036 11.6285 69.0837 12.3585 69.0737L12.4785 69.3039C15.6585 69.9344 17.8185 69.9744 19.8685 70.0545C21.9085 70.1045 23.7885 70.0945 26.1985 70.0845C26.2985 69.5241 28.1685 69.6542 29.5885 69.1738C33.0985 69.3039 36.9985 69.6041 41.2085 69.3339C44.1485 68.8936 42.0485 68.8135 43.3585 68.4032C43.6085 68.9036 47.7985 68.5933 45.6485 69.1037C50.6785 68.6934 52.0785 68.5733 58.3985 67.6426C57.6885 67.4925 56.9085 67.4625 57.2985 67.2523C58.4485 67.0722 59.9385 67.2523 59.7885 67.5025L59.4885 67.5826C62.0885 67.0822 65.0285 66.9421 67.9785 66.892L67.6685 62.889C62.5885 62.8289 57.4885 62.6087 53.9585 63.6095L54.2685 63.5294L48.4285 64.6503C45.7085 64.8405 50.0185 64.0999 47.9785 63.9898C41.7185 65.511 37.9185 64.9806 32.7685 66.2816C30.6385 65.8212 27.0485 66.3816 23.2985 67.1522C19.5485 67.9228 15.6585 68.9436 12.7985 69.2238L13.2085 69.484C11.8885 70.2046 11.4485 69.7542 10.3785 70.0044C10.6085 70.2146 11.9985 69.8543 11.1785 70.2947C9.32846 70.9251 7.45846 71.5856 5.55846 72.4863C5.07846 72.7065 4.59846 72.9667 4.11846 73.2269C3.92846 73.347 3.51846 73.5772 3.18846 73.8074L2.21846 74.5479C1.00846 75.5987 0.158463 76.9097 0.00846338 78.3809C-0.0115366 78.7712 -0.00153662 79.1815 0.0984634 79.5818C0.198463 79.9721 0.368463 80.3424 0.568463 80.6827C0.988463 81.3432 1.58846 81.9136 2.32846 82.374C3.06846 82.8343 3.91846 83.2046 4.80846 83.4948C5.04846 83.5749 5.23846 83.6249 5.35846 83.675L5.78846 83.8051C6.07846 83.8851 6.35846 83.9652 6.64846 84.0352C8.91846 84.5957 11.1285 84.9059 13.3385 85.1461C17.7485 85.6164 22.1085 85.7766 26.3985 85.7365C30.9685 85.6265 28.8885 83.8151 34.6485 84.2654L33.0785 85.046C42.1585 83.6249 51.7285 83.2246 60.4485 81.093C59.9485 81.3332 59.9685 81.5233 59.0985 81.6634C61.0485 81.8435 65.9885 80.5025 65.9485 80.1022C67.3285 79.892 66.3285 80.3924 67.2085 80.4325C67.8685 80.4124 68.6085 80.2223 69.3385 80.0021L68.1985 74.5779C66.7985 75.0483 65.4485 75.6588 64.7285 75.5087C64.5485 75.4686 65.2085 75.2385 65.5385 75.1184C64.3885 75.6188 59.9485 76.3994 61.2285 76.6596C57.9185 77.2 55.0785 78.4409 52.4185 78.7912C50.8885 79.822 46.7985 79.9721 46.4985 80.9729C46.4885 80.0221 40.6385 81.8435 38.7285 82.8843C39.3285 82.414 36.8785 83.1546 37.5685 82.5441C35.2485 83.2646 33.1685 84.1353 33.7185 84.4455C32.5685 84.5356 31.4685 84.8358 30.4285 85.2161C29.9085 85.4063 29.3985 85.6265 28.9085 85.8566C28.5885 86.0067 28.2785 86.1469 27.9685 86.297C27.5685 86.4871 27.1785 86.6572 26.8085 86.8474C25.3185 87.588 24.0785 88.3185 23.1085 88.979C22.1285 89.6395 21.4085 90.24 20.6885 90.7904C20.4985 91.2108 20.4585 91.6211 20.3785 92.1415C20.3285 92.6719 20.5185 93.3224 20.7785 93.7427C21.3185 94.6034 22.0585 95.1438 23.0885 95.5941C24.0885 96.0445 25.3985 96.3247 26.7885 96.4748C27.4785 96.5449 28.1885 96.5949 28.8885 96.6249L29.9385 96.6549H30.7585C34.2285 96.5649 37.5185 96.2546 40.7485 95.8944C40.6685 96.3547 38.8785 96.5248 37.1285 96.6349C35.3885 96.755 33.6985 96.8151 33.8485 97.2854C36.9885 97.0352 39.4085 96.5749 41.8085 96.1546C44.2085 95.7242 46.5885 95.3339 49.6285 95.0337C51.2085 94.9436 48.7885 95.5441 48.2785 95.7643C54.3285 94.6134 60.0685 94.0529 65.3285 92.3817C65.3285 92.4617 64.7785 92.6819 64.2385 92.872C65.2885 92.6118 66.7185 92.4517 66.5085 92.0814L65.5085 92.4217C63.7085 92.2315 69.3985 90.25 69.4885 89.8697C68.0085 91.491 74.7685 88.7689 72.3585 90.9606C73.0285 90.7004 73.8385 90.26 73.5985 90.0499C74.6385 89.8397 75.0085 89.8897 74.0585 90.4902C75.9085 89.8297 76.4385 89.4894 76.9385 89.2092C77.4385 88.919 77.9085 88.6788 79.5485 88.1984C79.5885 88.3986 78.9485 88.6588 78.6785 88.979C79.4485 88.5387 80.2385 88.1284 81.1885 87.7681C82.1385 87.3978 83.2385 87.0475 84.6685 86.8374C84.5285 86.9875 84.8785 87.0776 84.0485 87.2477C85.2485 86.9775 86.3485 86.6472 87.4185 86.377C88.4885 86.0768 89.5185 85.8066 90.5685 85.5764C92.6685 85.1161 94.9085 84.7558 97.5585 85.086C95.9785 85.8366 99.3285 85.4863 99.4485 86.307C99.4485 86.307 99.6085 86.327 99.8485 86.347C100.088 86.367 100.418 86.397 100.718 86.4571C101.348 86.5572 101.848 86.7173 101.808 86.7073C101.828 86.7073 101.688 86.5572 101.498 86.387C101.298 86.2269 101.088 86.0668 101.088 86.0668C101.418 86.1669 101.738 86.277 102.048 86.377L102.318 83.725C100.458 84.5757 98.8485 85.5564 97.0885 86.0468L98.7685 85.046L94.2885 87.0075L96.9585 86.2269C94.6585 87.578 97.5685 86.9875 94.2885 88.1084C94.9085 87.7681 91.8785 89.0891 90.4585 89.2192L90.4685 89.2092C89.3785 89.9298 88.2585 90.6803 86.4285 91.2908C85.8785 91.2808 86.4585 90.3701 86.0985 90.3601C85.1885 91.4309 80.5885 93.0522 79.4385 94.3932C79.8485 94.0129 79.7085 93.6526 79.5085 93.6526L78.7785 94.5834C78.4585 94.6934 78.1985 94.7835 78.0085 94.8536C77.7785 94.9336 77.6085 94.9837 77.4885 95.0037C77.2385 95.0437 77.1685 94.9736 77.1885 94.7835C74.8785 95.9844 75.5485 95.9344 75.9585 95.9044C76.3885 95.9144 76.6185 95.8643 74.2385 97.1453C74.5085 96.9151 74.2385 96.9952 74.8785 96.4948C73.6385 97.2054 72.6385 97.976 71.9685 98.7265C71.6185 99.1068 71.3285 99.4771 71.1185 99.9175C71.0185 100.128 70.9085 100.368 70.9185 100.648C70.9185 100.928 71.0585 101.218 71.2585 101.389C72.0585 102.069 73.0285 102.249 74.0585 102.449C75.0985 102.62 76.2285 102.69 77.4185 102.73C77.9585 103.09 76.7485 103.19 75.6185 103.15C74.4985 103.12 73.5485 102.92 73.9885 103.34C75.7785 103.62 78.1085 103.47 80.2585 103.2C80.8785 103.12 81.1185 103.07 81.5285 103L82.6385 102.79L84.8385 102.329C87.7585 101.679 90.5985 100.928 93.3185 100.348L92.2885 100.508C92.7885 99.307 96.4485 100.038 99.0285 98.7265C98.3885 98.9967 98.3285 99.5472 98.4685 99.387C102.188 98.4663 105.888 96.8251 111.118 94.3532L110.558 94.8736C112.748 94.2731 116.078 92.6919 118.328 91.7412C118.858 91.1807 120.128 90.6003 119.198 90.6203C122.898 89.6496 125.968 87.698 128.788 85.6565C131.608 83.735 134.318 81.8035 137.598 81.0329C136.898 81.3732 136.028 82.0537 136.588 81.7935C136.588 81.7935 137.808 81.133 139.028 80.4725C139.638 80.1422 140.248 79.802 140.718 79.5718C141.188 79.3416 141.508 79.1915 141.508 79.1915C140.918 78.9513 140.708 79.2015 139.508 79.3917C140.018 78.8112 141.398 78.0206 142.678 77.4602C140.478 78.7412 142.998 78.1307 144.098 77.9405C143.878 77.8805 144.158 77.5903 144.018 77.5002C147.028 77.1199 144.098 76.4194 148.008 75.4086L147.898 75.7088C149.248 75.0483 150.418 74.2477 151.948 73.7273C152.768 73.9875 150.548 74.5379 150.618 74.9883C152.718 74.1476 154.418 72.3863 156.548 72.2161C155.688 72.6765 154.388 73.1569 153.548 73.6572C155.848 73.4271 156.048 73.2269 157.638 72.7465L157.478 72.7866L161.178 71.7458L160.198 71.9159C162.388 69.6141 165.558 69.7643 168.888 67.6726C165.638 69.6842 168.468 68.3432 168.388 69.0137C169.368 68.8636 170.828 68.5633 170.478 68.8636C172.028 67.8127 173.458 68.3031 175.668 66.832C175.838 66.9821 177.508 66.2616 177.278 66.852C179.468 65.9913 176.648 66.7019 176.758 66.4017C178.378 65.521 180.468 65.0706 182.748 64.5602C185.028 64.0499 187.468 63.4194 189.838 62.2485C194.038 60.6172 194.648 59.7265 198.578 58.2754C200.018 58.1853 197.668 59.2762 197.668 59.2762C199.928 58.9259 201.558 58.4055 203.558 57.6049C203.188 57.8851 203.658 57.9051 204.348 57.9452C205.988 57.4348 205.268 56.9544 207.528 56.6241C207.208 56.9344 206.828 57.4047 206.088 57.8351C207.988 57.1245 209.818 56.2338 211.798 55.5233C212.428 55.7034 210.708 56.3539 210.058 56.7542C212.288 55.9936 215.868 54.8628 216.428 54.1622L214.918 54.3624C215.738 54.1122 215.468 54.6926 214.878 54.9528C213.038 55.8836 212.018 55.5333 211.858 55.3732L213.268 54.8628C211.488 54.1522 207.528 56.6141 204.618 57.3547L205.598 56.2138L202.808 57.705C202.118 57.6749 201.558 57.3547 202.958 56.8243C200.768 57.0144 201.208 57.6349 199.298 57.695C199.078 57.685 199.158 57.6149 199.338 57.5348L197.378 58.3555C197.728 58.0753 196.878 57.8851 198.158 57.6449C194.378 58.2154 192.478 59.9567 190.928 59.7465L191.218 59.6064C186.268 61.3678 190.908 60.337 187.338 62.1384L184.368 61.4779L184.058 62.2184C183.538 62.3585 182.498 62.6288 182.618 62.3385C180.818 63.3293 183.028 62.4886 182.028 63.2092C179.368 63.4194 175.258 65.6211 174.398 64.8705C173.648 65.601 176.878 64.4502 174.328 65.611C173.248 64.8705 171.318 66.7419 168.918 67.0722C169.438 66.3216 171.668 65.8712 169.258 66.1815C168.188 67.5125 164.798 67.4825 162.948 68.3031C163.088 68.9937 158.928 70.0645 155.838 71.4355C155.938 71.0853 149.768 73.337 146.738 74.2377L146.778 74.0876C146.488 74.9883 143.458 76.1592 141.348 77.22C141.258 76.7797 141.578 76.4594 142.678 75.7689L140.628 76.6495C140.238 77.0799 139.648 77.4402 138.388 78.1607L138.658 77.4201C135.988 78.7712 133.518 80.5125 130.028 82.1938C130.118 82.7342 133.358 81.9336 130.068 84.2054C129.798 84.0452 129.418 83.715 130.278 83.0945C129.998 83.2947 129.328 83.9051 128.668 84.1453L129.828 82.9444C128.218 83.6449 129.228 83.715 128.028 84.3955C127.838 84.0452 127.018 84.6957 127.018 84.3255C127.298 84.1153 128.098 83.8251 128.498 83.4348C127.128 84.1853 125.438 84.9559 124.748 84.996C124.978 85.1161 125.018 85.4663 124.068 86.0668C121.538 87.5179 122.968 86.1469 121.388 86.7773C120.898 87.3578 119.118 87.9482 119.348 88.4987C118.588 88.879 118.318 88.6988 117.958 88.7088C116.738 89.6496 111.598 91.7211 113.408 91.6011L113.778 91.481C113.718 91.521 113.638 91.561 113.558 91.6011C113.568 91.6011 113.558 91.6011 113.568 91.6011H113.558C109.228 94.153 103.868 95.1438 99.2485 96.8051L99.1985 96.6149C96.4585 97.6957 92.9485 98.5064 90.9885 99.377C90.1385 99.5772 88.9085 99.4571 89.2185 99.1569C87.0585 99.7373 86.8385 100.038 83.5985 100.208C85.7585 99.5171 82.7885 100.038 85.8285 99.5972C84.3885 99.7573 83.4985 99.7673 82.5885 99.8574C82.1385 99.8974 81.6785 99.9675 81.1485 100.068C81.0185 100.098 80.8785 100.128 80.7385 100.158L80.5185 100.208C80.4585 100.228 80.4285 100.238 80.3785 100.248C80.1785 100.318 79.9685 100.388 79.7285 100.468C80.1085 100.178 79.8085 100.048 79.4685 99.9875C79.1085 99.9275 78.6285 99.9475 78.1985 100.008C78.1985 100.008 78.3085 100.108 78.4785 100.208C78.6485 100.298 78.8785 100.388 78.8785 100.388C77.8985 100.498 77.0885 100.438 76.4085 100.238C76.4085 100.238 76.8485 100.088 77.2885 99.9475C77.6885 99.7874 78.0885 99.6272 78.0885 99.6272C78.0085 99.4871 77.9185 99.3971 77.7985 99.2569C77.6485 99.1068 77.7885 98.8666 77.8585 98.7666C77.9285 98.6465 77.9985 98.5264 78.0585 98.4063C78.1885 98.1661 78.3685 97.8959 78.6985 97.5857C78.8585 97.4355 79.0585 97.2754 79.2785 97.1253C79.4085 97.0452 79.4685 96.9952 79.6585 96.8951C79.8885 96.775 80.1185 96.6549 80.3485 96.5449C81.2785 96.1045 82.2385 95.7843 83.2685 95.6242C84.4885 94.5233 80.2185 96.725 81.2485 95.6242C83.7585 94.4933 86.7585 94.2031 87.5485 93.8628C91.1385 92.6919 90.3785 91.561 94.1185 90.27C93.5585 90.25 92.8685 89.8397 95.5285 88.5087C98.1285 87.5479 99.0485 88.1584 97.5085 88.989C96.8985 89.2592 96.5785 89.3093 96.5785 89.2192C95.7885 89.6395 94.7485 90.17 95.8485 89.9998L96.0885 89.6395C97.4485 89.3393 100.958 87.9182 100.268 88.6088C102.118 87.638 100.948 87.9182 99.4685 88.3686C101.108 87.8982 102.368 87.4078 103.598 86.9275L107.208 85.5064L103.938 83.5449C103.698 83.4047 103.628 83.3747 103.488 83.3147C103.358 83.2446 103.258 83.2146 103.148 83.1746C102.918 83.0845 102.708 83.0144 102.498 82.9444C102.068 82.7943 101.658 82.7142 101.218 82.5941C100.358 82.414 99.4485 82.2539 98.4385 82.1138C99.0485 82.2739 99.5985 82.6542 98.9785 82.5641C97.5585 82.3539 96.6985 82.3439 96.1485 82.374C95.5885 82.394 95.3385 82.464 95.1485 82.5641C94.7685 82.7542 94.5985 82.9244 92.7585 83.1245C91.6985 83.0345 91.8585 82.8043 91.8285 82.6742C91.8085 82.5541 91.5685 82.484 89.7285 82.8944C87.4185 82.9544 89.1485 82.3339 90.0485 82.0237C86.6885 82.9144 83.6585 82.8343 81.7185 83.2046C81.7185 83.2046 82.1385 83.0345 82.5785 82.9044C83.0085 82.7642 83.4485 82.6141 83.4485 82.6141C82.4085 82.9444 81.5485 83.1646 80.6785 83.3847L81.7885 83.5949C80.7485 83.775 79.8785 83.9952 79.8485 83.795C78.8785 84.3655 80.8485 84.3555 78.8885 85.2962C77.4985 85.4563 74.8785 86.7273 74.2785 86.2669C78.4985 85.2362 73.6085 85.7966 77.1485 84.6557C76.4785 84.9259 75.6185 85.1761 74.6085 85.3863C74.4485 85.3663 74.6985 85.2161 74.9685 85.1061C70.9285 85.7065 73.3985 86.347 69.3185 87.4178C69.7485 86.9375 68.2085 87.0075 67.5585 87.2377C69.2085 86.8374 68.4985 87.618 67.0385 88.2585C64.3385 88.6088 64.2085 89.1191 62.8085 89.3894L64.4285 89.1692C63.9685 89.6395 62.6285 89.8797 60.7785 90.3601C60.5685 90.1199 62.4385 89.8297 61.7485 89.8497C59.7985 90.8905 56.9485 90.1299 54.1285 91.0106C52.7485 90.9906 53.8885 90.3701 52.6885 90.4001C49.5085 91.3409 49.1085 90.4402 45.7485 91.2308C46.7885 91.591 46.9585 91.4609 44.5885 92.1915C44.5885 92.1915 45.9885 91.9413 47.3885 91.7011C48.7885 91.4309 50.1785 91.1607 50.1785 91.1607C50.1785 91.1607 49.2985 91.4509 48.4185 91.7512C47.5385 92.0314 46.6485 92.3216 46.6485 92.3216C48.3585 92.1215 50.2085 91.561 51.2385 91.491C49.5685 92.1215 49.7285 91.9813 50.5985 92.2616C48.1685 91.8813 46.0185 93.2924 43.2485 93.0822L43.2185 91.9013C41.1685 91.8412 39.3985 92.1315 37.4585 92.4217C35.5285 92.7019 33.4185 93.0021 30.8385 92.782L32.5085 93.0121C32.3385 93.1322 32.0385 93.1923 31.6785 93.2123C31.4985 93.2223 31.2985 93.2323 31.0885 93.2223C30.9085 93.2123 30.7085 93.2123 30.5085 93.2023C29.9585 93.1623 29.4185 93.0722 28.8385 93.1022C29.2885 92.7419 28.9285 92.5418 29.0685 92.2816C28.8685 92.4017 28.5185 92.3516 28.0385 92.2015C27.7985 92.1315 27.5285 91.9813 27.3285 91.8012C27.1385 91.6311 26.9785 91.511 26.5885 91.471C26.5885 91.471 27.1185 91.2208 27.6185 91.0907C28.1185 90.9505 28.5385 90.8905 28.5385 90.8905C29.4585 90.5402 29.4985 90.24 30.1485 89.6696C31.1485 88.969 32.1585 88.2785 34.1385 87.678C33.1085 88.4887 34.9485 88.1384 32.4685 89.3293C33.7485 88.879 34.9485 88.5587 34.8785 88.2885C35.7085 88.2685 38.3385 86.6072 39.6685 86.6072C40.1785 86.277 40.2385 85.8166 41.7385 85.4163C41.9185 85.4463 41.7885 85.6064 41.7885 85.6064C41.7385 85.4163 44.0485 84.6757 42.6185 84.6357C47.0385 84.6257 54.0885 81.3932 57.9585 81.5333C60.8485 80.6726 64.3585 79.6819 67.0185 79.0314C66.8785 79.1915 67.0585 79.2215 66.5385 79.3016C68.1185 79.0914 68.7285 78.7712 69.2085 78.4309L68.7485 76.2492C68.0485 76.6996 67.5785 77.21 65.0785 77.4201C62.8085 77.18 67.2585 76.6696 65.8685 76.6796C65.0585 75.5087 60.7985 77.7804 57.8185 77.4702L58.4985 77.28C56.2585 77.2 53.2585 78.601 49.6685 78.9913C49.6685 78.9913 49.8285 78.8512 49.6585 78.7912C47.3085 79.782 42.6785 80.5526 39.2385 81.0629C40.2685 80.4525 40.7785 80.6426 40.0785 80.1923C38.5385 80.4124 40.6185 80.9829 37.5285 81.4132C36.4985 81.2331 34.2385 81.163 33.9085 80.6326L36.8185 80.3724C35.2685 79.792 33.0485 80.7027 31.5085 80.6726L31.6885 80.3524C27.2385 80.7027 27.2085 81.5133 22.3885 81.5533L22.8885 81.7835C20.2585 82.5841 20.6785 81.3732 18.0585 81.9136L17.2885 81.103C15.5685 81.2531 11.2085 81.6234 8.14846 81.183C9.95846 80.9629 13.5385 81.0029 15.7785 80.7227C14.9385 80.6827 13.4985 80.6126 12.1685 80.5525C10.8385 80.4925 9.61846 80.4325 9.16846 80.5525C9.84846 80.5826 10.7085 80.5025 11.3585 80.6927C10.2985 80.8928 9.07846 80.9629 7.71846 80.8428C6.28846 80.6626 5.05846 80.5125 3.91846 79.6719C4.24846 79.5818 4.33846 79.4017 4.34846 79.1815C4.35846 78.9613 4.28846 78.6411 4.45846 78.2708C4.59846 77.8805 4.91846 77.5102 5.28846 77.22C5.47846 77.0699 5.67846 76.9398 5.88846 76.8197C5.95846 76.7897 6.14846 76.6596 6.33846 76.5695L6.89846 76.2893C8.42846 75.5887 10.0285 75.1784 10.9285 75.3085C13.6085 74.1176 16.5385 73.4571 19.5885 72.9167C22.6485 72.3863 25.8685 71.986 29.3385 71.3955C26.6785 70.6049 31.3685 71.0452 30.7585 69.9044C32.3785 69.5841 33.0085 69.5141 33.1585 69.5741L38.2085 69.6341C39.4285 69.8343 36.6885 70.1045 36.8785 70.3547C40.4585 69.9844 38.4385 70.675 40.8485 70.705C40.3085 70.3247 42.0185 69.9244 44.0785 69.8643L41.1385 69.6341C46.0785 68.4032 45.5785 70.1445 50.5685 68.9836L49.0085 69.5241C51.5785 69.0137 58.5785 68.6234 61.0585 67.4525C61.5285 67.5525 62.1685 67.8428 61.0285 68.0229C63.2685 67.9028 65.6985 67.5926 68.0885 67.2923L67.7285 62.5987C63.4785 63.2592 59.2685 63.9698 56.1385 63.8297L56.5885 63.4894C55.4385 63.6696 54.6085 64.21 53.1285 64.0198C53.1985 63.8897 53.5785 63.6896 53.0385 63.7096C52.4285 63.8597 49.9885 64.4602 48.4385 64.3901L49.7285 63.9598C43.6385 63.9898 40.4685 65.3809 35.3685 65.7812C35.3485 64.9105 30.5685 64.7704 28.2085 64.6303L28.2885 64.5002C24.7885 64.4602 21.8285 64.5803 18.9585 64.6203C17.5285 64.6303 16.1185 64.6303 14.7085 64.5202C14.3585 64.5002 14.0085 64.4602 13.6585 64.4201L13.5285 64.4001H13.4685H13.3585L13.1185 64.3801C12.7885 64.3501 12.4185 64.28 12.0585 64.1299C12.0185 63.9698 11.9685 63.7997 11.9785 63.6095C11.9785 63.4094 12.0785 63.1792 12.2685 63.009C12.6085 62.7188 13.0085 62.5987 13.3685 62.4886C13.8785 62.3285 14.3985 62.1584 14.9285 61.9883C15.5985 61.7981 16.2885 61.608 16.9885 61.4278C19.8185 60.7373 22.8185 60.2269 25.3585 60.0268C24.3585 60.0368 25.4085 59.3162 26.5385 59.056C28.0685 58.996 30.6385 57.8451 30.5085 58.6757L29.9685 58.7358C31.2185 59.3562 34.2985 58.7458 36.7385 58.4956L37.0185 57.3947C43.5585 58.1753 53.7985 55.2531 57.4285 56.404C58.9585 56.0337 60.8885 55.9136 62.4085 55.5533L62.3585 56.1238C65.1085 56.0537 66.9985 56.0037 69.6085 55.8836L69.4885 50.4894C68.4285 50.4894 66.9685 50.4794 65.0985 50.4194L66.0085 50.0491C63.1085 49.8589 62.1985 51.4502 59.4485 51.2L58.7285 50.2692C53.5985 49.6288 48.6085 48.0075 43.8785 47.0067C43.9985 46.9167 44.2085 46.7565 44.9585 46.9867C44.4185 46.7966 43.6585 46.4563 42.8885 46.066C42.5185 45.8558 42.1285 45.6457 41.7885 45.4255C41.4685 45.2254 41.0585 44.9151 41.0985 44.9351C40.9485 44.815 40.8085 44.705 40.7185 44.6349C40.5685 44.5348 40.4085 44.3947 40.0585 44.4448C40.4785 44.4548 40.4885 44.0745 40.8985 43.7642L41.0585 43.6441C41.1085 43.6041 41.3485 43.494 41.4985 43.424C41.8585 43.2639 42.2385 43.1037 42.6385 42.9536C43.4185 42.6534 44.2185 42.3832 44.8785 42.183L44.5685 42.8135C46.7085 41.7127 46.7785 41.5025 50.0385 40.922C50.8285 40.912 50.7685 41.2923 49.7185 41.2623C52.3485 41.2823 51.6985 40.5117 54.8985 40.5518L53.7385 41.0021C56.4385 40.832 56.2085 40.6719 57.6685 40.1515C59.3585 39.8112 62.8185 40.0114 63.2385 40.5017C63.5885 40.1815 65.0585 39.7011 66.6685 39.7912C66.8885 39.9713 66.3085 40.1114 66.0185 40.1815C70.5685 40.4017 72.7485 39.3308 75.8885 39.8212C75.9585 40.0013 76.1585 40.0914 76.4185 40.1415C72.8085 40.1915 69.9085 40.2415 70.1785 40.1915C70.1985 40.7019 73.0985 40.7219 70.8085 41.4925C73.1285 41.0421 77.1085 40.1214 79.9585 40.3316C80.0985 40.3816 80.2285 40.4317 80.3385 40.5017L80.0485 40.5618C80.7085 40.6018 81.2885 40.5518 81.8385 40.4617C82.7485 40.5418 83.3185 40.6018 84.1885 40.6018C84.5285 41.0221 87.5285 40.812 88.9885 40.842C88.8685 40.2816 90.7685 40.3716 88.9885 39.9013C89.2185 39.9413 88.7085 39.9713 87.7485 39.9913C87.5285 40.0113 87.2685 40.0214 87.1285 40.0514C87.1585 40.0414 87.1885 40.0214 87.2285 40.0013C86.2785 40.0114 85.0285 40.0314 83.6085 40.0514C84.7585 39.7612 85.9585 39.511 87.5685 39.8212C88.3185 39.4609 89.1385 39.0906 89.5985 38.9105C91.5885 39.6911 95.4285 40.1314 95.9585 40.6218C100.398 40.3316 106.418 40.5217 109.238 39.521C110.508 39.4109 110.688 39.8512 111.158 40.0214C110.428 40.1114 109.558 40.0814 109.158 40.2315C111.688 40.0013 116.648 40.2716 117.268 39.551C120.448 39.9613 115.458 40.1815 119.838 40.1715L119.238 40.3816C119.968 40.5017 120.678 40.5918 121.368 40.6518C121.708 40.6819 122.048 40.7019 122.388 40.7319C122.868 40.7519 123.338 40.7719 123.798 40.7919C124.098 40.6618 124.388 40.5418 124.678 40.4217L125.278 40.1515C125.628 39.9813 125.978 39.8112 126.328 39.6511C127.018 39.3108 127.688 38.9505 128.348 38.5903C129.668 37.8497 130.968 37.1291 132.318 36.3786C135.018 34.9074 137.958 33.5063 141.858 32.5656C141.208 32.7358 140.888 32.8258 140.718 32.7558C151.028 29.183 161.198 23.5387 171.528 20.3762C174.428 19.3955 174.558 18.8351 176.138 17.7842L176.978 18.0845L179.658 16.213C183.638 14.0013 187.458 14.5718 192.368 11.4694L191.528 11.3793C193.458 10.6588 197.448 8.64721 197.308 9.21765C197.478 9.06753 197.768 8.56715 198.588 8.45706L198.768 8.72727L203.218 6.28539C206.918 4.9944 203.138 7.67646 208.428 5.53481C210.338 4.6041 213.658 2.35237 212.838 2.47246C212.038 2.7927 210.738 3.13297 210.558 2.86276L212.288 1.96207C212.258 0.961295 213.268 -0.489822 208.618 0.741125L205.768 2.54251L204.608 2.5325L207.178 1.43166C205.548 1.65183 204.768 2.38239 203.828 3.0529C203.488 2.93281 202.998 2.96284 202.348 3.13297L199.678 5.21457C199.168 5.03443 200.748 3.98362 198.648 4.64413C197.398 5.61488 200.318 4.83428 198.088 6.05522C196.458 6.27538 196.758 5.775 195.168 6.82581C194.838 6.70572 195.138 6.41549 195.778 6.02519C194.358 6.92589 191.768 7.82658 191.168 8.61719C189.438 8.7673 186.048 10.8989 185.858 10.0283C185.458 10.4286 183.428 11.7896 182.028 12.4101C184.198 10.3585 176.738 14.5518 176.978 13.2207C175.438 14.892 170.268 16.4732 167.098 18.3747C167.258 18.2246 167.568 17.9344 167.888 17.8543C165.958 18.5749 165.298 18.5348 164.008 18.8851C164.068 19.7057 161.178 21.1068 159.768 22.2177C157.148 22.4879 160.828 20.7765 159.818 20.4163C160.178 20.9567 156.018 22.688 157.018 22.8481C155.058 23.1584 155.398 23.2785 154.228 23.0583C154.298 24.0891 152.638 23.8989 151.388 25.0698C148.628 25.7003 150.368 24.4994 147.658 25.9505C146.228 26.2207 148.608 24.8497 148.608 24.8497ZM79.1585 36.8589C79.1585 36.8489 79.1585 36.8489 79.1585 36.8489C79.7885 36.8289 80.3185 36.8089 80.6685 36.7989C80.3485 36.8089 79.9185 36.8289 79.1585 36.8589ZM73.0185 36.969C73.7685 36.979 74.6985 36.959 75.6785 36.939C75.8985 37.1291 75.6685 37.3293 75.0485 37.3293C75.3885 37.1992 73.9385 37.1191 73.0185 36.969ZM86.0185 40.7119C85.0485 40.792 84.7285 40.6819 84.5985 40.5718C85.0585 40.5618 85.5885 40.5418 86.2885 40.5017C86.3185 40.4817 86.3785 40.4517 86.3985 40.4317C86.3085 40.5318 86.1985 40.6418 86.0185 40.7119Z" fill="#A97D5E"/>
<path id="XMLID_29_" d="M87.7485 39.9711C87.8885 39.9611 87.9685 39.9311 88.1485 39.9311C87.9485 39.8811 87.7585 39.8411 87.5685 39.8011C87.4485 39.8611 87.3285 39.9211 87.2285 39.9811C87.4085 39.9711 87.5885 39.9711 87.7485 39.9711Z" fill="#A97D5E"/>
<path id="XMLID_28_" d="M113.308 91.5912L113.188 91.6312C113.297 91.6112 113.397 91.5912 113.467 91.6012C113.377 91.6112 113.368 91.5912 113.308 91.5912Z" fill="#A97D5E"/>
<path id="XMLID_27_" d="M55.7578 51.41L55.7778 51.55L56.3078 51.38L55.7578 51.41Z" fill="#A97D5E"/>
<path id="XMLID_26_" d="M144.049 77.9504C144.129 77.9704 144.259 77.9704 144.509 77.9104C144.469 77.8804 144.279 77.9104 144.049 77.9504Z" fill="#A97D5E"/>
<path id="XMLID_25_" d="M157.578 72.7466L159.578 72.2362C158.708 72.4364 158.078 72.6065 157.578 72.7466Z" fill="#A97D5E"/>
<path id="XMLID_24_" d="M168.209 69.3137C168.309 69.1737 168.329 69.0937 168.339 69.0137H168.319L168.209 69.3137Z" fill="#A97D5E"/>
<path id="XMLID_23_" d="M64.2294 92.882C64.0794 92.912 63.9394 92.952 63.8094 93.002C62.8294 93.312 63.4994 93.122 64.2294 92.882Z" fill="#A97D5E"/>
<path id="XMLID_22_" d="M90.459 89.2193C90.939 88.9091 91.409 88.5988 91.929 88.3086C91.039 88.6388 90.359 88.9191 90.459 89.2193Z" fill="#A97D5E"/>
<path id="XMLID_21_" d="M37.5685 82.544C37.5685 82.544 37.5685 82.544 37.5685 82.554C37.6885 82.514 37.7985 82.484 37.9185 82.444L37.5685 82.544Z" fill="#A97D5E"/>
<path id="XMLID_20_" d="M94.2178 87.3677C93.2978 87.6279 92.5777 87.9481 91.9277 88.3084C92.6577 88.0482 93.5178 87.748 94.2178 87.3677Z" fill="#A97D5E"/>
<path id="XMLID_19_" d="M214.699 55.7033L215.229 55.5833C215.209 55.5533 215.229 55.5133 215.269 55.4833L214.699 55.7033Z" fill="#A97D5E"/>
<path id="XMLID_18_" d="M215.268 55.4832L215.828 55.2632C215.558 55.3332 215.328 55.3932 215.268 55.4832Z" fill="#A97D5E"/>
<path id="XMLID_17_" d="M217.008 54.8029L215.828 55.2632C216.248 55.1431 216.768 55.033 217.008 54.8029Z" fill="#A97D5E"/>
<path id="XMLID_16_" d="M200.368 59.3962L200.258 59.6362C200.338 59.5762 200.368 59.4962 200.368 59.3962Z" fill="#A97D5E"/>
<path id="XMLID_15_" d="M196.058 60.6873C197.098 60.4371 198.768 60.367 200.168 59.8366L200.258 59.6465C199.668 60.1269 196.938 60.0768 196.058 60.6873Z" fill="#A97D5E"/>
<path id="XMLID_14_" d="M177.328 63.7295C177.328 63.7295 178.238 63.4793 179.158 63.2291C180.078 62.989 180.988 62.7488 180.988 62.7488C180.288 62.7388 179.378 62.7087 180.998 62.1583C176.248 62.9589 182.078 62.3184 177.328 63.7295Z" fill="#A97D5E"/>
<path id="XMLID_13_" d="M166.088 67.0921C167.978 66.3416 165.968 66.8019 166.028 66.6518C164.868 67.2623 164.588 67.4024 166.088 67.0921Z" fill="#A97D5E"/>
<path id="XMLID_12_" d="M88.269 99.117L88.369 98.5765C86.8691 98.9468 88.389 98.7767 88.269 99.117Z" fill="#A97D5E"/>
<path id="XMLID_11_" d="M71.1289 101.829C71.1289 101.829 71.3289 102.089 71.5589 102.309C71.7789 102.53 72.0389 102.73 72.0389 102.73C72.0389 102.73 72.3389 102.73 72.6489 102.71C72.9589 102.69 73.2789 102.65 73.2789 102.65C73.2789 102.65 72.6689 102.54 72.1289 102.339C71.5789 102.159 71.1289 101.829 71.1289 101.829Z" fill="#A97D5E"/>
<path id="XMLID_10_" d="M79.7491 97.5756L79.6191 97.7257C79.6191 97.7257 79.6491 97.6957 79.6991 97.6457C79.7291 97.6257 79.7591 97.5956 79.7891 97.5656C79.8091 97.5456 80.0191 97.4155 80.1391 97.3454C80.6891 97.0152 81.2391 96.6949 81.2391 96.6949C81.2391 96.6949 80.8291 96.9351 80.4191 97.1653C80.2191 97.2854 80.0091 97.4055 79.8591 97.4956C79.7291 97.5756 79.7691 97.5656 79.7491 97.5756Z" fill="#A97D5E"/>
<path id="XMLID_9_" d="M54.7888 82.8943L54.1788 82.4039C53.1789 82.7742 53.1389 83.5148 54.7888 82.8943Z" fill="#A97D5E"/>
<path id="XMLID_8_" d="M22.7891 81.1329C22.1191 80.8327 20.4191 80.6426 19.3691 80.9328C20.7291 80.9928 22.0891 81.223 22.7891 81.1329Z" fill="#A97D5E"/>
<path id="XMLID_7_" d="M39.9891 57.8352L38.7891 58.1754L41.0691 57.7651L39.9891 57.8352Z" fill="#A97D5E"/>
</g>
</g>
</g>
</g>
</g>
</g>
</svg>
