<svg width="219" height="132" viewBox="0 0 219 132" fill="none" xmlns="http://www.w3.org/2000/svg">
<g id="&#235;&#176;&#152;&#236;&#157;&#145;&#237;&#152;&#149; &#235;&#161;&#156;&#234;&#179;&#160; " clip-path="url(#clip0_1168_1404)">
<g id="Group">
<path id="Vector" d="M191.99 31.06C184.23 20.43 173.5 11.96 161.46 6.69003C147.51 0.590029 131.8 -0.979972 116.75 0.530028C101.02 2.10003 85.68 7.00003 71.56 14C59.23 20.11 47.64 28.08 38.32 38.26C29.29 48.13 22.52 60.35 21.07 73.8C19.84 85.23 23.8 99.99 35.9 104C44.23 106.39 52.7 108.23 61.27 109.55C68.86 110.72 76.52 111.51 84.18 112.05C90.96 112.53 98.28 112.68 104.54 109.64C107.37 108.26 109.73 106.28 111.23 103.47C112.48 101.13 113.15 98.12 111.94 95.62C110.46 92.55 106.96 91.69 103.82 91.67C100.86 91.65 97.87 92.11 94.92 92.51C94.31 92.59 93.7 92.68 93.09 92.75C93.06 92.75 93.02 92.76 92.99 92.76C92.69 92.8 92.36 92.46 92.39 92.16C92.87 87.93 94.89 84.14 95.67 79.98C96.41 76.03 95.25 72.38 92.3 69.64C89.38 66.93 85.48 65.72 81.6 65.17C76.13 64.39 66.4 63.31 63.63 69.61C63.32 70.32 62.29 69.7 62.59 69C64.08 65.6 67.63 64.18 71.1 63.7C74.93 63.17 78.99 63.5 82.79 64.14C86.76 64.81 90.67 66.28 93.55 69.18C96.3 71.94 97.5 75.56 96.97 79.42C96.39 83.56 94.35 87.34 93.71 91.46C93.98 91.42 94.25 91.38 94.54 91.34C94.96 90.95 95.37 90.57 95.79 90.19C98.74 87.56 101.9 85.16 105.16 82.92C110.06 79.55 115.2 76.46 120.91 74.65C129.53 71.92 138.41 72.33 146.93 75.15C149.4 75.97 151.86 76.87 154.29 77.8C154.67 77.95 155.05 78.09 155.43 78.24C155.24 78.59 155.05 78.94 154.86 79.3C154.24 80.46 153.63 81.63 152.99 82.77C151.08 86.16 150.37 89.73 150.79 93.59C151.34 98.66 153.66 103.45 158.07 106.22C166.8 111.7 178.59 108.43 186.3 102.71C197.25 94.57 203.69 80.78 204.01 67.26C204.32 54.21 199.63 41.54 191.99 31.06ZM177.22 88.2C174.23 87.62 170.83 86.71 169 84.06C167.51 81.91 167.3 78.52 169.47 76.73C170.06 76.24 170.92 77.09 170.32 77.58C168.49 79.09 168.83 81.95 170.19 83.66C171.92 85.85 174.95 86.54 177.54 87.04C178.3 87.19 177.98 88.34 177.22 88.2ZM178.57 64.59C174.91 68.61 170.61 72.02 165.84 74.63C162.59 76.41 158.59 78.6 154.73 77.89C153.22 77.61 151.88 76.72 151.35 75.24C150.65 73.3 151.4 70.83 151.89 68.92C154.07 60.46 159.43 52.98 166.68 48.12C167.32 47.69 167.92 48.73 167.29 49.16C163.55 51.66 160.33 54.88 157.82 58.62C155.68 61.81 154.07 65.34 153.09 69.05C152.6 70.9 151.63 73.74 152.8 75.46C153.75 76.85 155.76 76.92 157.27 76.74C161.03 76.28 164.79 73.99 167.93 71.99C171.55 69.69 174.82 66.9 177.71 63.73C178.24 63.17 179.09 64.02 178.57 64.59Z" fill="#006838"/>
<path id="Vector_2" d="M93.09 92.76C93.1 92.76 93.1 92.76 93.09 92.76C93.57 92.28 94.05 91.82 94.54 91.36C94.54 91.36 94.54 91.36 94.53 91.36C94.04 91.82 93.57 92.28 93.09 92.76Z" fill="#006838"/>
<path id="Vector_3" d="M204.82 72.26C204.13 77.5 202.56 82.61 200.25 87.36C199.92 88.03 199.56 88.68 199.22 89.35C198.89 90.01 199.01 90.19 199.35 90.87C199.81 91.8 200.41 92.67 201.1 93.45C202.7 95.27 204.81 96.67 207.16 97.29C212.12 98.59 215.96 94.97 217.64 90.56C219.59 85.45 219.11 79.32 217.29 74.26C214.58 67.13 209.32 61.22 204.21 55.63C205.26 61.1 205.56 66.72 204.82 72.26Z" fill="#006838"/>
<path id="Vector_4" d="M2.84 111.68C6.8 121.25 15.87 129.04 26.19 130.71C30.96 131.48 37.73 131.2 41.15 127.25C43.25 124.83 42.64 121.62 40.67 119.34C38.62 116.96 35.66 115.94 32.71 115.14C29.94 114.4 27.17 113.76 24.58 112.48C22.32 111.36 20.25 109.87 18.44 108.11C14.88 104.65 12.3 100.11 11.31 95.23C10.17 89.56 10.89 83.4 12.7 77.94C14.21 73.37 16.53 68.09 21.26 66.14C22.14 62.75 23.33 59.46 24.77 56.27C22.73 56.58 20.68 57.08 18.83 58C17.34 58.73 16.08 59.82 14.87 60.94C11.61 64 8.63 67.58 6.54 71.54C0.310005 83.7 -2.54 98.67 2.84 111.68Z" fill="#006838"/>
</g>
</g>
<defs>
<clipPath id="clip0_1168_1404">
<rect width="218.9" height="131.05" fill="white"/>
</clipPath>
</defs>
</svg>
